M48
; DRILL file {KiCad (5.1.10)-1} date 05/22/21 21:51:05
; FORMAT={-:-/ absolute / inch / decimal}
; #@! TF.CreationDate,2021-05-22T21:51:05-07:00
; #@! TF.GenerationSoftware,Kicad,Pcbnew,(5.1.10)-1
; #@! TF.FileFunction,Plated,1,2,PTH
FMAT,2
INCH
T1C0.0157
T2C0.0394
%
G90
G05
T1
X0.0Y0.905
X0.0Y0.76
X0.0Y0.605
X0.0Y0.45
X0.0Y0.305
X0.0Y0.15
X0.0Y0.0
X0.115Y0.45
X0.2Y0.905
X0.2Y0.0
X0.26Y0.635
X0.26Y0.595
X0.26Y0.555
X0.3Y0.635
X0.3Y0.595
X0.3Y0.555
X0.42Y0.24
X0.435Y0.56
X0.44Y0.905
X0.44Y0.0
X0.5Y0.285
X0.56Y0.21
X0.57Y0.305
X0.61Y0.745
X0.61Y0.185
X0.63Y0.48
X0.675Y0.905
X0.675Y0.0
X0.68Y0.625
X0.79Y0.315
X0.875Y0.255
X0.91Y0.905
X0.91Y0.63
X0.91Y0.0
X1.0995Y0.7395
X1.135Y0.905
X1.135Y0.0
X1.22Y0.535
X1.37Y0.905
X1.37Y0.76
X1.37Y0.605
X1.37Y0.45
X1.37Y0.305
X1.37Y0.15
X1.37Y0.0
T2
X0.125Y0.32
X0.125Y0.22
X0.125Y0.12
X0.225Y0.32
X0.225Y0.22
X0.225Y0.12
X1.05Y0.435
X1.05Y0.335
X1.265Y0.405
X1.265Y0.305
X1.265Y0.205
X1.265Y0.105
X1.27Y0.78
X1.27Y0.68
X1.27Y0.58
T0
M30
