G04 #@! TF.GenerationSoftware,KiCad,Pcbnew,(5.1.10)-1*
G04 #@! TF.CreationDate,2021-05-22T21:50:54-07:00*
G04 #@! TF.ProjectId,E-Bike,452d4269-6b65-42e6-9b69-6361645f7063,rev?*
G04 #@! TF.SameCoordinates,PX619eb90PY83695b8*
G04 #@! TF.FileFunction,Paste,Top*
G04 #@! TF.FilePolarity,Positive*
%FSLAX45Y45*%
G04 Gerber Fmt 4.5, Leading zero omitted, Abs format (unit mm)*
G04 Created by KiCad (PCBNEW (5.1.10)-1) date 2021-05-22 21:50:54*
%MOMM*%
%LPD*%
G01*
G04 APERTURE LIST*
%ADD10R,1.060000X0.650000*%
%ADD11R,0.650000X1.700000*%
%ADD12R,1.400000X0.300000*%
%ADD13R,1.500000X3.600000*%
G04 APERTURE END LIST*
D10*
X2116600Y1911100D03*
X2116600Y1721100D03*
X1896600Y1721100D03*
X1896600Y1816100D03*
X1896600Y1911100D03*
D11*
X1054100Y936500D03*
X1181100Y936500D03*
X1308100Y936500D03*
X1435100Y936500D03*
X1435100Y206500D03*
X1308100Y206500D03*
X1181100Y206500D03*
X1054100Y206500D03*
D12*
X931200Y1598600D03*
X931200Y1548600D03*
X931200Y1498600D03*
X931200Y1448600D03*
X931200Y1398600D03*
X491200Y1398600D03*
X491200Y1448600D03*
X491200Y1498600D03*
X491200Y1548600D03*
X491200Y1598600D03*
G36*
G01*
X2078400Y976250D02*
X2078400Y928750D01*
G75*
G02*
X2054650Y905000I-23750J0D01*
G01*
X2004650Y905000D01*
G75*
G02*
X1980900Y928750I0J23750D01*
G01*
X1980900Y976250D01*
G75*
G02*
X2004650Y1000000I23750J0D01*
G01*
X2054650Y1000000D01*
G75*
G02*
X2078400Y976250I0J-23750D01*
G01*
G37*
G36*
G01*
X2260900Y976250D02*
X2260900Y928750D01*
G75*
G02*
X2237150Y905000I-23750J0D01*
G01*
X2187150Y905000D01*
G75*
G02*
X2163400Y928750I0J23750D01*
G01*
X2163400Y976250D01*
G75*
G02*
X2187150Y1000000I23750J0D01*
G01*
X2237150Y1000000D01*
G75*
G02*
X2260900Y976250I0J-23750D01*
G01*
G37*
G36*
G01*
X2125300Y230250D02*
X2125300Y277750D01*
G75*
G02*
X2149050Y301500I23750J0D01*
G01*
X2199050Y301500D01*
G75*
G02*
X2222800Y277750I0J-23750D01*
G01*
X2222800Y230250D01*
G75*
G02*
X2199050Y206500I-23750J0D01*
G01*
X2149050Y206500D01*
G75*
G02*
X2125300Y230250I0J23750D01*
G01*
G37*
G36*
G01*
X1942800Y230250D02*
X1942800Y277750D01*
G75*
G02*
X1966550Y301500I23750J0D01*
G01*
X2016550Y301500D01*
G75*
G02*
X2040300Y277750I0J-23750D01*
G01*
X2040300Y230250D01*
G75*
G02*
X2016550Y206500I-23750J0D01*
G01*
X1966550Y206500D01*
G75*
G02*
X1942800Y230250I0J23750D01*
G01*
G37*
G36*
G01*
X2125300Y484250D02*
X2125300Y531750D01*
G75*
G02*
X2149050Y555500I23750J0D01*
G01*
X2199050Y555500D01*
G75*
G02*
X2222800Y531750I0J-23750D01*
G01*
X2222800Y484250D01*
G75*
G02*
X2199050Y460500I-23750J0D01*
G01*
X2149050Y460500D01*
G75*
G02*
X2125300Y484250I0J23750D01*
G01*
G37*
G36*
G01*
X1942800Y484250D02*
X1942800Y531750D01*
G75*
G02*
X1966550Y555500I23750J0D01*
G01*
X2016550Y555500D01*
G75*
G02*
X2040300Y531750I0J-23750D01*
G01*
X2040300Y484250D01*
G75*
G02*
X2016550Y460500I-23750J0D01*
G01*
X1966550Y460500D01*
G75*
G02*
X1942800Y484250I0J23750D01*
G01*
G37*
G36*
G01*
X1820500Y928750D02*
X1820500Y976250D01*
G75*
G02*
X1844250Y1000000I23750J0D01*
G01*
X1894250Y1000000D01*
G75*
G02*
X1918000Y976250I0J-23750D01*
G01*
X1918000Y928750D01*
G75*
G02*
X1894250Y905000I-23750J0D01*
G01*
X1844250Y905000D01*
G75*
G02*
X1820500Y928750I0J23750D01*
G01*
G37*
G36*
G01*
X1638000Y928750D02*
X1638000Y976250D01*
G75*
G02*
X1661750Y1000000I23750J0D01*
G01*
X1711750Y1000000D01*
G75*
G02*
X1735500Y976250I0J-23750D01*
G01*
X1735500Y928750D01*
G75*
G02*
X1711750Y905000I-23750J0D01*
G01*
X1661750Y905000D01*
G75*
G02*
X1638000Y928750I0J23750D01*
G01*
G37*
G36*
G01*
X2912700Y1551050D02*
X2912700Y1598550D01*
G75*
G02*
X2936450Y1622300I23750J0D01*
G01*
X2986450Y1622300D01*
G75*
G02*
X3010200Y1598550I0J-23750D01*
G01*
X3010200Y1551050D01*
G75*
G02*
X2986450Y1527300I-23750J0D01*
G01*
X2936450Y1527300D01*
G75*
G02*
X2912700Y1551050I0J23750D01*
G01*
G37*
G36*
G01*
X2730200Y1551050D02*
X2730200Y1598550D01*
G75*
G02*
X2753950Y1622300I23750J0D01*
G01*
X2803950Y1622300D01*
G75*
G02*
X2827700Y1598550I0J-23750D01*
G01*
X2827700Y1551050D01*
G75*
G02*
X2803950Y1527300I-23750J0D01*
G01*
X2753950Y1527300D01*
G75*
G02*
X2730200Y1551050I0J23750D01*
G01*
G37*
G36*
G01*
X2912700Y1385950D02*
X2912700Y1433450D01*
G75*
G02*
X2936450Y1457200I23750J0D01*
G01*
X2986450Y1457200D01*
G75*
G02*
X3010200Y1433450I0J-23750D01*
G01*
X3010200Y1385950D01*
G75*
G02*
X2986450Y1362200I-23750J0D01*
G01*
X2936450Y1362200D01*
G75*
G02*
X2912700Y1385950I0J23750D01*
G01*
G37*
G36*
G01*
X2730200Y1385950D02*
X2730200Y1433450D01*
G75*
G02*
X2753950Y1457200I23750J0D01*
G01*
X2803950Y1457200D01*
G75*
G02*
X2827700Y1433450I0J-23750D01*
G01*
X2827700Y1385950D01*
G75*
G02*
X2803950Y1362200I-23750J0D01*
G01*
X2753950Y1362200D01*
G75*
G02*
X2730200Y1385950I0J23750D01*
G01*
G37*
G36*
G01*
X973500Y1242950D02*
X973500Y1195450D01*
G75*
G02*
X949750Y1171700I-23750J0D01*
G01*
X899750Y1171700D01*
G75*
G02*
X876000Y1195450I0J23750D01*
G01*
X876000Y1242950D01*
G75*
G02*
X899750Y1266700I23750J0D01*
G01*
X949750Y1266700D01*
G75*
G02*
X973500Y1242950I0J-23750D01*
G01*
G37*
G36*
G01*
X1156000Y1242950D02*
X1156000Y1195450D01*
G75*
G02*
X1132250Y1171700I-23750J0D01*
G01*
X1082250Y1171700D01*
G75*
G02*
X1058500Y1195450I0J23750D01*
G01*
X1058500Y1242950D01*
G75*
G02*
X1082250Y1266700I23750J0D01*
G01*
X1132250Y1266700D01*
G75*
G02*
X1156000Y1242950I0J-23750D01*
G01*
G37*
G36*
G01*
X1303700Y1242950D02*
X1303700Y1195450D01*
G75*
G02*
X1279950Y1171700I-23750J0D01*
G01*
X1229950Y1171700D01*
G75*
G02*
X1206200Y1195450I0J23750D01*
G01*
X1206200Y1242950D01*
G75*
G02*
X1229950Y1266700I23750J0D01*
G01*
X1279950Y1266700D01*
G75*
G02*
X1303700Y1242950I0J-23750D01*
G01*
G37*
G36*
G01*
X1486200Y1242950D02*
X1486200Y1195450D01*
G75*
G02*
X1462450Y1171700I-23750J0D01*
G01*
X1412450Y1171700D01*
G75*
G02*
X1388700Y1195450I0J23750D01*
G01*
X1388700Y1242950D01*
G75*
G02*
X1412450Y1266700I23750J0D01*
G01*
X1462450Y1266700D01*
G75*
G02*
X1486200Y1242950I0J-23750D01*
G01*
G37*
G36*
G01*
X268350Y1329100D02*
X315850Y1329100D01*
G75*
G02*
X339600Y1305350I0J-23750D01*
G01*
X339600Y1255350D01*
G75*
G02*
X315850Y1231600I-23750J0D01*
G01*
X268350Y1231600D01*
G75*
G02*
X244600Y1255350I0J23750D01*
G01*
X244600Y1305350D01*
G75*
G02*
X268350Y1329100I23750J0D01*
G01*
G37*
G36*
G01*
X268350Y1511600D02*
X315850Y1511600D01*
G75*
G02*
X339600Y1487850I0J-23750D01*
G01*
X339600Y1437850D01*
G75*
G02*
X315850Y1414100I-23750J0D01*
G01*
X268350Y1414100D01*
G75*
G02*
X244600Y1437850I0J23750D01*
G01*
X244600Y1487850D01*
G75*
G02*
X268350Y1511600I23750J0D01*
G01*
G37*
D13*
X1244700Y1917700D03*
X939700Y1917700D03*
G36*
G01*
X2380500Y279000D02*
X2380500Y229000D01*
G75*
G02*
X2358000Y206500I-22500J0D01*
G01*
X2313000Y206500D01*
G75*
G02*
X2290500Y229000I0J22500D01*
G01*
X2290500Y279000D01*
G75*
G02*
X2313000Y301500I22500J0D01*
G01*
X2358000Y301500D01*
G75*
G02*
X2380500Y279000I0J-22500D01*
G01*
G37*
G36*
G01*
X2535500Y279000D02*
X2535500Y229000D01*
G75*
G02*
X2513000Y206500I-22500J0D01*
G01*
X2468000Y206500D01*
G75*
G02*
X2445500Y229000I0J22500D01*
G01*
X2445500Y279000D01*
G75*
G02*
X2468000Y301500I22500J0D01*
G01*
X2513000Y301500D01*
G75*
G02*
X2535500Y279000I0J-22500D01*
G01*
G37*
G36*
G01*
X2380500Y533000D02*
X2380500Y483000D01*
G75*
G02*
X2358000Y460500I-22500J0D01*
G01*
X2313000Y460500D01*
G75*
G02*
X2290500Y483000I0J22500D01*
G01*
X2290500Y533000D01*
G75*
G02*
X2313000Y555500I22500J0D01*
G01*
X2358000Y555500D01*
G75*
G02*
X2380500Y533000I0J-22500D01*
G01*
G37*
G36*
G01*
X2535500Y533000D02*
X2535500Y483000D01*
G75*
G02*
X2513000Y460500I-22500J0D01*
G01*
X2468000Y460500D01*
G75*
G02*
X2445500Y483000I0J22500D01*
G01*
X2445500Y533000D01*
G75*
G02*
X2468000Y555500I22500J0D01*
G01*
X2513000Y555500D01*
G75*
G02*
X2535500Y533000I0J-22500D01*
G01*
G37*
G36*
G01*
X2362600Y881900D02*
X2412600Y881900D01*
G75*
G02*
X2435100Y859400I0J-22500D01*
G01*
X2435100Y814400D01*
G75*
G02*
X2412600Y791900I-22500J0D01*
G01*
X2362600Y791900D01*
G75*
G02*
X2340100Y814400I0J22500D01*
G01*
X2340100Y859400D01*
G75*
G02*
X2362600Y881900I22500J0D01*
G01*
G37*
G36*
G01*
X2362600Y1036900D02*
X2412600Y1036900D01*
G75*
G02*
X2435100Y1014400I0J-22500D01*
G01*
X2435100Y969400D01*
G75*
G02*
X2412600Y946900I-22500J0D01*
G01*
X2362600Y946900D01*
G75*
G02*
X2340100Y969400I0J22500D01*
G01*
X2340100Y1014400D01*
G75*
G02*
X2362600Y1036900I22500J0D01*
G01*
G37*
G36*
G01*
X2921400Y907300D02*
X2971400Y907300D01*
G75*
G02*
X2993900Y884800I0J-22500D01*
G01*
X2993900Y839800D01*
G75*
G02*
X2971400Y817300I-22500J0D01*
G01*
X2921400Y817300D01*
G75*
G02*
X2898900Y839800I0J22500D01*
G01*
X2898900Y884800D01*
G75*
G02*
X2921400Y907300I22500J0D01*
G01*
G37*
G36*
G01*
X2921400Y1062300D02*
X2971400Y1062300D01*
G75*
G02*
X2993900Y1039800I0J-22500D01*
G01*
X2993900Y994800D01*
G75*
G02*
X2971400Y972300I-22500J0D01*
G01*
X2921400Y972300D01*
G75*
G02*
X2898900Y994800I0J22500D01*
G01*
X2898900Y1039800D01*
G75*
G02*
X2921400Y1062300I22500J0D01*
G01*
G37*
G36*
G01*
X2837700Y1764900D02*
X2837700Y1714900D01*
G75*
G02*
X2815200Y1692400I-22500J0D01*
G01*
X2770200Y1692400D01*
G75*
G02*
X2747700Y1714900I0J22500D01*
G01*
X2747700Y1764900D01*
G75*
G02*
X2770200Y1787400I22500J0D01*
G01*
X2815200Y1787400D01*
G75*
G02*
X2837700Y1764900I0J-22500D01*
G01*
G37*
G36*
G01*
X2992700Y1764900D02*
X2992700Y1714900D01*
G75*
G02*
X2970200Y1692400I-22500J0D01*
G01*
X2925200Y1692400D01*
G75*
G02*
X2902700Y1714900I0J22500D01*
G01*
X2902700Y1764900D01*
G75*
G02*
X2925200Y1787400I22500J0D01*
G01*
X2970200Y1787400D01*
G75*
G02*
X2992700Y1764900I0J-22500D01*
G01*
G37*
G36*
G01*
X1720100Y279000D02*
X1720100Y229000D01*
G75*
G02*
X1697600Y206500I-22500J0D01*
G01*
X1652600Y206500D01*
G75*
G02*
X1630100Y229000I0J22500D01*
G01*
X1630100Y279000D01*
G75*
G02*
X1652600Y301500I22500J0D01*
G01*
X1697600Y301500D01*
G75*
G02*
X1720100Y279000I0J-22500D01*
G01*
G37*
G36*
G01*
X1875100Y279000D02*
X1875100Y229000D01*
G75*
G02*
X1852600Y206500I-22500J0D01*
G01*
X1807600Y206500D01*
G75*
G02*
X1785100Y229000I0J22500D01*
G01*
X1785100Y279000D01*
G75*
G02*
X1807600Y301500I22500J0D01*
G01*
X1852600Y301500D01*
G75*
G02*
X1875100Y279000I0J-22500D01*
G01*
G37*
G36*
G01*
X1720100Y533000D02*
X1720100Y483000D01*
G75*
G02*
X1697600Y460500I-22500J0D01*
G01*
X1652600Y460500D01*
G75*
G02*
X1630100Y483000I0J22500D01*
G01*
X1630100Y533000D01*
G75*
G02*
X1652600Y555500I22500J0D01*
G01*
X1697600Y555500D01*
G75*
G02*
X1720100Y533000I0J-22500D01*
G01*
G37*
G36*
G01*
X1875100Y533000D02*
X1875100Y483000D01*
G75*
G02*
X1852600Y460500I-22500J0D01*
G01*
X1807600Y460500D01*
G75*
G02*
X1785100Y483000I0J22500D01*
G01*
X1785100Y533000D01*
G75*
G02*
X1807600Y555500I22500J0D01*
G01*
X1852600Y555500D01*
G75*
G02*
X1875100Y533000I0J-22500D01*
G01*
G37*
G36*
G01*
X1810500Y775100D02*
X1810500Y825100D01*
G75*
G02*
X1833000Y847600I22500J0D01*
G01*
X1878000Y847600D01*
G75*
G02*
X1900500Y825100I0J-22500D01*
G01*
X1900500Y775100D01*
G75*
G02*
X1878000Y752600I-22500J0D01*
G01*
X1833000Y752600D01*
G75*
G02*
X1810500Y775100I0J22500D01*
G01*
G37*
G36*
G01*
X1655500Y775100D02*
X1655500Y825100D01*
G75*
G02*
X1678000Y847600I22500J0D01*
G01*
X1723000Y847600D01*
G75*
G02*
X1745500Y825100I0J-22500D01*
G01*
X1745500Y775100D01*
G75*
G02*
X1723000Y752600I-22500J0D01*
G01*
X1678000Y752600D01*
G75*
G02*
X1655500Y775100I0J22500D01*
G01*
G37*
G36*
G01*
X2286400Y1783600D02*
X2336400Y1783600D01*
G75*
G02*
X2358900Y1761100I0J-22500D01*
G01*
X2358900Y1716100D01*
G75*
G02*
X2336400Y1693600I-22500J0D01*
G01*
X2286400Y1693600D01*
G75*
G02*
X2263900Y1716100I0J22500D01*
G01*
X2263900Y1761100D01*
G75*
G02*
X2286400Y1783600I22500J0D01*
G01*
G37*
G36*
G01*
X2286400Y1938600D02*
X2336400Y1938600D01*
G75*
G02*
X2358900Y1916100I0J-22500D01*
G01*
X2358900Y1871100D01*
G75*
G02*
X2336400Y1848600I-22500J0D01*
G01*
X2286400Y1848600D01*
G75*
G02*
X2263900Y1871100I0J22500D01*
G01*
X2263900Y1916100D01*
G75*
G02*
X2286400Y1938600I22500J0D01*
G01*
G37*
G36*
G01*
X1956600Y1439300D02*
X1956600Y1329300D01*
G75*
G02*
X1931600Y1304300I-25000J0D01*
G01*
X1721600Y1304300D01*
G75*
G02*
X1696600Y1329300I0J25000D01*
G01*
X1696600Y1439300D01*
G75*
G02*
X1721600Y1464300I25000J0D01*
G01*
X1931600Y1464300D01*
G75*
G02*
X1956600Y1439300I0J-25000D01*
G01*
G37*
G36*
G01*
X2316600Y1439300D02*
X2316600Y1329300D01*
G75*
G02*
X2291600Y1304300I-25000J0D01*
G01*
X2081600Y1304300D01*
G75*
G02*
X2056600Y1329300I0J25000D01*
G01*
X2056600Y1439300D01*
G75*
G02*
X2081600Y1464300I25000J0D01*
G01*
X2291600Y1464300D01*
G75*
G02*
X2316600Y1439300I0J-25000D01*
G01*
G37*
G36*
G01*
X1702200Y1809000D02*
X1752200Y1809000D01*
G75*
G02*
X1774700Y1786500I0J-22500D01*
G01*
X1774700Y1741500D01*
G75*
G02*
X1752200Y1719000I-22500J0D01*
G01*
X1702200Y1719000D01*
G75*
G02*
X1679700Y1741500I0J22500D01*
G01*
X1679700Y1786500D01*
G75*
G02*
X1702200Y1809000I22500J0D01*
G01*
G37*
G36*
G01*
X1702200Y1964000D02*
X1752200Y1964000D01*
G75*
G02*
X1774700Y1941500I0J-22500D01*
G01*
X1774700Y1896500D01*
G75*
G02*
X1752200Y1874000I-22500J0D01*
G01*
X1702200Y1874000D01*
G75*
G02*
X1679700Y1896500I0J22500D01*
G01*
X1679700Y1941500D01*
G75*
G02*
X1702200Y1964000I22500J0D01*
G01*
G37*
G36*
G01*
X1245000Y1491500D02*
X1295000Y1491500D01*
G75*
G02*
X1317500Y1469000I0J-22500D01*
G01*
X1317500Y1424000D01*
G75*
G02*
X1295000Y1401500I-22500J0D01*
G01*
X1245000Y1401500D01*
G75*
G02*
X1222500Y1424000I0J22500D01*
G01*
X1222500Y1469000D01*
G75*
G02*
X1245000Y1491500I22500J0D01*
G01*
G37*
G36*
G01*
X1245000Y1646500D02*
X1295000Y1646500D01*
G75*
G02*
X1317500Y1624000I0J-22500D01*
G01*
X1317500Y1579000D01*
G75*
G02*
X1295000Y1556500I-22500J0D01*
G01*
X1245000Y1556500D01*
G75*
G02*
X1222500Y1579000I0J22500D01*
G01*
X1222500Y1624000D01*
G75*
G02*
X1245000Y1646500I22500J0D01*
G01*
G37*
G36*
G01*
X1408200Y1510200D02*
X1538200Y1510200D01*
G75*
G02*
X1563200Y1485200I0J-25000D01*
G01*
X1563200Y1420200D01*
G75*
G02*
X1538200Y1395200I-25000J0D01*
G01*
X1408200Y1395200D01*
G75*
G02*
X1383200Y1420200I0J25000D01*
G01*
X1383200Y1485200D01*
G75*
G02*
X1408200Y1510200I25000J0D01*
G01*
G37*
G36*
G01*
X1408200Y1805200D02*
X1538200Y1805200D01*
G75*
G02*
X1563200Y1780200I0J-25000D01*
G01*
X1563200Y1715200D01*
G75*
G02*
X1538200Y1690200I-25000J0D01*
G01*
X1408200Y1690200D01*
G75*
G02*
X1383200Y1715200I0J25000D01*
G01*
X1383200Y1780200D01*
G75*
G02*
X1408200Y1805200I25000J0D01*
G01*
G37*
G36*
G01*
X838600Y704100D02*
X888600Y704100D01*
G75*
G02*
X911100Y681600I0J-22500D01*
G01*
X911100Y636600D01*
G75*
G02*
X888600Y614100I-22500J0D01*
G01*
X838600Y614100D01*
G75*
G02*
X816100Y636600I0J22500D01*
G01*
X816100Y681600D01*
G75*
G02*
X838600Y704100I22500J0D01*
G01*
G37*
G36*
G01*
X838600Y859100D02*
X888600Y859100D01*
G75*
G02*
X911100Y836600I0J-22500D01*
G01*
X911100Y791600D01*
G75*
G02*
X888600Y769100I-22500J0D01*
G01*
X838600Y769100D01*
G75*
G02*
X816100Y791600I0J22500D01*
G01*
X816100Y836600D01*
G75*
G02*
X838600Y859100I22500J0D01*
G01*
G37*
G36*
G01*
X674200Y1916200D02*
X674200Y2046200D01*
G75*
G02*
X699200Y2071200I25000J0D01*
G01*
X764200Y2071200D01*
G75*
G02*
X789200Y2046200I0J-25000D01*
G01*
X789200Y1916200D01*
G75*
G02*
X764200Y1891200I-25000J0D01*
G01*
X699200Y1891200D01*
G75*
G02*
X674200Y1916200I0J25000D01*
G01*
G37*
G36*
G01*
X379200Y1916200D02*
X379200Y2046200D01*
G75*
G02*
X404200Y2071200I25000J0D01*
G01*
X469200Y2071200D01*
G75*
G02*
X494200Y2046200I0J-25000D01*
G01*
X494200Y1916200D01*
G75*
G02*
X469200Y1891200I-25000J0D01*
G01*
X404200Y1891200D01*
G75*
G02*
X379200Y1916200I0J25000D01*
G01*
G37*
G36*
G01*
X591300Y1753000D02*
X591300Y1803000D01*
G75*
G02*
X613800Y1825500I22500J0D01*
G01*
X658800Y1825500D01*
G75*
G02*
X681300Y1803000I0J-22500D01*
G01*
X681300Y1753000D01*
G75*
G02*
X658800Y1730500I-22500J0D01*
G01*
X613800Y1730500D01*
G75*
G02*
X591300Y1753000I0J22500D01*
G01*
G37*
G36*
G01*
X436300Y1753000D02*
X436300Y1803000D01*
G75*
G02*
X458800Y1825500I22500J0D01*
G01*
X503800Y1825500D01*
G75*
G02*
X526300Y1803000I0J-22500D01*
G01*
X526300Y1753000D01*
G75*
G02*
X503800Y1730500I-22500J0D01*
G01*
X458800Y1730500D01*
G75*
G02*
X436300Y1753000I0J22500D01*
G01*
G37*
M02*
