M48
;DRILL file {KiCad (5.0.0-rc2-198-gb8bbb15aa)} date 01/01/22 22:46:38
;FORMAT={-:-/ absolute / metric / decimal}
FMAT,2
METRIC,TZ
T1C0.400
T2C1.000
%
G90
G05
M71
T1
X0.Y22.987
X0.Y19.304
X0.Y15.367
X0.Y11.43
X0.Y7.747
X0.Y3.81
X0.Y0.
X2.921Y11.43
X5.08Y0.
X6.604Y16.129
X6.604Y15.113
X6.604Y14.097
X7.62Y16.129
X7.62Y15.113
X7.62Y14.097
X10.668Y6.096
X11.049Y14.224
X11.176Y0.
X12.7Y7.239
X14.224Y5.334
X14.478Y7.747
X15.474Y3.669
X15.494Y18.923
X15.494Y5.613
X16.002Y12.192
X16.916Y14.58
X17.145Y0.
X17.983Y19.66
X20.066Y8.001
X22.225Y6.477
X23.063Y14.757
X23.114Y0.
X24.994Y19.27
X25.888Y18.545
X27.559Y20.549
X27.927Y18.783
X28.829Y0.
X30.988Y13.589
X34.798Y22.987
X34.798Y19.304
X34.798Y15.367
X34.798Y11.43
X34.798Y7.747
X34.798Y3.81
X34.798Y0.
T2
X32.131Y10.287
X32.131Y7.747
X32.131Y5.207
X32.131Y2.667
X23.888Y23.295
X26.428Y23.295
X28.968Y23.295
X31.508Y23.295
X32.258Y17.399
X32.258Y14.859
X3.175Y8.128
X3.175Y5.588
X3.175Y3.048
X5.715Y8.128
X5.715Y5.588
X5.715Y3.048
X26.67Y11.049
X26.67Y8.509
X4.138Y23.295
X6.678Y23.295
X9.218Y23.295
X11.758Y23.295
T0
M30
