G04 #@! TF.GenerationSoftware,KiCad,Pcbnew,(5.1.10)-1*
G04 #@! TF.CreationDate,2021-05-22T21:50:54-07:00*
G04 #@! TF.ProjectId,E-Bike,452d4269-6b65-42e6-9b69-6361645f7063,rev?*
G04 #@! TF.SameCoordinates,PX619eb90PY83695b8*
G04 #@! TF.FileFunction,Legend,Top*
G04 #@! TF.FilePolarity,Positive*
%FSLAX45Y45*%
G04 Gerber Fmt 4.5, Leading zero omitted, Abs format (unit mm)*
G04 Created by KiCad (PCBNEW (5.1.10)-1) date 2021-05-22 21:50:54*
%MOMM*%
%LPD*%
G01*
G04 APERTURE LIST*
%ADD10C,0.150000*%
%ADD11C,0.120000*%
%ADD12C,1.000000*%
%ADD13O,1.700000X1.700000*%
%ADD14R,1.700000X1.700000*%
%ADD15R,1.060000X0.650000*%
%ADD16R,0.650000X1.700000*%
%ADD17R,1.400000X0.300000*%
%ADD18R,1.500000X3.600000*%
G04 APERTURE END LIST*
D10*
X2770990Y257962D02*
X2837657Y257962D01*
X2770990Y157962D01*
X2837657Y157962D01*
X2923371Y157962D02*
X2875752Y157962D01*
X2875752Y257962D01*
X2020971Y2139162D02*
X2020971Y2239162D01*
X2054305Y2167733D01*
X2087638Y2239162D01*
X2087638Y2139162D01*
X2135257Y2139162D02*
X2135257Y2205829D01*
X2135257Y2239162D02*
X2130495Y2234400D01*
X2135257Y2229638D01*
X2140019Y2234400D01*
X2135257Y2239162D01*
X2135257Y2229638D01*
X2225733Y2143924D02*
X2216210Y2139162D01*
X2197162Y2139162D01*
X2187638Y2143924D01*
X2182876Y2148686D01*
X2178114Y2158210D01*
X2178114Y2186781D01*
X2182876Y2196305D01*
X2187638Y2201067D01*
X2197162Y2205829D01*
X2216210Y2205829D01*
X2225733Y2201067D01*
X2268590Y2139162D02*
X2268590Y2205829D01*
X2268590Y2186781D02*
X2273352Y2196305D01*
X2278114Y2201067D01*
X2287638Y2205829D01*
X2297162Y2205829D01*
X2344781Y2139162D02*
X2335257Y2143924D01*
X2330495Y2148686D01*
X2325733Y2158210D01*
X2325733Y2186781D01*
X2330495Y2196305D01*
X2335257Y2201067D01*
X2344781Y2205829D01*
X2359067Y2205829D01*
X2368590Y2201067D01*
X2373352Y2196305D01*
X2378114Y2186781D01*
X2378114Y2158210D01*
X2373352Y2148686D01*
X2368590Y2143924D01*
X2359067Y2139162D01*
X2344781Y2139162D01*
X2416210Y2167733D02*
X2463829Y2167733D01*
X2406686Y2139162D02*
X2440019Y2239162D01*
X2473352Y2139162D01*
X2506686Y2205829D02*
X2506686Y2139162D01*
X2506686Y2196305D02*
X2511448Y2201067D01*
X2520971Y2205829D01*
X2535257Y2205829D01*
X2544781Y2201067D01*
X2549543Y2191543D01*
X2549543Y2139162D01*
X2640019Y2139162D02*
X2640019Y2191543D01*
X2635257Y2201067D01*
X2625733Y2205829D01*
X2606686Y2205829D01*
X2597162Y2201067D01*
X2640019Y2143924D02*
X2630495Y2139162D01*
X2606686Y2139162D01*
X2597162Y2143924D01*
X2592400Y2153448D01*
X2592400Y2162972D01*
X2597162Y2172495D01*
X2606686Y2177257D01*
X2630495Y2177257D01*
X2640019Y2182019D01*
X2701924Y2139162D02*
X2692400Y2143924D01*
X2687638Y2153448D01*
X2687638Y2239162D01*
X2730495Y2205829D02*
X2754305Y2139162D01*
X2778114Y2205829D02*
X2754305Y2139162D01*
X2744781Y2115352D01*
X2740019Y2110591D01*
X2730495Y2105829D01*
X2811448Y2143924D02*
X2820971Y2139162D01*
X2840019Y2139162D01*
X2849543Y2143924D01*
X2854305Y2153448D01*
X2854305Y2158210D01*
X2849543Y2167733D01*
X2840019Y2172495D01*
X2825733Y2172495D01*
X2816209Y2177257D01*
X2811448Y2186781D01*
X2811448Y2191543D01*
X2816209Y2201067D01*
X2825733Y2205829D01*
X2840019Y2205829D01*
X2849543Y2201067D01*
X2882876Y2205829D02*
X2920971Y2205829D01*
X2897162Y2239162D02*
X2897162Y2153448D01*
X2901924Y2143924D01*
X2911448Y2139162D01*
X2920971Y2139162D01*
X3025733Y2229638D02*
X3030495Y2234400D01*
X3040019Y2239162D01*
X3063828Y2239162D01*
X3073352Y2234400D01*
X3078114Y2229638D01*
X3082876Y2220114D01*
X3082876Y2210591D01*
X3078114Y2196305D01*
X3020971Y2139162D01*
X3082876Y2139162D01*
X3144781Y2239162D02*
X3154305Y2239162D01*
X3163828Y2234400D01*
X3168590Y2229638D01*
X3173352Y2220114D01*
X3178114Y2201067D01*
X3178114Y2177257D01*
X3173352Y2158210D01*
X3168590Y2148686D01*
X3163828Y2143924D01*
X3154305Y2139162D01*
X3144781Y2139162D01*
X3135257Y2143924D01*
X3130495Y2148686D01*
X3125733Y2158210D01*
X3120971Y2177257D01*
X3120971Y2201067D01*
X3125733Y2220114D01*
X3130495Y2229638D01*
X3135257Y2234400D01*
X3144781Y2239162D01*
X3216209Y2229638D02*
X3220971Y2234400D01*
X3230495Y2239162D01*
X3254305Y2239162D01*
X3263828Y2234400D01*
X3268590Y2229638D01*
X3273352Y2220114D01*
X3273352Y2210591D01*
X3268590Y2196305D01*
X3211448Y2139162D01*
X3273352Y2139162D01*
X3368590Y2139162D02*
X3311448Y2139162D01*
X3340019Y2139162D02*
X3340019Y2239162D01*
X3330495Y2224876D01*
X3320971Y2215352D01*
X3311448Y2210591D01*
D11*
X2534000Y717900D02*
X2800000Y717900D01*
X2534000Y977900D02*
X2534000Y717900D01*
X2800000Y977900D02*
X2800000Y717900D01*
X2534000Y977900D02*
X2800000Y977900D01*
X2534000Y1104900D02*
X2534000Y1237900D01*
X2534000Y1237900D02*
X2667000Y1237900D01*
X184500Y171800D02*
X704500Y171800D01*
X184500Y685800D02*
X184500Y171800D01*
X704500Y945800D02*
X704500Y171800D01*
X184500Y685800D02*
X444500Y685800D01*
X444500Y685800D02*
X444500Y945800D01*
X444500Y945800D02*
X704500Y945800D01*
X184500Y812800D02*
X184500Y945800D01*
X184500Y945800D02*
X317500Y945800D01*
X1916600Y1655100D02*
X2096600Y1655100D01*
X2096600Y1977100D02*
X1851600Y1977100D01*
D10*
X969100Y296500D02*
X989600Y296500D01*
X969100Y846500D02*
X999100Y846500D01*
X1520100Y846500D02*
X1490100Y846500D01*
X1520100Y296500D02*
X1490100Y296500D01*
X969100Y296500D02*
X969100Y846500D01*
X1520100Y296500D02*
X1520100Y846500D01*
X989600Y296500D02*
X989600Y121500D01*
X543700Y1666100D02*
X543700Y1643600D01*
X878700Y1666100D02*
X878700Y1636100D01*
X878700Y1331100D02*
X878700Y1361100D01*
X543700Y1331100D02*
X543700Y1361100D01*
X543700Y1666100D02*
X878700Y1666100D01*
X543700Y1331100D02*
X878700Y1331100D01*
X543700Y1643600D02*
X421200Y1643600D01*
D11*
X2146372Y900250D02*
X2095428Y900250D01*
X2146372Y1004750D02*
X2095428Y1004750D01*
X2057328Y306250D02*
X2108272Y306250D01*
X2057328Y201750D02*
X2108272Y201750D01*
X2057328Y560250D02*
X2108272Y560250D01*
X2057328Y455750D02*
X2108272Y455750D01*
X1752528Y1004750D02*
X1803472Y1004750D01*
X1752528Y900250D02*
X1803472Y900250D01*
X2844728Y1627050D02*
X2895672Y1627050D01*
X2844728Y1522550D02*
X2895672Y1522550D01*
X2844728Y1461950D02*
X2895672Y1461950D01*
X2844728Y1357450D02*
X2895672Y1357450D01*
X1041472Y1166950D02*
X990528Y1166950D01*
X1041472Y1271450D02*
X990528Y1271450D01*
X1371672Y1166950D02*
X1320728Y1166950D01*
X1371672Y1271450D02*
X1320728Y1271450D01*
X344350Y1397072D02*
X344350Y1346128D01*
X239850Y1397072D02*
X239850Y1346128D01*
X853700Y2128700D02*
X853700Y2026200D01*
X853700Y2128700D02*
X956200Y2128700D01*
X1330700Y2128700D02*
X1228200Y2128700D01*
X1330700Y2128700D02*
X1330700Y2026200D01*
X1330700Y1706700D02*
X1330700Y1809200D01*
X853700Y1706700D02*
X853700Y1809200D01*
X1330700Y1706700D02*
X1228200Y1706700D01*
X853700Y1706700D02*
X956200Y1706700D01*
X3092800Y1340200D02*
X3358800Y1340200D01*
X3092800Y1854200D02*
X3092800Y1340200D01*
X3358800Y1854200D02*
X3358800Y1340200D01*
X3092800Y1854200D02*
X3358800Y1854200D01*
X3092800Y1981200D02*
X3092800Y2114200D01*
X3092800Y2114200D02*
X3225800Y2114200D01*
X3080100Y133700D02*
X3346100Y133700D01*
X3080100Y901700D02*
X3080100Y133700D01*
X3346100Y901700D02*
X3346100Y133700D01*
X3080100Y901700D02*
X3346100Y901700D01*
X3080100Y1028700D02*
X3080100Y1161700D01*
X3080100Y1161700D02*
X3213100Y1161700D01*
X2427058Y203000D02*
X2398942Y203000D01*
X2427058Y305000D02*
X2398942Y305000D01*
X2427058Y457000D02*
X2398942Y457000D01*
X2427058Y559000D02*
X2398942Y559000D01*
X2438600Y928458D02*
X2438600Y900342D01*
X2336600Y928458D02*
X2336600Y900342D01*
X2997400Y953858D02*
X2997400Y925742D01*
X2895400Y953858D02*
X2895400Y925742D01*
X2884258Y1688900D02*
X2856142Y1688900D01*
X2884258Y1790900D02*
X2856142Y1790900D01*
X1766658Y203000D02*
X1738542Y203000D01*
X1766658Y305000D02*
X1738542Y305000D01*
X1766658Y457000D02*
X1738542Y457000D01*
X1766658Y559000D02*
X1738542Y559000D01*
X1763942Y851100D02*
X1792058Y851100D01*
X1763942Y749100D02*
X1792058Y749100D01*
X2362400Y1830158D02*
X2362400Y1802042D01*
X2260400Y1830158D02*
X2260400Y1802042D01*
X1780600Y1610300D02*
X1780600Y1490300D01*
X1780600Y1158300D02*
X1780600Y1278300D01*
X2126156Y1158300D02*
X1780600Y1158300D01*
X2126156Y1610300D02*
X1780600Y1610300D01*
X2232600Y1503856D02*
X2232600Y1490300D01*
X2232600Y1264744D02*
X2232600Y1278300D01*
X2232600Y1264744D02*
X2126156Y1158300D01*
X2232600Y1503856D02*
X2126156Y1610300D01*
X2306600Y1228300D02*
X2256600Y1228300D01*
X2281600Y1203300D02*
X2281600Y1253300D01*
X1778200Y1855558D02*
X1778200Y1827442D01*
X1676200Y1855558D02*
X1676200Y1827442D01*
X1321000Y1538058D02*
X1321000Y1509942D01*
X1219000Y1538058D02*
X1219000Y1509942D01*
X1564200Y1671325D02*
X1564200Y1529075D01*
X1382200Y1671325D02*
X1382200Y1529075D01*
X914600Y750658D02*
X914600Y722542D01*
X812600Y750658D02*
X812600Y722542D01*
X513075Y2072200D02*
X655325Y2072200D01*
X513075Y1890200D02*
X655325Y1890200D01*
X544742Y1829000D02*
X572858Y1829000D01*
X544742Y1727000D02*
X572858Y1727000D01*
D10*
X2633667Y1392662D02*
X2633667Y1321233D01*
X2628905Y1306948D01*
X2619381Y1297424D01*
X2605095Y1292662D01*
X2595571Y1292662D01*
X2724143Y1359329D02*
X2724143Y1292662D01*
X2700333Y1397424D02*
X2676524Y1325995D01*
X2738429Y1325995D01*
X411167Y1100562D02*
X411167Y1029133D01*
X406405Y1014848D01*
X396881Y1005324D01*
X382595Y1000562D01*
X373071Y1000562D01*
X511167Y1000562D02*
X454024Y1000562D01*
X482595Y1000562D02*
X482595Y1100562D01*
X473071Y1086276D01*
X463548Y1076752D01*
X454024Y1071991D01*
X1841509Y2112162D02*
X1841509Y2031210D01*
X1846271Y2021686D01*
X1851033Y2016924D01*
X1860557Y2012162D01*
X1879605Y2012162D01*
X1889128Y2016924D01*
X1893890Y2021686D01*
X1898652Y2031210D01*
X1898652Y2112162D01*
X1936748Y2112162D02*
X1998652Y2112162D01*
X1965319Y2074067D01*
X1979605Y2074067D01*
X1989128Y2069305D01*
X1993890Y2064543D01*
X1998652Y2055019D01*
X1998652Y2031210D01*
X1993890Y2021686D01*
X1989128Y2016924D01*
X1979605Y2012162D01*
X1951033Y2012162D01*
X1941509Y2016924D01*
X1936748Y2021686D01*
X821838Y127010D02*
X902790Y127010D01*
X912314Y131772D01*
X917076Y136533D01*
X921838Y146057D01*
X921838Y165105D01*
X917076Y174629D01*
X912314Y179390D01*
X902790Y184152D01*
X821838Y184152D01*
X831362Y227010D02*
X826600Y231771D01*
X821838Y241295D01*
X821838Y265105D01*
X826600Y274629D01*
X831362Y279391D01*
X840886Y284152D01*
X850409Y284152D01*
X864695Y279391D01*
X921838Y222248D01*
X921838Y284152D01*
X228609Y1680362D02*
X228609Y1599410D01*
X233371Y1589886D01*
X238133Y1585124D01*
X247657Y1580362D01*
X266705Y1580362D01*
X276229Y1585124D01*
X280990Y1589886D01*
X285752Y1599410D01*
X285752Y1680362D01*
X385752Y1580362D02*
X328610Y1580362D01*
X357181Y1580362D02*
X357181Y1680362D01*
X347657Y1666076D01*
X338133Y1656552D01*
X328610Y1651790D01*
X2043914Y1034262D02*
X2010581Y1081881D01*
X1986771Y1034262D02*
X1986771Y1134262D01*
X2024867Y1134262D01*
X2034390Y1129500D01*
X2039152Y1124738D01*
X2043914Y1115214D01*
X2043914Y1100929D01*
X2039152Y1091405D01*
X2034390Y1086643D01*
X2024867Y1081881D01*
X1986771Y1081881D01*
X2139152Y1034262D02*
X2082009Y1034262D01*
X2110581Y1034262D02*
X2110581Y1134262D01*
X2101057Y1119976D01*
X2091533Y1110452D01*
X2082009Y1105691D01*
X2201057Y1134262D02*
X2210581Y1134262D01*
X2220105Y1129500D01*
X2224867Y1124738D01*
X2229629Y1115214D01*
X2234390Y1096167D01*
X2234390Y1072357D01*
X2229629Y1053310D01*
X2224867Y1043786D01*
X2220105Y1039024D01*
X2210581Y1034262D01*
X2201057Y1034262D01*
X2191533Y1039024D01*
X2186771Y1043786D01*
X2182010Y1053310D01*
X2177248Y1072357D01*
X2177248Y1096167D01*
X2182010Y1115214D01*
X2186771Y1124738D01*
X2191533Y1129500D01*
X2201057Y1134262D01*
X2066133Y56362D02*
X2032800Y103981D01*
X2008990Y56362D02*
X2008990Y156362D01*
X2047086Y156362D01*
X2056609Y151600D01*
X2061371Y146838D01*
X2066133Y137314D01*
X2066133Y123029D01*
X2061371Y113505D01*
X2056609Y108743D01*
X2047086Y103981D01*
X2008990Y103981D01*
X2113752Y56362D02*
X2132800Y56362D01*
X2142324Y61124D01*
X2147086Y65886D01*
X2156610Y80172D01*
X2161371Y99219D01*
X2161371Y137314D01*
X2156610Y146838D01*
X2151848Y151600D01*
X2142324Y156362D01*
X2123276Y156362D01*
X2113752Y151600D01*
X2108990Y146838D01*
X2104229Y137314D01*
X2104229Y113505D01*
X2108990Y103981D01*
X2113752Y99219D01*
X2123276Y94457D01*
X2142324Y94457D01*
X2151848Y99219D01*
X2156610Y103981D01*
X2161371Y113505D01*
X2066133Y605762D02*
X2032800Y653381D01*
X2008990Y605762D02*
X2008990Y705762D01*
X2047086Y705762D01*
X2056609Y701000D01*
X2061371Y696238D01*
X2066133Y686714D01*
X2066133Y672429D01*
X2061371Y662905D01*
X2056609Y658143D01*
X2047086Y653381D01*
X2008990Y653381D01*
X2123276Y662905D02*
X2113752Y667667D01*
X2108990Y672429D01*
X2104229Y681952D01*
X2104229Y686714D01*
X2108990Y696238D01*
X2113752Y701000D01*
X2123276Y705762D01*
X2142324Y705762D01*
X2151848Y701000D01*
X2156610Y696238D01*
X2161371Y686714D01*
X2161371Y681952D01*
X2156610Y672429D01*
X2151848Y667667D01*
X2142324Y662905D01*
X2123276Y662905D01*
X2113752Y658143D01*
X2108990Y653381D01*
X2104229Y643857D01*
X2104229Y624810D01*
X2108990Y615286D01*
X2113752Y610524D01*
X2123276Y605762D01*
X2142324Y605762D01*
X2151848Y610524D01*
X2156610Y615286D01*
X2161371Y624810D01*
X2161371Y643857D01*
X2156610Y653381D01*
X2151848Y658143D01*
X2142324Y662905D01*
X1761333Y1050262D02*
X1728000Y1097881D01*
X1704190Y1050262D02*
X1704190Y1150262D01*
X1742286Y1150262D01*
X1751809Y1145500D01*
X1756571Y1140738D01*
X1761333Y1131214D01*
X1761333Y1116929D01*
X1756571Y1107405D01*
X1751809Y1102643D01*
X1742286Y1097881D01*
X1704190Y1097881D01*
X1794667Y1150262D02*
X1861333Y1150262D01*
X1818476Y1050262D01*
X2586833Y1516862D02*
X2553500Y1564481D01*
X2529690Y1516862D02*
X2529690Y1616862D01*
X2567786Y1616862D01*
X2577310Y1612100D01*
X2582071Y1607338D01*
X2586833Y1597814D01*
X2586833Y1583529D01*
X2582071Y1574005D01*
X2577310Y1569243D01*
X2567786Y1564481D01*
X2529690Y1564481D01*
X2672548Y1616862D02*
X2653500Y1616862D01*
X2643976Y1612100D01*
X2639214Y1607338D01*
X2629690Y1593052D01*
X2624929Y1574005D01*
X2624929Y1535910D01*
X2629690Y1526386D01*
X2634452Y1521624D01*
X2643976Y1516862D01*
X2663024Y1516862D01*
X2672548Y1521624D01*
X2677310Y1526386D01*
X2682071Y1535910D01*
X2682071Y1559719D01*
X2677310Y1569243D01*
X2672548Y1574005D01*
X2663024Y1578767D01*
X2643976Y1578767D01*
X2634452Y1574005D01*
X2629690Y1569243D01*
X2624929Y1559719D01*
X2586833Y1364462D02*
X2553500Y1412081D01*
X2529690Y1364462D02*
X2529690Y1464462D01*
X2567786Y1464462D01*
X2577310Y1459700D01*
X2582071Y1454938D01*
X2586833Y1445414D01*
X2586833Y1431129D01*
X2582071Y1421605D01*
X2577310Y1416843D01*
X2567786Y1412081D01*
X2529690Y1412081D01*
X2677310Y1464462D02*
X2629690Y1464462D01*
X2624929Y1416843D01*
X2629690Y1421605D01*
X2639214Y1426367D01*
X2663024Y1426367D01*
X2672548Y1421605D01*
X2677310Y1416843D01*
X2682071Y1407319D01*
X2682071Y1383510D01*
X2677310Y1373986D01*
X2672548Y1369224D01*
X2663024Y1364462D01*
X2639214Y1364462D01*
X2629690Y1369224D01*
X2624929Y1373986D01*
X707233Y1173962D02*
X673900Y1221581D01*
X650090Y1173962D02*
X650090Y1273962D01*
X688186Y1273962D01*
X697710Y1269200D01*
X702471Y1264438D01*
X707233Y1254914D01*
X707233Y1240629D01*
X702471Y1231105D01*
X697710Y1226343D01*
X688186Y1221581D01*
X650090Y1221581D01*
X792948Y1240629D02*
X792948Y1173962D01*
X769138Y1278724D02*
X745328Y1207295D01*
X807233Y1207295D01*
X1570833Y1072362D02*
X1537500Y1119981D01*
X1513690Y1072362D02*
X1513690Y1172362D01*
X1551786Y1172362D01*
X1561309Y1167600D01*
X1566071Y1162838D01*
X1570833Y1153314D01*
X1570833Y1139029D01*
X1566071Y1129505D01*
X1561309Y1124743D01*
X1551786Y1119981D01*
X1513690Y1119981D01*
X1604167Y1172362D02*
X1666071Y1172362D01*
X1632738Y1134267D01*
X1647024Y1134267D01*
X1656548Y1129505D01*
X1661309Y1124743D01*
X1666071Y1115219D01*
X1666071Y1091410D01*
X1661309Y1081886D01*
X1656548Y1077124D01*
X1647024Y1072362D01*
X1618452Y1072362D01*
X1608928Y1077124D01*
X1604167Y1081886D01*
X184938Y1291433D02*
X137319Y1258100D01*
X184938Y1234291D02*
X84938Y1234291D01*
X84938Y1272386D01*
X89700Y1281910D01*
X94462Y1286672D01*
X103986Y1291433D01*
X118271Y1291433D01*
X127795Y1286672D01*
X132557Y1281910D01*
X137319Y1272386D01*
X137319Y1234291D01*
X184938Y1386672D02*
X184938Y1329529D01*
X184938Y1358100D02*
X84938Y1358100D01*
X99224Y1348576D01*
X108748Y1339052D01*
X113509Y1329529D01*
X1431133Y2050262D02*
X1383514Y2050262D01*
X1383514Y2150262D01*
X1516848Y2050262D02*
X1459705Y2050262D01*
X1488276Y2050262D02*
X1488276Y2150262D01*
X1478752Y2135976D01*
X1469228Y2126452D01*
X1459705Y2121691D01*
X2887667Y2035962D02*
X2887667Y1964533D01*
X2882905Y1950248D01*
X2873381Y1940724D01*
X2859095Y1935962D01*
X2849571Y1935962D01*
X2925762Y2035962D02*
X2987667Y2035962D01*
X2954333Y1997867D01*
X2968619Y1997867D01*
X2978143Y1993105D01*
X2982905Y1988343D01*
X2987667Y1978819D01*
X2987667Y1955010D01*
X2982905Y1945486D01*
X2978143Y1940724D01*
X2968619Y1935962D01*
X2940048Y1935962D01*
X2930524Y1940724D01*
X2925762Y1945486D01*
X3179767Y1316462D02*
X3179767Y1245033D01*
X3175005Y1230748D01*
X3165481Y1221224D01*
X3151195Y1216462D01*
X3141671Y1216462D01*
X3222624Y1306938D02*
X3227386Y1311700D01*
X3236909Y1316462D01*
X3260719Y1316462D01*
X3270243Y1311700D01*
X3275005Y1306938D01*
X3279767Y1297414D01*
X3279767Y1287891D01*
X3275005Y1273605D01*
X3217862Y1216462D01*
X3279767Y1216462D01*
X2348714Y75286D02*
X2343952Y70524D01*
X2329667Y65762D01*
X2320143Y65762D01*
X2305857Y70524D01*
X2296333Y80048D01*
X2291571Y89571D01*
X2286810Y108619D01*
X2286810Y122905D01*
X2291571Y141952D01*
X2296333Y151476D01*
X2305857Y161000D01*
X2320143Y165762D01*
X2329667Y165762D01*
X2343952Y161000D01*
X2348714Y156238D01*
X2443952Y65762D02*
X2386810Y65762D01*
X2415381Y65762D02*
X2415381Y165762D01*
X2405857Y151476D01*
X2396333Y141952D01*
X2386810Y137191D01*
X2477286Y165762D02*
X2543952Y165762D01*
X2501095Y65762D01*
X2348714Y624686D02*
X2343952Y619924D01*
X2329667Y615162D01*
X2320143Y615162D01*
X2305857Y619924D01*
X2296333Y629448D01*
X2291571Y638972D01*
X2286810Y658019D01*
X2286810Y672305D01*
X2291571Y691352D01*
X2296333Y700876D01*
X2305857Y710400D01*
X2320143Y715162D01*
X2329667Y715162D01*
X2343952Y710400D01*
X2348714Y705638D01*
X2443952Y615162D02*
X2386810Y615162D01*
X2415381Y615162D02*
X2415381Y715162D01*
X2405857Y700876D01*
X2396333Y691352D01*
X2386810Y686591D01*
X2529667Y715162D02*
X2510619Y715162D01*
X2501095Y710400D01*
X2496333Y705638D01*
X2486810Y691352D01*
X2482048Y672305D01*
X2482048Y634210D01*
X2486810Y624686D01*
X2491571Y619924D01*
X2501095Y615162D01*
X2520143Y615162D01*
X2529667Y619924D01*
X2534429Y624686D01*
X2539190Y634210D01*
X2539190Y658019D01*
X2534429Y667543D01*
X2529667Y672305D01*
X2520143Y677067D01*
X2501095Y677067D01*
X2491571Y672305D01*
X2486810Y667543D01*
X2482048Y658019D01*
X2310614Y1094586D02*
X2305852Y1089824D01*
X2291567Y1085062D01*
X2282043Y1085062D01*
X2267757Y1089824D01*
X2258233Y1099348D01*
X2253471Y1108872D01*
X2248710Y1127919D01*
X2248710Y1142205D01*
X2253471Y1161252D01*
X2258233Y1170776D01*
X2267757Y1180300D01*
X2282043Y1185062D01*
X2291567Y1185062D01*
X2305852Y1180300D01*
X2310614Y1175538D01*
X2405852Y1085062D02*
X2348710Y1085062D01*
X2377281Y1085062D02*
X2377281Y1185062D01*
X2367757Y1170776D01*
X2358233Y1161252D01*
X2348710Y1156491D01*
X2496329Y1185062D02*
X2448710Y1185062D01*
X2443948Y1137443D01*
X2448710Y1142205D01*
X2458233Y1146967D01*
X2482043Y1146967D01*
X2491567Y1142205D01*
X2496329Y1137443D01*
X2501090Y1127919D01*
X2501090Y1104110D01*
X2496329Y1094586D01*
X2491567Y1089824D01*
X2482043Y1085062D01*
X2458233Y1085062D01*
X2448710Y1089824D01*
X2443948Y1094586D01*
X2856714Y1119986D02*
X2851952Y1115224D01*
X2837667Y1110462D01*
X2828143Y1110462D01*
X2813857Y1115224D01*
X2804333Y1124748D01*
X2799571Y1134272D01*
X2794810Y1153319D01*
X2794810Y1167605D01*
X2799571Y1186652D01*
X2804333Y1196176D01*
X2813857Y1205700D01*
X2828143Y1210462D01*
X2837667Y1210462D01*
X2851952Y1205700D01*
X2856714Y1200938D01*
X2951952Y1110462D02*
X2894809Y1110462D01*
X2923381Y1110462D02*
X2923381Y1210462D01*
X2913857Y1196176D01*
X2904333Y1186652D01*
X2894809Y1181891D01*
X3037667Y1177129D02*
X3037667Y1110462D01*
X3013857Y1215224D02*
X2990048Y1143795D01*
X3051952Y1143795D01*
X2488414Y1691486D02*
X2483652Y1686724D01*
X2469367Y1681962D01*
X2459843Y1681962D01*
X2445557Y1686724D01*
X2436033Y1696248D01*
X2431271Y1705771D01*
X2426510Y1724819D01*
X2426510Y1739105D01*
X2431271Y1758152D01*
X2436033Y1767676D01*
X2445557Y1777200D01*
X2459843Y1781962D01*
X2469367Y1781962D01*
X2483652Y1777200D01*
X2488414Y1772438D01*
X2583652Y1681962D02*
X2526510Y1681962D01*
X2555081Y1681962D02*
X2555081Y1781962D01*
X2545557Y1767676D01*
X2536033Y1758152D01*
X2526510Y1753390D01*
X2616986Y1781962D02*
X2678890Y1781962D01*
X2645557Y1743867D01*
X2659843Y1743867D01*
X2669367Y1739105D01*
X2674129Y1734343D01*
X2678890Y1724819D01*
X2678890Y1701010D01*
X2674129Y1691486D01*
X2669367Y1686724D01*
X2659843Y1681962D01*
X2631271Y1681962D01*
X2621748Y1686724D01*
X2616986Y1691486D01*
X1688314Y75286D02*
X1683552Y70524D01*
X1669267Y65762D01*
X1659743Y65762D01*
X1645457Y70524D01*
X1635933Y80048D01*
X1631171Y89571D01*
X1626409Y108619D01*
X1626409Y122905D01*
X1631171Y141952D01*
X1635933Y151476D01*
X1645457Y161000D01*
X1659743Y165762D01*
X1669267Y165762D01*
X1683552Y161000D01*
X1688314Y156238D01*
X1783552Y65762D02*
X1726409Y65762D01*
X1754981Y65762D02*
X1754981Y165762D01*
X1745457Y151476D01*
X1735933Y141952D01*
X1726409Y137191D01*
X1821648Y156238D02*
X1826409Y161000D01*
X1835933Y165762D01*
X1859743Y165762D01*
X1869267Y161000D01*
X1874028Y156238D01*
X1878790Y146714D01*
X1878790Y137191D01*
X1874028Y122905D01*
X1816886Y65762D01*
X1878790Y65762D01*
X1688314Y611986D02*
X1683552Y607224D01*
X1669267Y602462D01*
X1659743Y602462D01*
X1645457Y607224D01*
X1635933Y616748D01*
X1631171Y626272D01*
X1626409Y645319D01*
X1626409Y659605D01*
X1631171Y678652D01*
X1635933Y688176D01*
X1645457Y697700D01*
X1659743Y702462D01*
X1669267Y702462D01*
X1683552Y697700D01*
X1688314Y692938D01*
X1783552Y602462D02*
X1726409Y602462D01*
X1754981Y602462D02*
X1754981Y702462D01*
X1745457Y688176D01*
X1735933Y678652D01*
X1726409Y673891D01*
X1878790Y602462D02*
X1821648Y602462D01*
X1850219Y602462D02*
X1850219Y702462D01*
X1840695Y688176D01*
X1831171Y678652D01*
X1821648Y673891D01*
X2018514Y764386D02*
X2013752Y759624D01*
X1999467Y754862D01*
X1989943Y754862D01*
X1975657Y759624D01*
X1966133Y769148D01*
X1961371Y778671D01*
X1956609Y797719D01*
X1956609Y812005D01*
X1961371Y831052D01*
X1966133Y840576D01*
X1975657Y850100D01*
X1989943Y854862D01*
X1999467Y854862D01*
X2013752Y850100D01*
X2018514Y845338D01*
X2113752Y754862D02*
X2056609Y754862D01*
X2085181Y754862D02*
X2085181Y854862D01*
X2075657Y840576D01*
X2066133Y831052D01*
X2056609Y826290D01*
X2175657Y854862D02*
X2185181Y854862D01*
X2194705Y850100D01*
X2199467Y845338D01*
X2204229Y835814D01*
X2208990Y816767D01*
X2208990Y792957D01*
X2204229Y773910D01*
X2199467Y764386D01*
X2194705Y759624D01*
X2185181Y754862D01*
X2175657Y754862D01*
X2166133Y759624D01*
X2161371Y764386D01*
X2156610Y773910D01*
X2151848Y792957D01*
X2151848Y816767D01*
X2156610Y835814D01*
X2161371Y845338D01*
X2166133Y850100D01*
X2175657Y854862D01*
X2220114Y1723233D02*
X2224876Y1718471D01*
X2229638Y1704186D01*
X2229638Y1694662D01*
X2224876Y1680376D01*
X2215352Y1670852D01*
X2205829Y1666090D01*
X2186781Y1661329D01*
X2172495Y1661329D01*
X2153448Y1666090D01*
X2143924Y1670852D01*
X2134400Y1680376D01*
X2129638Y1694662D01*
X2129638Y1704186D01*
X2134400Y1718471D01*
X2139162Y1723233D01*
X2229638Y1770852D02*
X2229638Y1789900D01*
X2224876Y1799424D01*
X2220114Y1804186D01*
X2205829Y1813710D01*
X2186781Y1818471D01*
X2148686Y1818471D01*
X2139162Y1813710D01*
X2134400Y1808948D01*
X2129638Y1799424D01*
X2129638Y1780376D01*
X2134400Y1770852D01*
X2139162Y1766090D01*
X2148686Y1761329D01*
X2172495Y1761329D01*
X2182019Y1766090D01*
X2186781Y1770852D01*
X2191543Y1780376D01*
X2191543Y1799424D01*
X2186781Y1808948D01*
X2182019Y1813710D01*
X2172495Y1818471D01*
X2358233Y1285086D02*
X2353471Y1280324D01*
X2339186Y1275562D01*
X2329662Y1275562D01*
X2315376Y1280324D01*
X2305852Y1289848D01*
X2301090Y1299372D01*
X2296329Y1318419D01*
X2296329Y1332705D01*
X2301090Y1351752D01*
X2305852Y1361276D01*
X2315376Y1370800D01*
X2329662Y1375562D01*
X2339186Y1375562D01*
X2353471Y1370800D01*
X2358233Y1366038D01*
X2415376Y1332705D02*
X2405852Y1337467D01*
X2401090Y1342229D01*
X2396329Y1351752D01*
X2396329Y1356514D01*
X2401090Y1366038D01*
X2405852Y1370800D01*
X2415376Y1375562D01*
X2434424Y1375562D01*
X2443948Y1370800D01*
X2448710Y1366038D01*
X2453471Y1356514D01*
X2453471Y1351752D01*
X2448710Y1342229D01*
X2443948Y1337467D01*
X2434424Y1332705D01*
X2415376Y1332705D01*
X2405852Y1327943D01*
X2401090Y1323181D01*
X2396329Y1313657D01*
X2396329Y1294610D01*
X2401090Y1285086D01*
X2405852Y1280324D01*
X2415376Y1275562D01*
X2434424Y1275562D01*
X2443948Y1280324D01*
X2448710Y1285086D01*
X2453471Y1294610D01*
X2453471Y1313657D01*
X2448710Y1323181D01*
X2443948Y1327943D01*
X2434424Y1332705D01*
X1710533Y2034386D02*
X1705771Y2029624D01*
X1691486Y2024862D01*
X1681962Y2024862D01*
X1667676Y2029624D01*
X1658152Y2039148D01*
X1653390Y2048671D01*
X1648628Y2067719D01*
X1648628Y2082005D01*
X1653390Y2101052D01*
X1658152Y2110576D01*
X1667676Y2120100D01*
X1681962Y2124862D01*
X1691486Y2124862D01*
X1705771Y2120100D01*
X1710533Y2115338D01*
X1743867Y2124862D02*
X1810533Y2124862D01*
X1767676Y2024862D01*
X1178714Y1558133D02*
X1183476Y1553371D01*
X1188238Y1539086D01*
X1188238Y1529562D01*
X1183476Y1515276D01*
X1173952Y1505752D01*
X1164429Y1500990D01*
X1145381Y1496229D01*
X1131095Y1496229D01*
X1112048Y1500990D01*
X1102524Y1505752D01*
X1093000Y1515276D01*
X1088238Y1529562D01*
X1088238Y1539086D01*
X1093000Y1553371D01*
X1097762Y1558133D01*
X1088238Y1643848D02*
X1088238Y1624800D01*
X1093000Y1615276D01*
X1097762Y1610514D01*
X1112048Y1600990D01*
X1131095Y1596229D01*
X1169190Y1596229D01*
X1178714Y1600990D01*
X1183476Y1605752D01*
X1188238Y1615276D01*
X1188238Y1634324D01*
X1183476Y1643848D01*
X1178714Y1648610D01*
X1169190Y1653371D01*
X1145381Y1653371D01*
X1135857Y1648610D01*
X1131095Y1643848D01*
X1126333Y1634324D01*
X1126333Y1615276D01*
X1131095Y1605752D01*
X1135857Y1600990D01*
X1145381Y1596229D01*
X1405733Y1843886D02*
X1400971Y1839124D01*
X1386686Y1834362D01*
X1377162Y1834362D01*
X1362876Y1839124D01*
X1353352Y1848648D01*
X1348590Y1858171D01*
X1343829Y1877219D01*
X1343829Y1891505D01*
X1348590Y1910552D01*
X1353352Y1920076D01*
X1362876Y1929600D01*
X1377162Y1934362D01*
X1386686Y1934362D01*
X1400971Y1929600D01*
X1405733Y1924838D01*
X1496209Y1934362D02*
X1448590Y1934362D01*
X1443828Y1886743D01*
X1448590Y1891505D01*
X1458114Y1896267D01*
X1481924Y1896267D01*
X1491448Y1891505D01*
X1496209Y1886743D01*
X1500971Y1877219D01*
X1500971Y1853410D01*
X1496209Y1843886D01*
X1491448Y1839124D01*
X1481924Y1834362D01*
X1458114Y1834362D01*
X1448590Y1839124D01*
X1443828Y1843886D01*
X846933Y954886D02*
X842171Y950124D01*
X827886Y945362D01*
X818362Y945362D01*
X804076Y950124D01*
X794552Y959648D01*
X789790Y969171D01*
X785028Y988219D01*
X785028Y1002505D01*
X789790Y1021552D01*
X794552Y1031076D01*
X804076Y1040600D01*
X818362Y1045362D01*
X827886Y1045362D01*
X842171Y1040600D01*
X846933Y1035838D01*
X932648Y1012029D02*
X932648Y945362D01*
X908838Y1050124D02*
X885028Y978695D01*
X946933Y978695D01*
X242233Y1945486D02*
X237471Y1940724D01*
X223186Y1935962D01*
X213662Y1935962D01*
X199376Y1940724D01*
X189852Y1950248D01*
X185090Y1959771D01*
X180328Y1978819D01*
X180328Y1993105D01*
X185090Y2012152D01*
X189852Y2021676D01*
X199376Y2031200D01*
X213662Y2035962D01*
X223186Y2035962D01*
X237471Y2031200D01*
X242233Y2026438D01*
X280329Y2026438D02*
X285090Y2031200D01*
X294614Y2035962D01*
X318424Y2035962D01*
X327948Y2031200D01*
X332710Y2026438D01*
X337471Y2016914D01*
X337471Y2007390D01*
X332710Y1993105D01*
X275567Y1935962D01*
X337471Y1935962D01*
X288133Y1742286D02*
X283371Y1737524D01*
X269086Y1732762D01*
X259562Y1732762D01*
X245276Y1737524D01*
X235752Y1747048D01*
X230990Y1756571D01*
X226228Y1775619D01*
X226228Y1789905D01*
X230990Y1808952D01*
X235752Y1818476D01*
X245276Y1828000D01*
X259562Y1832762D01*
X269086Y1832762D01*
X283371Y1828000D01*
X288133Y1823238D01*
X383371Y1732762D02*
X326229Y1732762D01*
X354800Y1732762D02*
X354800Y1832762D01*
X345276Y1818476D01*
X335752Y1808952D01*
X326229Y1804190D01*
%LPC*%
D12*
X3479800Y0D02*
X0Y0D01*
X3479800Y2298700D02*
X3479800Y0D01*
X0Y2298700D02*
X3479800Y2298700D01*
X0Y0D02*
X0Y2298700D01*
D13*
X2667000Y850900D03*
D14*
X2667000Y1104900D03*
D13*
X571500Y304800D03*
X317500Y304800D03*
X571500Y558800D03*
X317500Y558800D03*
X571500Y812800D03*
D14*
X317500Y812800D03*
D15*
X2116600Y1911100D03*
X2116600Y1721100D03*
X1896600Y1721100D03*
X1896600Y1816100D03*
X1896600Y1911100D03*
D16*
X1054100Y936500D03*
X1181100Y936500D03*
X1308100Y936500D03*
X1435100Y936500D03*
X1435100Y206500D03*
X1308100Y206500D03*
X1181100Y206500D03*
X1054100Y206500D03*
D17*
X931200Y1598600D03*
X931200Y1548600D03*
X931200Y1498600D03*
X931200Y1448600D03*
X931200Y1398600D03*
X491200Y1398600D03*
X491200Y1448600D03*
X491200Y1498600D03*
X491200Y1548600D03*
X491200Y1598600D03*
G36*
G01*
X2078400Y976250D02*
X2078400Y928750D01*
G75*
G02*
X2054650Y905000I-23750J0D01*
G01*
X2004650Y905000D01*
G75*
G02*
X1980900Y928750I0J23750D01*
G01*
X1980900Y976250D01*
G75*
G02*
X2004650Y1000000I23750J0D01*
G01*
X2054650Y1000000D01*
G75*
G02*
X2078400Y976250I0J-23750D01*
G01*
G37*
G36*
G01*
X2260900Y976250D02*
X2260900Y928750D01*
G75*
G02*
X2237150Y905000I-23750J0D01*
G01*
X2187150Y905000D01*
G75*
G02*
X2163400Y928750I0J23750D01*
G01*
X2163400Y976250D01*
G75*
G02*
X2187150Y1000000I23750J0D01*
G01*
X2237150Y1000000D01*
G75*
G02*
X2260900Y976250I0J-23750D01*
G01*
G37*
G36*
G01*
X2125300Y230250D02*
X2125300Y277750D01*
G75*
G02*
X2149050Y301500I23750J0D01*
G01*
X2199050Y301500D01*
G75*
G02*
X2222800Y277750I0J-23750D01*
G01*
X2222800Y230250D01*
G75*
G02*
X2199050Y206500I-23750J0D01*
G01*
X2149050Y206500D01*
G75*
G02*
X2125300Y230250I0J23750D01*
G01*
G37*
G36*
G01*
X1942800Y230250D02*
X1942800Y277750D01*
G75*
G02*
X1966550Y301500I23750J0D01*
G01*
X2016550Y301500D01*
G75*
G02*
X2040300Y277750I0J-23750D01*
G01*
X2040300Y230250D01*
G75*
G02*
X2016550Y206500I-23750J0D01*
G01*
X1966550Y206500D01*
G75*
G02*
X1942800Y230250I0J23750D01*
G01*
G37*
G36*
G01*
X2125300Y484250D02*
X2125300Y531750D01*
G75*
G02*
X2149050Y555500I23750J0D01*
G01*
X2199050Y555500D01*
G75*
G02*
X2222800Y531750I0J-23750D01*
G01*
X2222800Y484250D01*
G75*
G02*
X2199050Y460500I-23750J0D01*
G01*
X2149050Y460500D01*
G75*
G02*
X2125300Y484250I0J23750D01*
G01*
G37*
G36*
G01*
X1942800Y484250D02*
X1942800Y531750D01*
G75*
G02*
X1966550Y555500I23750J0D01*
G01*
X2016550Y555500D01*
G75*
G02*
X2040300Y531750I0J-23750D01*
G01*
X2040300Y484250D01*
G75*
G02*
X2016550Y460500I-23750J0D01*
G01*
X1966550Y460500D01*
G75*
G02*
X1942800Y484250I0J23750D01*
G01*
G37*
G36*
G01*
X1820500Y928750D02*
X1820500Y976250D01*
G75*
G02*
X1844250Y1000000I23750J0D01*
G01*
X1894250Y1000000D01*
G75*
G02*
X1918000Y976250I0J-23750D01*
G01*
X1918000Y928750D01*
G75*
G02*
X1894250Y905000I-23750J0D01*
G01*
X1844250Y905000D01*
G75*
G02*
X1820500Y928750I0J23750D01*
G01*
G37*
G36*
G01*
X1638000Y928750D02*
X1638000Y976250D01*
G75*
G02*
X1661750Y1000000I23750J0D01*
G01*
X1711750Y1000000D01*
G75*
G02*
X1735500Y976250I0J-23750D01*
G01*
X1735500Y928750D01*
G75*
G02*
X1711750Y905000I-23750J0D01*
G01*
X1661750Y905000D01*
G75*
G02*
X1638000Y928750I0J23750D01*
G01*
G37*
G36*
G01*
X2912700Y1551050D02*
X2912700Y1598550D01*
G75*
G02*
X2936450Y1622300I23750J0D01*
G01*
X2986450Y1622300D01*
G75*
G02*
X3010200Y1598550I0J-23750D01*
G01*
X3010200Y1551050D01*
G75*
G02*
X2986450Y1527300I-23750J0D01*
G01*
X2936450Y1527300D01*
G75*
G02*
X2912700Y1551050I0J23750D01*
G01*
G37*
G36*
G01*
X2730200Y1551050D02*
X2730200Y1598550D01*
G75*
G02*
X2753950Y1622300I23750J0D01*
G01*
X2803950Y1622300D01*
G75*
G02*
X2827700Y1598550I0J-23750D01*
G01*
X2827700Y1551050D01*
G75*
G02*
X2803950Y1527300I-23750J0D01*
G01*
X2753950Y1527300D01*
G75*
G02*
X2730200Y1551050I0J23750D01*
G01*
G37*
G36*
G01*
X2912700Y1385950D02*
X2912700Y1433450D01*
G75*
G02*
X2936450Y1457200I23750J0D01*
G01*
X2986450Y1457200D01*
G75*
G02*
X3010200Y1433450I0J-23750D01*
G01*
X3010200Y1385950D01*
G75*
G02*
X2986450Y1362200I-23750J0D01*
G01*
X2936450Y1362200D01*
G75*
G02*
X2912700Y1385950I0J23750D01*
G01*
G37*
G36*
G01*
X2730200Y1385950D02*
X2730200Y1433450D01*
G75*
G02*
X2753950Y1457200I23750J0D01*
G01*
X2803950Y1457200D01*
G75*
G02*
X2827700Y1433450I0J-23750D01*
G01*
X2827700Y1385950D01*
G75*
G02*
X2803950Y1362200I-23750J0D01*
G01*
X2753950Y1362200D01*
G75*
G02*
X2730200Y1385950I0J23750D01*
G01*
G37*
G36*
G01*
X973500Y1242950D02*
X973500Y1195450D01*
G75*
G02*
X949750Y1171700I-23750J0D01*
G01*
X899750Y1171700D01*
G75*
G02*
X876000Y1195450I0J23750D01*
G01*
X876000Y1242950D01*
G75*
G02*
X899750Y1266700I23750J0D01*
G01*
X949750Y1266700D01*
G75*
G02*
X973500Y1242950I0J-23750D01*
G01*
G37*
G36*
G01*
X1156000Y1242950D02*
X1156000Y1195450D01*
G75*
G02*
X1132250Y1171700I-23750J0D01*
G01*
X1082250Y1171700D01*
G75*
G02*
X1058500Y1195450I0J23750D01*
G01*
X1058500Y1242950D01*
G75*
G02*
X1082250Y1266700I23750J0D01*
G01*
X1132250Y1266700D01*
G75*
G02*
X1156000Y1242950I0J-23750D01*
G01*
G37*
G36*
G01*
X1303700Y1242950D02*
X1303700Y1195450D01*
G75*
G02*
X1279950Y1171700I-23750J0D01*
G01*
X1229950Y1171700D01*
G75*
G02*
X1206200Y1195450I0J23750D01*
G01*
X1206200Y1242950D01*
G75*
G02*
X1229950Y1266700I23750J0D01*
G01*
X1279950Y1266700D01*
G75*
G02*
X1303700Y1242950I0J-23750D01*
G01*
G37*
G36*
G01*
X1486200Y1242950D02*
X1486200Y1195450D01*
G75*
G02*
X1462450Y1171700I-23750J0D01*
G01*
X1412450Y1171700D01*
G75*
G02*
X1388700Y1195450I0J23750D01*
G01*
X1388700Y1242950D01*
G75*
G02*
X1412450Y1266700I23750J0D01*
G01*
X1462450Y1266700D01*
G75*
G02*
X1486200Y1242950I0J-23750D01*
G01*
G37*
G36*
G01*
X268350Y1329100D02*
X315850Y1329100D01*
G75*
G02*
X339600Y1305350I0J-23750D01*
G01*
X339600Y1255350D01*
G75*
G02*
X315850Y1231600I-23750J0D01*
G01*
X268350Y1231600D01*
G75*
G02*
X244600Y1255350I0J23750D01*
G01*
X244600Y1305350D01*
G75*
G02*
X268350Y1329100I23750J0D01*
G01*
G37*
G36*
G01*
X268350Y1511600D02*
X315850Y1511600D01*
G75*
G02*
X339600Y1487850I0J-23750D01*
G01*
X339600Y1437850D01*
G75*
G02*
X315850Y1414100I-23750J0D01*
G01*
X268350Y1414100D01*
G75*
G02*
X244600Y1437850I0J23750D01*
G01*
X244600Y1487850D01*
G75*
G02*
X268350Y1511600I23750J0D01*
G01*
G37*
D18*
X1244700Y1917700D03*
X939700Y1917700D03*
D13*
X3225800Y1473200D03*
X3225800Y1727200D03*
D14*
X3225800Y1981200D03*
D13*
X3213100Y266700D03*
X3213100Y520700D03*
X3213100Y774700D03*
D14*
X3213100Y1028700D03*
G36*
G01*
X2380500Y279000D02*
X2380500Y229000D01*
G75*
G02*
X2358000Y206500I-22500J0D01*
G01*
X2313000Y206500D01*
G75*
G02*
X2290500Y229000I0J22500D01*
G01*
X2290500Y279000D01*
G75*
G02*
X2313000Y301500I22500J0D01*
G01*
X2358000Y301500D01*
G75*
G02*
X2380500Y279000I0J-22500D01*
G01*
G37*
G36*
G01*
X2535500Y279000D02*
X2535500Y229000D01*
G75*
G02*
X2513000Y206500I-22500J0D01*
G01*
X2468000Y206500D01*
G75*
G02*
X2445500Y229000I0J22500D01*
G01*
X2445500Y279000D01*
G75*
G02*
X2468000Y301500I22500J0D01*
G01*
X2513000Y301500D01*
G75*
G02*
X2535500Y279000I0J-22500D01*
G01*
G37*
G36*
G01*
X2380500Y533000D02*
X2380500Y483000D01*
G75*
G02*
X2358000Y460500I-22500J0D01*
G01*
X2313000Y460500D01*
G75*
G02*
X2290500Y483000I0J22500D01*
G01*
X2290500Y533000D01*
G75*
G02*
X2313000Y555500I22500J0D01*
G01*
X2358000Y555500D01*
G75*
G02*
X2380500Y533000I0J-22500D01*
G01*
G37*
G36*
G01*
X2535500Y533000D02*
X2535500Y483000D01*
G75*
G02*
X2513000Y460500I-22500J0D01*
G01*
X2468000Y460500D01*
G75*
G02*
X2445500Y483000I0J22500D01*
G01*
X2445500Y533000D01*
G75*
G02*
X2468000Y555500I22500J0D01*
G01*
X2513000Y555500D01*
G75*
G02*
X2535500Y533000I0J-22500D01*
G01*
G37*
G36*
G01*
X2362600Y881900D02*
X2412600Y881900D01*
G75*
G02*
X2435100Y859400I0J-22500D01*
G01*
X2435100Y814400D01*
G75*
G02*
X2412600Y791900I-22500J0D01*
G01*
X2362600Y791900D01*
G75*
G02*
X2340100Y814400I0J22500D01*
G01*
X2340100Y859400D01*
G75*
G02*
X2362600Y881900I22500J0D01*
G01*
G37*
G36*
G01*
X2362600Y1036900D02*
X2412600Y1036900D01*
G75*
G02*
X2435100Y1014400I0J-22500D01*
G01*
X2435100Y969400D01*
G75*
G02*
X2412600Y946900I-22500J0D01*
G01*
X2362600Y946900D01*
G75*
G02*
X2340100Y969400I0J22500D01*
G01*
X2340100Y1014400D01*
G75*
G02*
X2362600Y1036900I22500J0D01*
G01*
G37*
G36*
G01*
X2921400Y907300D02*
X2971400Y907300D01*
G75*
G02*
X2993900Y884800I0J-22500D01*
G01*
X2993900Y839800D01*
G75*
G02*
X2971400Y817300I-22500J0D01*
G01*
X2921400Y817300D01*
G75*
G02*
X2898900Y839800I0J22500D01*
G01*
X2898900Y884800D01*
G75*
G02*
X2921400Y907300I22500J0D01*
G01*
G37*
G36*
G01*
X2921400Y1062300D02*
X2971400Y1062300D01*
G75*
G02*
X2993900Y1039800I0J-22500D01*
G01*
X2993900Y994800D01*
G75*
G02*
X2971400Y972300I-22500J0D01*
G01*
X2921400Y972300D01*
G75*
G02*
X2898900Y994800I0J22500D01*
G01*
X2898900Y1039800D01*
G75*
G02*
X2921400Y1062300I22500J0D01*
G01*
G37*
G36*
G01*
X2837700Y1764900D02*
X2837700Y1714900D01*
G75*
G02*
X2815200Y1692400I-22500J0D01*
G01*
X2770200Y1692400D01*
G75*
G02*
X2747700Y1714900I0J22500D01*
G01*
X2747700Y1764900D01*
G75*
G02*
X2770200Y1787400I22500J0D01*
G01*
X2815200Y1787400D01*
G75*
G02*
X2837700Y1764900I0J-22500D01*
G01*
G37*
G36*
G01*
X2992700Y1764900D02*
X2992700Y1714900D01*
G75*
G02*
X2970200Y1692400I-22500J0D01*
G01*
X2925200Y1692400D01*
G75*
G02*
X2902700Y1714900I0J22500D01*
G01*
X2902700Y1764900D01*
G75*
G02*
X2925200Y1787400I22500J0D01*
G01*
X2970200Y1787400D01*
G75*
G02*
X2992700Y1764900I0J-22500D01*
G01*
G37*
G36*
G01*
X1720100Y279000D02*
X1720100Y229000D01*
G75*
G02*
X1697600Y206500I-22500J0D01*
G01*
X1652600Y206500D01*
G75*
G02*
X1630100Y229000I0J22500D01*
G01*
X1630100Y279000D01*
G75*
G02*
X1652600Y301500I22500J0D01*
G01*
X1697600Y301500D01*
G75*
G02*
X1720100Y279000I0J-22500D01*
G01*
G37*
G36*
G01*
X1875100Y279000D02*
X1875100Y229000D01*
G75*
G02*
X1852600Y206500I-22500J0D01*
G01*
X1807600Y206500D01*
G75*
G02*
X1785100Y229000I0J22500D01*
G01*
X1785100Y279000D01*
G75*
G02*
X1807600Y301500I22500J0D01*
G01*
X1852600Y301500D01*
G75*
G02*
X1875100Y279000I0J-22500D01*
G01*
G37*
G36*
G01*
X1720100Y533000D02*
X1720100Y483000D01*
G75*
G02*
X1697600Y460500I-22500J0D01*
G01*
X1652600Y460500D01*
G75*
G02*
X1630100Y483000I0J22500D01*
G01*
X1630100Y533000D01*
G75*
G02*
X1652600Y555500I22500J0D01*
G01*
X1697600Y555500D01*
G75*
G02*
X1720100Y533000I0J-22500D01*
G01*
G37*
G36*
G01*
X1875100Y533000D02*
X1875100Y483000D01*
G75*
G02*
X1852600Y460500I-22500J0D01*
G01*
X1807600Y460500D01*
G75*
G02*
X1785100Y483000I0J22500D01*
G01*
X1785100Y533000D01*
G75*
G02*
X1807600Y555500I22500J0D01*
G01*
X1852600Y555500D01*
G75*
G02*
X1875100Y533000I0J-22500D01*
G01*
G37*
G36*
G01*
X1810500Y775100D02*
X1810500Y825100D01*
G75*
G02*
X1833000Y847600I22500J0D01*
G01*
X1878000Y847600D01*
G75*
G02*
X1900500Y825100I0J-22500D01*
G01*
X1900500Y775100D01*
G75*
G02*
X1878000Y752600I-22500J0D01*
G01*
X1833000Y752600D01*
G75*
G02*
X1810500Y775100I0J22500D01*
G01*
G37*
G36*
G01*
X1655500Y775100D02*
X1655500Y825100D01*
G75*
G02*
X1678000Y847600I22500J0D01*
G01*
X1723000Y847600D01*
G75*
G02*
X1745500Y825100I0J-22500D01*
G01*
X1745500Y775100D01*
G75*
G02*
X1723000Y752600I-22500J0D01*
G01*
X1678000Y752600D01*
G75*
G02*
X1655500Y775100I0J22500D01*
G01*
G37*
G36*
G01*
X2286400Y1783600D02*
X2336400Y1783600D01*
G75*
G02*
X2358900Y1761100I0J-22500D01*
G01*
X2358900Y1716100D01*
G75*
G02*
X2336400Y1693600I-22500J0D01*
G01*
X2286400Y1693600D01*
G75*
G02*
X2263900Y1716100I0J22500D01*
G01*
X2263900Y1761100D01*
G75*
G02*
X2286400Y1783600I22500J0D01*
G01*
G37*
G36*
G01*
X2286400Y1938600D02*
X2336400Y1938600D01*
G75*
G02*
X2358900Y1916100I0J-22500D01*
G01*
X2358900Y1871100D01*
G75*
G02*
X2336400Y1848600I-22500J0D01*
G01*
X2286400Y1848600D01*
G75*
G02*
X2263900Y1871100I0J22500D01*
G01*
X2263900Y1916100D01*
G75*
G02*
X2286400Y1938600I22500J0D01*
G01*
G37*
G36*
G01*
X1956600Y1439300D02*
X1956600Y1329300D01*
G75*
G02*
X1931600Y1304300I-25000J0D01*
G01*
X1721600Y1304300D01*
G75*
G02*
X1696600Y1329300I0J25000D01*
G01*
X1696600Y1439300D01*
G75*
G02*
X1721600Y1464300I25000J0D01*
G01*
X1931600Y1464300D01*
G75*
G02*
X1956600Y1439300I0J-25000D01*
G01*
G37*
G36*
G01*
X2316600Y1439300D02*
X2316600Y1329300D01*
G75*
G02*
X2291600Y1304300I-25000J0D01*
G01*
X2081600Y1304300D01*
G75*
G02*
X2056600Y1329300I0J25000D01*
G01*
X2056600Y1439300D01*
G75*
G02*
X2081600Y1464300I25000J0D01*
G01*
X2291600Y1464300D01*
G75*
G02*
X2316600Y1439300I0J-25000D01*
G01*
G37*
G36*
G01*
X1702200Y1809000D02*
X1752200Y1809000D01*
G75*
G02*
X1774700Y1786500I0J-22500D01*
G01*
X1774700Y1741500D01*
G75*
G02*
X1752200Y1719000I-22500J0D01*
G01*
X1702200Y1719000D01*
G75*
G02*
X1679700Y1741500I0J22500D01*
G01*
X1679700Y1786500D01*
G75*
G02*
X1702200Y1809000I22500J0D01*
G01*
G37*
G36*
G01*
X1702200Y1964000D02*
X1752200Y1964000D01*
G75*
G02*
X1774700Y1941500I0J-22500D01*
G01*
X1774700Y1896500D01*
G75*
G02*
X1752200Y1874000I-22500J0D01*
G01*
X1702200Y1874000D01*
G75*
G02*
X1679700Y1896500I0J22500D01*
G01*
X1679700Y1941500D01*
G75*
G02*
X1702200Y1964000I22500J0D01*
G01*
G37*
G36*
G01*
X1245000Y1491500D02*
X1295000Y1491500D01*
G75*
G02*
X1317500Y1469000I0J-22500D01*
G01*
X1317500Y1424000D01*
G75*
G02*
X1295000Y1401500I-22500J0D01*
G01*
X1245000Y1401500D01*
G75*
G02*
X1222500Y1424000I0J22500D01*
G01*
X1222500Y1469000D01*
G75*
G02*
X1245000Y1491500I22500J0D01*
G01*
G37*
G36*
G01*
X1245000Y1646500D02*
X1295000Y1646500D01*
G75*
G02*
X1317500Y1624000I0J-22500D01*
G01*
X1317500Y1579000D01*
G75*
G02*
X1295000Y1556500I-22500J0D01*
G01*
X1245000Y1556500D01*
G75*
G02*
X1222500Y1579000I0J22500D01*
G01*
X1222500Y1624000D01*
G75*
G02*
X1245000Y1646500I22500J0D01*
G01*
G37*
G36*
G01*
X1408200Y1510200D02*
X1538200Y1510200D01*
G75*
G02*
X1563200Y1485200I0J-25000D01*
G01*
X1563200Y1420200D01*
G75*
G02*
X1538200Y1395200I-25000J0D01*
G01*
X1408200Y1395200D01*
G75*
G02*
X1383200Y1420200I0J25000D01*
G01*
X1383200Y1485200D01*
G75*
G02*
X1408200Y1510200I25000J0D01*
G01*
G37*
G36*
G01*
X1408200Y1805200D02*
X1538200Y1805200D01*
G75*
G02*
X1563200Y1780200I0J-25000D01*
G01*
X1563200Y1715200D01*
G75*
G02*
X1538200Y1690200I-25000J0D01*
G01*
X1408200Y1690200D01*
G75*
G02*
X1383200Y1715200I0J25000D01*
G01*
X1383200Y1780200D01*
G75*
G02*
X1408200Y1805200I25000J0D01*
G01*
G37*
G36*
G01*
X838600Y704100D02*
X888600Y704100D01*
G75*
G02*
X911100Y681600I0J-22500D01*
G01*
X911100Y636600D01*
G75*
G02*
X888600Y614100I-22500J0D01*
G01*
X838600Y614100D01*
G75*
G02*
X816100Y636600I0J22500D01*
G01*
X816100Y681600D01*
G75*
G02*
X838600Y704100I22500J0D01*
G01*
G37*
G36*
G01*
X838600Y859100D02*
X888600Y859100D01*
G75*
G02*
X911100Y836600I0J-22500D01*
G01*
X911100Y791600D01*
G75*
G02*
X888600Y769100I-22500J0D01*
G01*
X838600Y769100D01*
G75*
G02*
X816100Y791600I0J22500D01*
G01*
X816100Y836600D01*
G75*
G02*
X838600Y859100I22500J0D01*
G01*
G37*
G36*
G01*
X674200Y1916200D02*
X674200Y2046200D01*
G75*
G02*
X699200Y2071200I25000J0D01*
G01*
X764200Y2071200D01*
G75*
G02*
X789200Y2046200I0J-25000D01*
G01*
X789200Y1916200D01*
G75*
G02*
X764200Y1891200I-25000J0D01*
G01*
X699200Y1891200D01*
G75*
G02*
X674200Y1916200I0J25000D01*
G01*
G37*
G36*
G01*
X379200Y1916200D02*
X379200Y2046200D01*
G75*
G02*
X404200Y2071200I25000J0D01*
G01*
X469200Y2071200D01*
G75*
G02*
X494200Y2046200I0J-25000D01*
G01*
X494200Y1916200D01*
G75*
G02*
X469200Y1891200I-25000J0D01*
G01*
X404200Y1891200D01*
G75*
G02*
X379200Y1916200I0J25000D01*
G01*
G37*
G36*
G01*
X591300Y1753000D02*
X591300Y1803000D01*
G75*
G02*
X613800Y1825500I22500J0D01*
G01*
X658800Y1825500D01*
G75*
G02*
X681300Y1803000I0J-22500D01*
G01*
X681300Y1753000D01*
G75*
G02*
X658800Y1730500I-22500J0D01*
G01*
X613800Y1730500D01*
G75*
G02*
X591300Y1753000I0J22500D01*
G01*
G37*
G36*
G01*
X436300Y1753000D02*
X436300Y1803000D01*
G75*
G02*
X458800Y1825500I22500J0D01*
G01*
X503800Y1825500D01*
G75*
G02*
X526300Y1803000I0J-22500D01*
G01*
X526300Y1753000D01*
G75*
G02*
X503800Y1730500I-22500J0D01*
G01*
X458800Y1730500D01*
G75*
G02*
X436300Y1753000I0J22500D01*
G01*
G37*
M02*
