G04 #@! TF.GenerationSoftware,KiCad,Pcbnew,(5.0.0-rc2-198-gb8bbb15aa)*
G04 #@! TF.CreationDate,2022-01-01T22:46:34-08:00*
G04 #@! TF.ProjectId,E-Bike,452D42696B652E6B696361645F706362,rev?*
G04 #@! TF.SameCoordinates,PX619eb90PY83695b8*
G04 #@! TF.FileFunction,Soldermask,Top*
G04 #@! TF.FilePolarity,Negative*
%FSLAX45Y45*%
G04 Gerber Fmt 4.5, Leading zero omitted, Abs format (unit mm)*
G04 Created by KiCad (PCBNEW (5.0.0-rc2-198-gb8bbb15aa)) date 01/01/22 22:46:34*
%MOMM*%
%LPD*%
G01*
G04 APERTURE LIST*
%ADD10C,2.500000*%
%ADD11C,0.500000*%
%ADD12C,1.000000*%
%ADD13C,0.100000*%
%ADD14C,1.125000*%
%ADD15R,0.400000X0.650000*%
%ADD16O,1.700000X1.700000*%
%ADD17R,1.700000X1.700000*%
%ADD18C,0.950000*%
%ADD19C,0.900000*%
%ADD20R,1.060000X0.650000*%
%ADD21R,0.650000X1.700000*%
%ADD22R,1.400000X0.300000*%
%ADD23R,1.500000X3.600000*%
%ADD24C,1.600000*%
%ADD25C,1.150000*%
G04 APERTURE END LIST*
D10*
X3187700Y2308860D02*
X2265680Y2308860D01*
X1214120Y2298700D02*
X325120Y2298700D01*
D11*
X3488800Y2529500D02*
X-11200Y2529500D01*
D12*
X3479800Y0D02*
X0Y0D01*
X3479800Y2504440D02*
X3479800Y0D01*
X0Y0D02*
X-2540Y2504440D01*
D13*
G04 #@! TO.C,R2*
G36*
X1487650Y2436880D02*
X1490077Y2436520D01*
X1492457Y2435924D01*
X1494767Y2435097D01*
X1496985Y2434048D01*
X1499089Y2432787D01*
X1501060Y2431325D01*
X1502878Y2429678D01*
X1504525Y2427860D01*
X1505987Y2425889D01*
X1507248Y2423785D01*
X1508297Y2421567D01*
X1509123Y2419257D01*
X1509720Y2416877D01*
X1510080Y2414451D01*
X1510200Y2412000D01*
X1510200Y2287000D01*
X1510080Y2284550D01*
X1509720Y2282123D01*
X1509123Y2279743D01*
X1508297Y2277433D01*
X1507248Y2275215D01*
X1505987Y2273111D01*
X1504525Y2271140D01*
X1502878Y2269322D01*
X1501060Y2267675D01*
X1499089Y2266213D01*
X1496985Y2264952D01*
X1494767Y2263903D01*
X1492457Y2263077D01*
X1490077Y2262480D01*
X1487650Y2262120D01*
X1485200Y2262000D01*
X1422700Y2262000D01*
X1420249Y2262120D01*
X1417823Y2262480D01*
X1415443Y2263077D01*
X1413133Y2263903D01*
X1410915Y2264952D01*
X1408811Y2266213D01*
X1406840Y2267675D01*
X1405022Y2269322D01*
X1403375Y2271140D01*
X1401913Y2273111D01*
X1400652Y2275215D01*
X1399603Y2277433D01*
X1398776Y2279743D01*
X1398180Y2282123D01*
X1397820Y2284550D01*
X1397700Y2287000D01*
X1397700Y2412000D01*
X1397820Y2414451D01*
X1398180Y2416877D01*
X1398776Y2419257D01*
X1399603Y2421567D01*
X1400652Y2423785D01*
X1401913Y2425889D01*
X1403375Y2427860D01*
X1405022Y2429678D01*
X1406840Y2431325D01*
X1408811Y2432787D01*
X1410915Y2434048D01*
X1413133Y2435097D01*
X1415443Y2435924D01*
X1417823Y2436520D01*
X1420249Y2436880D01*
X1422700Y2437000D01*
X1485200Y2437000D01*
X1487650Y2436880D01*
X1487650Y2436880D01*
G37*
D14*
X1453950Y2349500D03*
D13*
G36*
X1780150Y2436880D02*
X1782577Y2436520D01*
X1784957Y2435924D01*
X1787267Y2435097D01*
X1789485Y2434048D01*
X1791589Y2432787D01*
X1793560Y2431325D01*
X1795378Y2429678D01*
X1797025Y2427860D01*
X1798487Y2425889D01*
X1799748Y2423785D01*
X1800797Y2421567D01*
X1801623Y2419257D01*
X1802220Y2416877D01*
X1802580Y2414451D01*
X1802700Y2412000D01*
X1802700Y2287000D01*
X1802580Y2284550D01*
X1802220Y2282123D01*
X1801623Y2279743D01*
X1800797Y2277433D01*
X1799748Y2275215D01*
X1798487Y2273111D01*
X1797025Y2271140D01*
X1795378Y2269322D01*
X1793560Y2267675D01*
X1791589Y2266213D01*
X1789485Y2264952D01*
X1787267Y2263903D01*
X1784957Y2263077D01*
X1782577Y2262480D01*
X1780150Y2262120D01*
X1777700Y2262000D01*
X1715200Y2262000D01*
X1712749Y2262120D01*
X1710323Y2262480D01*
X1707943Y2263077D01*
X1705633Y2263903D01*
X1703415Y2264952D01*
X1701311Y2266213D01*
X1699340Y2267675D01*
X1697522Y2269322D01*
X1695875Y2271140D01*
X1694413Y2273111D01*
X1693152Y2275215D01*
X1692103Y2277433D01*
X1691276Y2279743D01*
X1690680Y2282123D01*
X1690320Y2284550D01*
X1690200Y2287000D01*
X1690200Y2412000D01*
X1690320Y2414451D01*
X1690680Y2416877D01*
X1691276Y2419257D01*
X1692103Y2421567D01*
X1693152Y2423785D01*
X1694413Y2425889D01*
X1695875Y2427860D01*
X1697522Y2429678D01*
X1699340Y2431325D01*
X1701311Y2432787D01*
X1703415Y2434048D01*
X1705633Y2435097D01*
X1707943Y2435924D01*
X1710323Y2436520D01*
X1712749Y2436880D01*
X1715200Y2437000D01*
X1777700Y2437000D01*
X1780150Y2436880D01*
X1780150Y2436880D01*
G37*
D14*
X1746450Y2349500D03*
G04 #@! TD*
D15*
G04 #@! TO.C,U4*
X1933980Y2162560D03*
X2063980Y2162560D03*
X1998980Y1972560D03*
X2063980Y1972560D03*
X1933980Y1972560D03*
G04 #@! TD*
D16*
G04 #@! TO.C,J3*
X3225800Y1485900D03*
D17*
X3225800Y1739900D03*
G04 #@! TD*
D13*
G04 #@! TO.C,R11*
G36*
X1998558Y182006D02*
X2000863Y181664D01*
X2003124Y181097D01*
X2005319Y180312D01*
X2007426Y179316D01*
X2009425Y178117D01*
X2011297Y176729D01*
X2013024Y175164D01*
X2014589Y173437D01*
X2015977Y171565D01*
X2017176Y169566D01*
X2018172Y167459D01*
X2018957Y165264D01*
X2019524Y163003D01*
X2019866Y160698D01*
X2019980Y158370D01*
X2019980Y110870D01*
X2019866Y108542D01*
X2019524Y106237D01*
X2018957Y103976D01*
X2018172Y101781D01*
X2017176Y99674D01*
X2015977Y97675D01*
X2014589Y95803D01*
X2013024Y94076D01*
X2011297Y92511D01*
X2009425Y91123D01*
X2007426Y89924D01*
X2005319Y88928D01*
X2003124Y88143D01*
X2000863Y87576D01*
X1998558Y87234D01*
X1996230Y87120D01*
X1946230Y87120D01*
X1943902Y87234D01*
X1941597Y87576D01*
X1939336Y88143D01*
X1937141Y88928D01*
X1935034Y89924D01*
X1933035Y91123D01*
X1931163Y92511D01*
X1929436Y94076D01*
X1927871Y95803D01*
X1926483Y97675D01*
X1925284Y99674D01*
X1924288Y101781D01*
X1923503Y103976D01*
X1922936Y106237D01*
X1922594Y108542D01*
X1922480Y110870D01*
X1922480Y158370D01*
X1922594Y160698D01*
X1922936Y163003D01*
X1923503Y165264D01*
X1924288Y167459D01*
X1925284Y169566D01*
X1926483Y171565D01*
X1927871Y173437D01*
X1929436Y175164D01*
X1931163Y176729D01*
X1933035Y178117D01*
X1935034Y179316D01*
X1937141Y180312D01*
X1939336Y181097D01*
X1941597Y181664D01*
X1943902Y182006D01*
X1946230Y182120D01*
X1996230Y182120D01*
X1998558Y182006D01*
X1998558Y182006D01*
G37*
D18*
X1971230Y134620D03*
D13*
G36*
X2181058Y182006D02*
X2183363Y181664D01*
X2185624Y181097D01*
X2187819Y180312D01*
X2189926Y179316D01*
X2191925Y178117D01*
X2193797Y176729D01*
X2195524Y175164D01*
X2197089Y173437D01*
X2198477Y171565D01*
X2199676Y169566D01*
X2200672Y167459D01*
X2201457Y165264D01*
X2202024Y163003D01*
X2202366Y160698D01*
X2202480Y158370D01*
X2202480Y110870D01*
X2202366Y108542D01*
X2202024Y106237D01*
X2201457Y103976D01*
X2200672Y101781D01*
X2199676Y99674D01*
X2198477Y97675D01*
X2197089Y95803D01*
X2195524Y94076D01*
X2193797Y92511D01*
X2191925Y91123D01*
X2189926Y89924D01*
X2187819Y88928D01*
X2185624Y88143D01*
X2183363Y87576D01*
X2181058Y87234D01*
X2178730Y87120D01*
X2128730Y87120D01*
X2126402Y87234D01*
X2124097Y87576D01*
X2121836Y88143D01*
X2119641Y88928D01*
X2117534Y89924D01*
X2115535Y91123D01*
X2113663Y92511D01*
X2111936Y94076D01*
X2110371Y95803D01*
X2108983Y97675D01*
X2107784Y99674D01*
X2106788Y101781D01*
X2106003Y103976D01*
X2105436Y106237D01*
X2105094Y108542D01*
X2104980Y110870D01*
X2104980Y158370D01*
X2105094Y160698D01*
X2105436Y163003D01*
X2106003Y165264D01*
X2106788Y167459D01*
X2107784Y169566D01*
X2108983Y171565D01*
X2110371Y173437D01*
X2111936Y175164D01*
X2113663Y176729D01*
X2115535Y178117D01*
X2117534Y179316D01*
X2119641Y180312D01*
X2121836Y181097D01*
X2124097Y181664D01*
X2126402Y182006D01*
X2128730Y182120D01*
X2178730Y182120D01*
X2181058Y182006D01*
X2181058Y182006D01*
G37*
D18*
X2153730Y134620D03*
G04 #@! TD*
D13*
G04 #@! TO.C,C18*
G36*
X1687105Y182012D02*
X1689289Y181688D01*
X1691431Y181151D01*
X1693510Y180407D01*
X1695506Y179463D01*
X1697400Y178328D01*
X1699174Y177013D01*
X1700810Y175530D01*
X1702293Y173894D01*
X1703608Y172120D01*
X1704743Y170226D01*
X1705687Y168230D01*
X1706431Y166151D01*
X1706968Y164010D01*
X1707292Y161825D01*
X1707400Y159620D01*
X1707400Y109620D01*
X1707292Y107415D01*
X1706968Y105230D01*
X1706431Y103089D01*
X1705687Y101010D01*
X1704743Y99014D01*
X1703608Y97120D01*
X1702293Y95346D01*
X1700810Y93710D01*
X1699174Y92227D01*
X1697400Y90912D01*
X1695506Y89777D01*
X1693510Y88833D01*
X1691431Y88089D01*
X1689289Y87552D01*
X1687105Y87228D01*
X1684900Y87120D01*
X1639900Y87120D01*
X1637695Y87228D01*
X1635510Y87552D01*
X1633369Y88089D01*
X1631290Y88833D01*
X1629294Y89777D01*
X1627400Y90912D01*
X1625626Y92227D01*
X1623990Y93710D01*
X1622507Y95346D01*
X1621192Y97120D01*
X1620057Y99014D01*
X1619113Y101010D01*
X1618369Y103089D01*
X1617832Y105230D01*
X1617508Y107415D01*
X1617400Y109620D01*
X1617400Y159620D01*
X1617508Y161825D01*
X1617832Y164010D01*
X1618369Y166151D01*
X1619113Y168230D01*
X1620057Y170226D01*
X1621192Y172120D01*
X1622507Y173894D01*
X1623990Y175530D01*
X1625626Y177013D01*
X1627400Y178328D01*
X1629294Y179463D01*
X1631290Y180407D01*
X1633369Y181151D01*
X1635510Y181688D01*
X1637695Y182012D01*
X1639900Y182120D01*
X1684900Y182120D01*
X1687105Y182012D01*
X1687105Y182012D01*
G37*
D19*
X1662400Y134620D03*
D13*
G36*
X1842105Y182012D02*
X1844289Y181688D01*
X1846431Y181151D01*
X1848510Y180407D01*
X1850506Y179463D01*
X1852400Y178328D01*
X1854174Y177013D01*
X1855810Y175530D01*
X1857293Y173894D01*
X1858608Y172120D01*
X1859743Y170226D01*
X1860687Y168230D01*
X1861431Y166151D01*
X1861968Y164010D01*
X1862292Y161825D01*
X1862400Y159620D01*
X1862400Y109620D01*
X1862292Y107415D01*
X1861968Y105230D01*
X1861431Y103089D01*
X1860687Y101010D01*
X1859743Y99014D01*
X1858608Y97120D01*
X1857293Y95346D01*
X1855810Y93710D01*
X1854174Y92227D01*
X1852400Y90912D01*
X1850506Y89777D01*
X1848510Y88833D01*
X1846431Y88089D01*
X1844289Y87552D01*
X1842105Y87228D01*
X1839900Y87120D01*
X1794900Y87120D01*
X1792695Y87228D01*
X1790510Y87552D01*
X1788369Y88089D01*
X1786290Y88833D01*
X1784294Y89777D01*
X1782400Y90912D01*
X1780626Y92227D01*
X1778990Y93710D01*
X1777507Y95346D01*
X1776192Y97120D01*
X1775057Y99014D01*
X1774113Y101010D01*
X1773369Y103089D01*
X1772832Y105230D01*
X1772508Y107415D01*
X1772400Y109620D01*
X1772400Y159620D01*
X1772508Y161825D01*
X1772832Y164010D01*
X1773369Y166151D01*
X1774113Y168230D01*
X1775057Y170226D01*
X1776192Y172120D01*
X1777507Y173894D01*
X1778990Y175530D01*
X1780626Y177013D01*
X1782400Y178328D01*
X1784294Y179463D01*
X1786290Y180407D01*
X1788369Y181151D01*
X1790510Y181688D01*
X1792695Y182012D01*
X1794900Y182120D01*
X1839900Y182120D01*
X1842105Y182012D01*
X1842105Y182012D01*
G37*
D19*
X1817400Y134620D03*
G04 #@! TD*
D13*
G04 #@! TO.C,C3*
G36*
X2395825Y2026052D02*
X2398010Y2025728D01*
X2400151Y2025191D01*
X2402230Y2024447D01*
X2404226Y2023503D01*
X2406120Y2022368D01*
X2407894Y2021053D01*
X2409530Y2019570D01*
X2411013Y2017934D01*
X2412328Y2016160D01*
X2413463Y2014266D01*
X2414407Y2012270D01*
X2415151Y2010191D01*
X2415688Y2008049D01*
X2416012Y2005865D01*
X2416120Y2003660D01*
X2416120Y1953660D01*
X2416012Y1951455D01*
X2415688Y1949270D01*
X2415151Y1947129D01*
X2414407Y1945050D01*
X2413463Y1943054D01*
X2412328Y1941160D01*
X2411013Y1939386D01*
X2409530Y1937750D01*
X2407894Y1936267D01*
X2406120Y1934952D01*
X2404226Y1933817D01*
X2402230Y1932873D01*
X2400151Y1932129D01*
X2398010Y1931592D01*
X2395825Y1931268D01*
X2393620Y1931160D01*
X2348620Y1931160D01*
X2346415Y1931268D01*
X2344231Y1931592D01*
X2342089Y1932129D01*
X2340010Y1932873D01*
X2338014Y1933817D01*
X2336120Y1934952D01*
X2334346Y1936267D01*
X2332710Y1937750D01*
X2331227Y1939386D01*
X2329912Y1941160D01*
X2328777Y1943054D01*
X2327833Y1945050D01*
X2327089Y1947129D01*
X2326552Y1949270D01*
X2326228Y1951455D01*
X2326120Y1953660D01*
X2326120Y2003660D01*
X2326228Y2005865D01*
X2326552Y2008049D01*
X2327089Y2010191D01*
X2327833Y2012270D01*
X2328777Y2014266D01*
X2329912Y2016160D01*
X2331227Y2017934D01*
X2332710Y2019570D01*
X2334346Y2021053D01*
X2336120Y2022368D01*
X2338014Y2023503D01*
X2340010Y2024447D01*
X2342089Y2025191D01*
X2344231Y2025728D01*
X2346415Y2026052D01*
X2348620Y2026160D01*
X2393620Y2026160D01*
X2395825Y2026052D01*
X2395825Y2026052D01*
G37*
D19*
X2371120Y1978660D03*
D13*
G36*
X2240825Y2026052D02*
X2243010Y2025728D01*
X2245151Y2025191D01*
X2247230Y2024447D01*
X2249226Y2023503D01*
X2251120Y2022368D01*
X2252894Y2021053D01*
X2254530Y2019570D01*
X2256013Y2017934D01*
X2257328Y2016160D01*
X2258463Y2014266D01*
X2259407Y2012270D01*
X2260151Y2010191D01*
X2260688Y2008049D01*
X2261012Y2005865D01*
X2261120Y2003660D01*
X2261120Y1953660D01*
X2261012Y1951455D01*
X2260688Y1949270D01*
X2260151Y1947129D01*
X2259407Y1945050D01*
X2258463Y1943054D01*
X2257328Y1941160D01*
X2256013Y1939386D01*
X2254530Y1937750D01*
X2252894Y1936267D01*
X2251120Y1934952D01*
X2249226Y1933817D01*
X2247230Y1932873D01*
X2245151Y1932129D01*
X2243010Y1931592D01*
X2240825Y1931268D01*
X2238620Y1931160D01*
X2193620Y1931160D01*
X2191415Y1931268D01*
X2189231Y1931592D01*
X2187089Y1932129D01*
X2185010Y1932873D01*
X2183014Y1933817D01*
X2181120Y1934952D01*
X2179346Y1936267D01*
X2177710Y1937750D01*
X2176227Y1939386D01*
X2174912Y1941160D01*
X2173777Y1943054D01*
X2172833Y1945050D01*
X2172089Y1947129D01*
X2171552Y1949270D01*
X2171228Y1951455D01*
X2171120Y1953660D01*
X2171120Y2003660D01*
X2171228Y2005865D01*
X2171552Y2008049D01*
X2172089Y2010191D01*
X2172833Y2012270D01*
X2173777Y2014266D01*
X2174912Y2016160D01*
X2176227Y2017934D01*
X2177710Y2019570D01*
X2179346Y2021053D01*
X2181120Y2022368D01*
X2183014Y2023503D01*
X2185010Y2024447D01*
X2187089Y2025191D01*
X2189231Y2025728D01*
X2191415Y2026052D01*
X2193620Y2026160D01*
X2238620Y2026160D01*
X2240825Y2026052D01*
X2240825Y2026052D01*
G37*
D19*
X2216120Y1978660D03*
G04 #@! TD*
D16*
G04 #@! TO.C,J4*
X2667000Y850900D03*
D17*
X2667000Y1104900D03*
G04 #@! TD*
D16*
G04 #@! TO.C,J1*
X571500Y304800D03*
X317500Y304800D03*
X571500Y558800D03*
X317500Y558800D03*
X571500Y812800D03*
D17*
X317500Y812800D03*
G04 #@! TD*
D20*
G04 #@! TO.C,U3*
X2121680Y1817120D03*
X2121680Y1627120D03*
X1901680Y1627120D03*
X1901680Y1722120D03*
X1901680Y1817120D03*
G04 #@! TD*
D21*
G04 #@! TO.C,U2*
X1054100Y936500D03*
X1181100Y936500D03*
X1308100Y936500D03*
X1435100Y936500D03*
X1435100Y206500D03*
X1308100Y206500D03*
X1181100Y206500D03*
X1054100Y206500D03*
G04 #@! TD*
D22*
G04 #@! TO.C,U1*
X931200Y1598600D03*
X931200Y1548600D03*
X931200Y1498600D03*
X931200Y1448600D03*
X931200Y1398600D03*
X491200Y1398600D03*
X491200Y1448600D03*
X491200Y1498600D03*
X491200Y1548600D03*
X491200Y1598600D03*
G04 #@! TD*
D13*
G04 #@! TO.C,R10*
G36*
X2056978Y999886D02*
X2059283Y999544D01*
X2061544Y998977D01*
X2063739Y998192D01*
X2065846Y997196D01*
X2067845Y995997D01*
X2069717Y994609D01*
X2071444Y993044D01*
X2073009Y991317D01*
X2074397Y989445D01*
X2075596Y987446D01*
X2076592Y985339D01*
X2077377Y983144D01*
X2077944Y980883D01*
X2078286Y978578D01*
X2078400Y976250D01*
X2078400Y928750D01*
X2078286Y926422D01*
X2077944Y924117D01*
X2077377Y921856D01*
X2076592Y919661D01*
X2075596Y917554D01*
X2074397Y915555D01*
X2073009Y913683D01*
X2071444Y911956D01*
X2069717Y910391D01*
X2067845Y909003D01*
X2065846Y907804D01*
X2063739Y906808D01*
X2061544Y906023D01*
X2059283Y905456D01*
X2056978Y905114D01*
X2054650Y905000D01*
X2004650Y905000D01*
X2002322Y905114D01*
X2000017Y905456D01*
X1997756Y906023D01*
X1995561Y906808D01*
X1993454Y907804D01*
X1991455Y909003D01*
X1989583Y910391D01*
X1987856Y911956D01*
X1986291Y913683D01*
X1984903Y915555D01*
X1983704Y917554D01*
X1982708Y919661D01*
X1981923Y921856D01*
X1981356Y924117D01*
X1981014Y926422D01*
X1980900Y928750D01*
X1980900Y976250D01*
X1981014Y978578D01*
X1981356Y980883D01*
X1981923Y983144D01*
X1982708Y985339D01*
X1983704Y987446D01*
X1984903Y989445D01*
X1986291Y991317D01*
X1987856Y993044D01*
X1989583Y994609D01*
X1991455Y995997D01*
X1993454Y997196D01*
X1995561Y998192D01*
X1997756Y998977D01*
X2000017Y999544D01*
X2002322Y999886D01*
X2004650Y1000000D01*
X2054650Y1000000D01*
X2056978Y999886D01*
X2056978Y999886D01*
G37*
D18*
X2029650Y952500D03*
D13*
G36*
X2239478Y999886D02*
X2241783Y999544D01*
X2244044Y998977D01*
X2246239Y998192D01*
X2248346Y997196D01*
X2250345Y995997D01*
X2252217Y994609D01*
X2253944Y993044D01*
X2255509Y991317D01*
X2256897Y989445D01*
X2258096Y987446D01*
X2259092Y985339D01*
X2259877Y983144D01*
X2260444Y980883D01*
X2260786Y978578D01*
X2260900Y976250D01*
X2260900Y928750D01*
X2260786Y926422D01*
X2260444Y924117D01*
X2259877Y921856D01*
X2259092Y919661D01*
X2258096Y917554D01*
X2256897Y915555D01*
X2255509Y913683D01*
X2253944Y911956D01*
X2252217Y910391D01*
X2250345Y909003D01*
X2248346Y907804D01*
X2246239Y906808D01*
X2244044Y906023D01*
X2241783Y905456D01*
X2239478Y905114D01*
X2237150Y905000D01*
X2187150Y905000D01*
X2184822Y905114D01*
X2182517Y905456D01*
X2180256Y906023D01*
X2178061Y906808D01*
X2175954Y907804D01*
X2173955Y909003D01*
X2172083Y910391D01*
X2170356Y911956D01*
X2168791Y913683D01*
X2167403Y915555D01*
X2166204Y917554D01*
X2165208Y919661D01*
X2164423Y921856D01*
X2163856Y924117D01*
X2163514Y926422D01*
X2163400Y928750D01*
X2163400Y976250D01*
X2163514Y978578D01*
X2163856Y980883D01*
X2164423Y983144D01*
X2165208Y985339D01*
X2166204Y987446D01*
X2167403Y989445D01*
X2168791Y991317D01*
X2170356Y993044D01*
X2172083Y994609D01*
X2173955Y995997D01*
X2175954Y997196D01*
X2178061Y998192D01*
X2180256Y998977D01*
X2182517Y999544D01*
X2184822Y999886D01*
X2187150Y1000000D01*
X2237150Y1000000D01*
X2239478Y999886D01*
X2239478Y999886D01*
G37*
D18*
X2212150Y952500D03*
G04 #@! TD*
D13*
G04 #@! TO.C,R9*
G36*
X2193758Y377586D02*
X2196063Y377244D01*
X2198324Y376677D01*
X2200519Y375892D01*
X2202626Y374896D01*
X2204625Y373697D01*
X2206497Y372309D01*
X2208224Y370744D01*
X2209789Y369017D01*
X2211177Y367145D01*
X2212376Y365146D01*
X2213372Y363039D01*
X2214157Y360844D01*
X2214724Y358583D01*
X2215066Y356278D01*
X2215180Y353950D01*
X2215180Y306450D01*
X2215066Y304122D01*
X2214724Y301817D01*
X2214157Y299556D01*
X2213372Y297361D01*
X2212376Y295254D01*
X2211177Y293255D01*
X2209789Y291383D01*
X2208224Y289656D01*
X2206497Y288091D01*
X2204625Y286703D01*
X2202626Y285504D01*
X2200519Y284508D01*
X2198324Y283723D01*
X2196063Y283156D01*
X2193758Y282814D01*
X2191430Y282700D01*
X2141430Y282700D01*
X2139102Y282814D01*
X2136797Y283156D01*
X2134536Y283723D01*
X2132341Y284508D01*
X2130234Y285504D01*
X2128235Y286703D01*
X2126363Y288091D01*
X2124636Y289656D01*
X2123071Y291383D01*
X2121683Y293255D01*
X2120484Y295254D01*
X2119488Y297361D01*
X2118703Y299556D01*
X2118136Y301817D01*
X2117794Y304122D01*
X2117680Y306450D01*
X2117680Y353950D01*
X2117794Y356278D01*
X2118136Y358583D01*
X2118703Y360844D01*
X2119488Y363039D01*
X2120484Y365146D01*
X2121683Y367145D01*
X2123071Y369017D01*
X2124636Y370744D01*
X2126363Y372309D01*
X2128235Y373697D01*
X2130234Y374896D01*
X2132341Y375892D01*
X2134536Y376677D01*
X2136797Y377244D01*
X2139102Y377586D01*
X2141430Y377700D01*
X2191430Y377700D01*
X2193758Y377586D01*
X2193758Y377586D01*
G37*
D18*
X2166430Y330200D03*
D13*
G36*
X2011258Y377586D02*
X2013563Y377244D01*
X2015824Y376677D01*
X2018019Y375892D01*
X2020126Y374896D01*
X2022125Y373697D01*
X2023997Y372309D01*
X2025724Y370744D01*
X2027289Y369017D01*
X2028677Y367145D01*
X2029876Y365146D01*
X2030872Y363039D01*
X2031657Y360844D01*
X2032224Y358583D01*
X2032566Y356278D01*
X2032680Y353950D01*
X2032680Y306450D01*
X2032566Y304122D01*
X2032224Y301817D01*
X2031657Y299556D01*
X2030872Y297361D01*
X2029876Y295254D01*
X2028677Y293255D01*
X2027289Y291383D01*
X2025724Y289656D01*
X2023997Y288091D01*
X2022125Y286703D01*
X2020126Y285504D01*
X2018019Y284508D01*
X2015824Y283723D01*
X2013563Y283156D01*
X2011258Y282814D01*
X2008930Y282700D01*
X1958930Y282700D01*
X1956602Y282814D01*
X1954297Y283156D01*
X1952036Y283723D01*
X1949841Y284508D01*
X1947734Y285504D01*
X1945735Y286703D01*
X1943863Y288091D01*
X1942136Y289656D01*
X1940571Y291383D01*
X1939183Y293255D01*
X1937984Y295254D01*
X1936988Y297361D01*
X1936203Y299556D01*
X1935636Y301817D01*
X1935294Y304122D01*
X1935180Y306450D01*
X1935180Y353950D01*
X1935294Y356278D01*
X1935636Y358583D01*
X1936203Y360844D01*
X1936988Y363039D01*
X1937984Y365146D01*
X1939183Y367145D01*
X1940571Y369017D01*
X1942136Y370744D01*
X1943863Y372309D01*
X1945735Y373697D01*
X1947734Y374896D01*
X1949841Y375892D01*
X1952036Y376677D01*
X1954297Y377244D01*
X1956602Y377586D01*
X1958930Y377700D01*
X2008930Y377700D01*
X2011258Y377586D01*
X2011258Y377586D01*
G37*
D18*
X1983930Y330200D03*
G04 #@! TD*
D13*
G04 #@! TO.C,R8*
G36*
X2201378Y555386D02*
X2203683Y555044D01*
X2205944Y554477D01*
X2208139Y553692D01*
X2210246Y552696D01*
X2212245Y551497D01*
X2214117Y550109D01*
X2215844Y548544D01*
X2217409Y546817D01*
X2218797Y544945D01*
X2219996Y542946D01*
X2220992Y540839D01*
X2221777Y538644D01*
X2222344Y536383D01*
X2222686Y534078D01*
X2222800Y531750D01*
X2222800Y484250D01*
X2222686Y481922D01*
X2222344Y479617D01*
X2221777Y477356D01*
X2220992Y475161D01*
X2219996Y473054D01*
X2218797Y471055D01*
X2217409Y469183D01*
X2215844Y467456D01*
X2214117Y465891D01*
X2212245Y464503D01*
X2210246Y463304D01*
X2208139Y462308D01*
X2205944Y461523D01*
X2203683Y460956D01*
X2201378Y460614D01*
X2199050Y460500D01*
X2149050Y460500D01*
X2146722Y460614D01*
X2144417Y460956D01*
X2142156Y461523D01*
X2139961Y462308D01*
X2137854Y463304D01*
X2135855Y464503D01*
X2133983Y465891D01*
X2132256Y467456D01*
X2130691Y469183D01*
X2129303Y471055D01*
X2128104Y473054D01*
X2127108Y475161D01*
X2126323Y477356D01*
X2125756Y479617D01*
X2125414Y481922D01*
X2125300Y484250D01*
X2125300Y531750D01*
X2125414Y534078D01*
X2125756Y536383D01*
X2126323Y538644D01*
X2127108Y540839D01*
X2128104Y542946D01*
X2129303Y544945D01*
X2130691Y546817D01*
X2132256Y548544D01*
X2133983Y550109D01*
X2135855Y551497D01*
X2137854Y552696D01*
X2139961Y553692D01*
X2142156Y554477D01*
X2144417Y555044D01*
X2146722Y555386D01*
X2149050Y555500D01*
X2199050Y555500D01*
X2201378Y555386D01*
X2201378Y555386D01*
G37*
D18*
X2174050Y508000D03*
D13*
G36*
X2018878Y555386D02*
X2021183Y555044D01*
X2023444Y554477D01*
X2025639Y553692D01*
X2027746Y552696D01*
X2029745Y551497D01*
X2031617Y550109D01*
X2033344Y548544D01*
X2034909Y546817D01*
X2036297Y544945D01*
X2037496Y542946D01*
X2038492Y540839D01*
X2039277Y538644D01*
X2039844Y536383D01*
X2040186Y534078D01*
X2040300Y531750D01*
X2040300Y484250D01*
X2040186Y481922D01*
X2039844Y479617D01*
X2039277Y477356D01*
X2038492Y475161D01*
X2037496Y473054D01*
X2036297Y471055D01*
X2034909Y469183D01*
X2033344Y467456D01*
X2031617Y465891D01*
X2029745Y464503D01*
X2027746Y463304D01*
X2025639Y462308D01*
X2023444Y461523D01*
X2021183Y460956D01*
X2018878Y460614D01*
X2016550Y460500D01*
X1966550Y460500D01*
X1964222Y460614D01*
X1961917Y460956D01*
X1959656Y461523D01*
X1957461Y462308D01*
X1955354Y463304D01*
X1953355Y464503D01*
X1951483Y465891D01*
X1949756Y467456D01*
X1948191Y469183D01*
X1946803Y471055D01*
X1945604Y473054D01*
X1944608Y475161D01*
X1943823Y477356D01*
X1943256Y479617D01*
X1942914Y481922D01*
X1942800Y484250D01*
X1942800Y531750D01*
X1942914Y534078D01*
X1943256Y536383D01*
X1943823Y538644D01*
X1944608Y540839D01*
X1945604Y542946D01*
X1946803Y544945D01*
X1948191Y546817D01*
X1949756Y548544D01*
X1951483Y550109D01*
X1953355Y551497D01*
X1955354Y552696D01*
X1957461Y553692D01*
X1959656Y554477D01*
X1961917Y555044D01*
X1964222Y555386D01*
X1966550Y555500D01*
X2016550Y555500D01*
X2018878Y555386D01*
X2018878Y555386D01*
G37*
D18*
X1991550Y508000D03*
G04 #@! TD*
D13*
G04 #@! TO.C,R7*
G36*
X1896578Y999886D02*
X1898883Y999544D01*
X1901144Y998977D01*
X1903339Y998192D01*
X1905446Y997196D01*
X1907445Y995997D01*
X1909317Y994609D01*
X1911044Y993044D01*
X1912609Y991317D01*
X1913997Y989445D01*
X1915196Y987446D01*
X1916192Y985339D01*
X1916977Y983144D01*
X1917544Y980883D01*
X1917886Y978578D01*
X1918000Y976250D01*
X1918000Y928750D01*
X1917886Y926422D01*
X1917544Y924117D01*
X1916977Y921856D01*
X1916192Y919661D01*
X1915196Y917554D01*
X1913997Y915555D01*
X1912609Y913683D01*
X1911044Y911956D01*
X1909317Y910391D01*
X1907445Y909003D01*
X1905446Y907804D01*
X1903339Y906808D01*
X1901144Y906023D01*
X1898883Y905456D01*
X1896578Y905114D01*
X1894250Y905000D01*
X1844250Y905000D01*
X1841922Y905114D01*
X1839617Y905456D01*
X1837356Y906023D01*
X1835161Y906808D01*
X1833054Y907804D01*
X1831055Y909003D01*
X1829183Y910391D01*
X1827456Y911956D01*
X1825891Y913683D01*
X1824503Y915555D01*
X1823304Y917554D01*
X1822308Y919661D01*
X1821523Y921856D01*
X1820956Y924117D01*
X1820614Y926422D01*
X1820500Y928750D01*
X1820500Y976250D01*
X1820614Y978578D01*
X1820956Y980883D01*
X1821523Y983144D01*
X1822308Y985339D01*
X1823304Y987446D01*
X1824503Y989445D01*
X1825891Y991317D01*
X1827456Y993044D01*
X1829183Y994609D01*
X1831055Y995997D01*
X1833054Y997196D01*
X1835161Y998192D01*
X1837356Y998977D01*
X1839617Y999544D01*
X1841922Y999886D01*
X1844250Y1000000D01*
X1894250Y1000000D01*
X1896578Y999886D01*
X1896578Y999886D01*
G37*
D18*
X1869250Y952500D03*
D13*
G36*
X1714078Y999886D02*
X1716383Y999544D01*
X1718644Y998977D01*
X1720839Y998192D01*
X1722946Y997196D01*
X1724945Y995997D01*
X1726817Y994609D01*
X1728544Y993044D01*
X1730109Y991317D01*
X1731497Y989445D01*
X1732696Y987446D01*
X1733692Y985339D01*
X1734477Y983144D01*
X1735044Y980883D01*
X1735386Y978578D01*
X1735500Y976250D01*
X1735500Y928750D01*
X1735386Y926422D01*
X1735044Y924117D01*
X1734477Y921856D01*
X1733692Y919661D01*
X1732696Y917554D01*
X1731497Y915555D01*
X1730109Y913683D01*
X1728544Y911956D01*
X1726817Y910391D01*
X1724945Y909003D01*
X1722946Y907804D01*
X1720839Y906808D01*
X1718644Y906023D01*
X1716383Y905456D01*
X1714078Y905114D01*
X1711750Y905000D01*
X1661750Y905000D01*
X1659422Y905114D01*
X1657117Y905456D01*
X1654856Y906023D01*
X1652661Y906808D01*
X1650554Y907804D01*
X1648555Y909003D01*
X1646683Y910391D01*
X1644956Y911956D01*
X1643391Y913683D01*
X1642003Y915555D01*
X1640804Y917554D01*
X1639808Y919661D01*
X1639023Y921856D01*
X1638456Y924117D01*
X1638114Y926422D01*
X1638000Y928750D01*
X1638000Y976250D01*
X1638114Y978578D01*
X1638456Y980883D01*
X1639023Y983144D01*
X1639808Y985339D01*
X1640804Y987446D01*
X1642003Y989445D01*
X1643391Y991317D01*
X1644956Y993044D01*
X1646683Y994609D01*
X1648555Y995997D01*
X1650554Y997196D01*
X1652661Y998192D01*
X1654856Y998977D01*
X1657117Y999544D01*
X1659422Y999886D01*
X1661750Y1000000D01*
X1711750Y1000000D01*
X1714078Y999886D01*
X1714078Y999886D01*
G37*
D18*
X1686750Y952500D03*
G04 #@! TD*
D13*
G04 #@! TO.C,R6*
G36*
X2988778Y1622186D02*
X2991083Y1621844D01*
X2993344Y1621277D01*
X2995539Y1620492D01*
X2997646Y1619496D01*
X2999645Y1618297D01*
X3001517Y1616909D01*
X3003244Y1615344D01*
X3004809Y1613617D01*
X3006197Y1611745D01*
X3007396Y1609746D01*
X3008392Y1607639D01*
X3009177Y1605444D01*
X3009744Y1603183D01*
X3010086Y1600878D01*
X3010200Y1598550D01*
X3010200Y1551050D01*
X3010086Y1548722D01*
X3009744Y1546417D01*
X3009177Y1544156D01*
X3008392Y1541961D01*
X3007396Y1539854D01*
X3006197Y1537855D01*
X3004809Y1535983D01*
X3003244Y1534256D01*
X3001517Y1532691D01*
X2999645Y1531303D01*
X2997646Y1530104D01*
X2995539Y1529108D01*
X2993344Y1528323D01*
X2991083Y1527756D01*
X2988778Y1527414D01*
X2986450Y1527300D01*
X2936450Y1527300D01*
X2934122Y1527414D01*
X2931817Y1527756D01*
X2929556Y1528323D01*
X2927361Y1529108D01*
X2925254Y1530104D01*
X2923255Y1531303D01*
X2921383Y1532691D01*
X2919656Y1534256D01*
X2918091Y1535983D01*
X2916703Y1537855D01*
X2915504Y1539854D01*
X2914508Y1541961D01*
X2913723Y1544156D01*
X2913156Y1546417D01*
X2912814Y1548722D01*
X2912700Y1551050D01*
X2912700Y1598550D01*
X2912814Y1600878D01*
X2913156Y1603183D01*
X2913723Y1605444D01*
X2914508Y1607639D01*
X2915504Y1609746D01*
X2916703Y1611745D01*
X2918091Y1613617D01*
X2919656Y1615344D01*
X2921383Y1616909D01*
X2923255Y1618297D01*
X2925254Y1619496D01*
X2927361Y1620492D01*
X2929556Y1621277D01*
X2931817Y1621844D01*
X2934122Y1622186D01*
X2936450Y1622300D01*
X2986450Y1622300D01*
X2988778Y1622186D01*
X2988778Y1622186D01*
G37*
D18*
X2961450Y1574800D03*
D13*
G36*
X2806278Y1622186D02*
X2808583Y1621844D01*
X2810844Y1621277D01*
X2813039Y1620492D01*
X2815146Y1619496D01*
X2817145Y1618297D01*
X2819017Y1616909D01*
X2820744Y1615344D01*
X2822309Y1613617D01*
X2823697Y1611745D01*
X2824896Y1609746D01*
X2825892Y1607639D01*
X2826677Y1605444D01*
X2827244Y1603183D01*
X2827586Y1600878D01*
X2827700Y1598550D01*
X2827700Y1551050D01*
X2827586Y1548722D01*
X2827244Y1546417D01*
X2826677Y1544156D01*
X2825892Y1541961D01*
X2824896Y1539854D01*
X2823697Y1537855D01*
X2822309Y1535983D01*
X2820744Y1534256D01*
X2819017Y1532691D01*
X2817145Y1531303D01*
X2815146Y1530104D01*
X2813039Y1529108D01*
X2810844Y1528323D01*
X2808583Y1527756D01*
X2806278Y1527414D01*
X2803950Y1527300D01*
X2753950Y1527300D01*
X2751622Y1527414D01*
X2749317Y1527756D01*
X2747056Y1528323D01*
X2744861Y1529108D01*
X2742754Y1530104D01*
X2740755Y1531303D01*
X2738883Y1532691D01*
X2737156Y1534256D01*
X2735591Y1535983D01*
X2734203Y1537855D01*
X2733004Y1539854D01*
X2732008Y1541961D01*
X2731223Y1544156D01*
X2730656Y1546417D01*
X2730314Y1548722D01*
X2730200Y1551050D01*
X2730200Y1598550D01*
X2730314Y1600878D01*
X2730656Y1603183D01*
X2731223Y1605444D01*
X2732008Y1607639D01*
X2733004Y1609746D01*
X2734203Y1611745D01*
X2735591Y1613617D01*
X2737156Y1615344D01*
X2738883Y1616909D01*
X2740755Y1618297D01*
X2742754Y1619496D01*
X2744861Y1620492D01*
X2747056Y1621277D01*
X2749317Y1621844D01*
X2751622Y1622186D01*
X2753950Y1622300D01*
X2803950Y1622300D01*
X2806278Y1622186D01*
X2806278Y1622186D01*
G37*
D18*
X2778950Y1574800D03*
G04 #@! TD*
D13*
G04 #@! TO.C,R5*
G36*
X2988778Y1457086D02*
X2991083Y1456744D01*
X2993344Y1456177D01*
X2995539Y1455392D01*
X2997646Y1454396D01*
X2999645Y1453197D01*
X3001517Y1451809D01*
X3003244Y1450244D01*
X3004809Y1448517D01*
X3006197Y1446645D01*
X3007396Y1444646D01*
X3008392Y1442539D01*
X3009177Y1440344D01*
X3009744Y1438083D01*
X3010086Y1435778D01*
X3010200Y1433450D01*
X3010200Y1385950D01*
X3010086Y1383622D01*
X3009744Y1381317D01*
X3009177Y1379056D01*
X3008392Y1376861D01*
X3007396Y1374754D01*
X3006197Y1372755D01*
X3004809Y1370883D01*
X3003244Y1369156D01*
X3001517Y1367591D01*
X2999645Y1366203D01*
X2997646Y1365004D01*
X2995539Y1364008D01*
X2993344Y1363223D01*
X2991083Y1362656D01*
X2988778Y1362314D01*
X2986450Y1362200D01*
X2936450Y1362200D01*
X2934122Y1362314D01*
X2931817Y1362656D01*
X2929556Y1363223D01*
X2927361Y1364008D01*
X2925254Y1365004D01*
X2923255Y1366203D01*
X2921383Y1367591D01*
X2919656Y1369156D01*
X2918091Y1370883D01*
X2916703Y1372755D01*
X2915504Y1374754D01*
X2914508Y1376861D01*
X2913723Y1379056D01*
X2913156Y1381317D01*
X2912814Y1383622D01*
X2912700Y1385950D01*
X2912700Y1433450D01*
X2912814Y1435778D01*
X2913156Y1438083D01*
X2913723Y1440344D01*
X2914508Y1442539D01*
X2915504Y1444646D01*
X2916703Y1446645D01*
X2918091Y1448517D01*
X2919656Y1450244D01*
X2921383Y1451809D01*
X2923255Y1453197D01*
X2925254Y1454396D01*
X2927361Y1455392D01*
X2929556Y1456177D01*
X2931817Y1456744D01*
X2934122Y1457086D01*
X2936450Y1457200D01*
X2986450Y1457200D01*
X2988778Y1457086D01*
X2988778Y1457086D01*
G37*
D18*
X2961450Y1409700D03*
D13*
G36*
X2806278Y1457086D02*
X2808583Y1456744D01*
X2810844Y1456177D01*
X2813039Y1455392D01*
X2815146Y1454396D01*
X2817145Y1453197D01*
X2819017Y1451809D01*
X2820744Y1450244D01*
X2822309Y1448517D01*
X2823697Y1446645D01*
X2824896Y1444646D01*
X2825892Y1442539D01*
X2826677Y1440344D01*
X2827244Y1438083D01*
X2827586Y1435778D01*
X2827700Y1433450D01*
X2827700Y1385950D01*
X2827586Y1383622D01*
X2827244Y1381317D01*
X2826677Y1379056D01*
X2825892Y1376861D01*
X2824896Y1374754D01*
X2823697Y1372755D01*
X2822309Y1370883D01*
X2820744Y1369156D01*
X2819017Y1367591D01*
X2817145Y1366203D01*
X2815146Y1365004D01*
X2813039Y1364008D01*
X2810844Y1363223D01*
X2808583Y1362656D01*
X2806278Y1362314D01*
X2803950Y1362200D01*
X2753950Y1362200D01*
X2751622Y1362314D01*
X2749317Y1362656D01*
X2747056Y1363223D01*
X2744861Y1364008D01*
X2742754Y1365004D01*
X2740755Y1366203D01*
X2738883Y1367591D01*
X2737156Y1369156D01*
X2735591Y1370883D01*
X2734203Y1372755D01*
X2733004Y1374754D01*
X2732008Y1376861D01*
X2731223Y1379056D01*
X2730656Y1381317D01*
X2730314Y1383622D01*
X2730200Y1385950D01*
X2730200Y1433450D01*
X2730314Y1435778D01*
X2730656Y1438083D01*
X2731223Y1440344D01*
X2732008Y1442539D01*
X2733004Y1444646D01*
X2734203Y1446645D01*
X2735591Y1448517D01*
X2737156Y1450244D01*
X2738883Y1451809D01*
X2740755Y1453197D01*
X2742754Y1454396D01*
X2744861Y1455392D01*
X2747056Y1456177D01*
X2749317Y1456744D01*
X2751622Y1457086D01*
X2753950Y1457200D01*
X2803950Y1457200D01*
X2806278Y1457086D01*
X2806278Y1457086D01*
G37*
D18*
X2778950Y1409700D03*
G04 #@! TD*
D13*
G04 #@! TO.C,R4*
G36*
X952078Y1266586D02*
X954383Y1266244D01*
X956644Y1265677D01*
X958839Y1264892D01*
X960946Y1263896D01*
X962945Y1262697D01*
X964817Y1261309D01*
X966544Y1259744D01*
X968109Y1258017D01*
X969497Y1256145D01*
X970696Y1254146D01*
X971692Y1252039D01*
X972477Y1249844D01*
X973044Y1247583D01*
X973386Y1245278D01*
X973500Y1242950D01*
X973500Y1195450D01*
X973386Y1193122D01*
X973044Y1190817D01*
X972477Y1188556D01*
X971692Y1186361D01*
X970696Y1184254D01*
X969497Y1182255D01*
X968109Y1180383D01*
X966544Y1178656D01*
X964817Y1177091D01*
X962945Y1175703D01*
X960946Y1174504D01*
X958839Y1173508D01*
X956644Y1172723D01*
X954383Y1172156D01*
X952078Y1171814D01*
X949750Y1171700D01*
X899750Y1171700D01*
X897422Y1171814D01*
X895117Y1172156D01*
X892856Y1172723D01*
X890661Y1173508D01*
X888554Y1174504D01*
X886555Y1175703D01*
X884683Y1177091D01*
X882956Y1178656D01*
X881391Y1180383D01*
X880003Y1182255D01*
X878804Y1184254D01*
X877808Y1186361D01*
X877023Y1188556D01*
X876456Y1190817D01*
X876114Y1193122D01*
X876000Y1195450D01*
X876000Y1242950D01*
X876114Y1245278D01*
X876456Y1247583D01*
X877023Y1249844D01*
X877808Y1252039D01*
X878804Y1254146D01*
X880003Y1256145D01*
X881391Y1258017D01*
X882956Y1259744D01*
X884683Y1261309D01*
X886555Y1262697D01*
X888554Y1263896D01*
X890661Y1264892D01*
X892856Y1265677D01*
X895117Y1266244D01*
X897422Y1266586D01*
X899750Y1266700D01*
X949750Y1266700D01*
X952078Y1266586D01*
X952078Y1266586D01*
G37*
D18*
X924750Y1219200D03*
D13*
G36*
X1134578Y1266586D02*
X1136883Y1266244D01*
X1139144Y1265677D01*
X1141339Y1264892D01*
X1143446Y1263896D01*
X1145445Y1262697D01*
X1147317Y1261309D01*
X1149044Y1259744D01*
X1150609Y1258017D01*
X1151997Y1256145D01*
X1153196Y1254146D01*
X1154192Y1252039D01*
X1154977Y1249844D01*
X1155544Y1247583D01*
X1155886Y1245278D01*
X1156000Y1242950D01*
X1156000Y1195450D01*
X1155886Y1193122D01*
X1155544Y1190817D01*
X1154977Y1188556D01*
X1154192Y1186361D01*
X1153196Y1184254D01*
X1151997Y1182255D01*
X1150609Y1180383D01*
X1149044Y1178656D01*
X1147317Y1177091D01*
X1145445Y1175703D01*
X1143446Y1174504D01*
X1141339Y1173508D01*
X1139144Y1172723D01*
X1136883Y1172156D01*
X1134578Y1171814D01*
X1132250Y1171700D01*
X1082250Y1171700D01*
X1079922Y1171814D01*
X1077617Y1172156D01*
X1075356Y1172723D01*
X1073161Y1173508D01*
X1071054Y1174504D01*
X1069055Y1175703D01*
X1067183Y1177091D01*
X1065456Y1178656D01*
X1063891Y1180383D01*
X1062503Y1182255D01*
X1061304Y1184254D01*
X1060308Y1186361D01*
X1059523Y1188556D01*
X1058956Y1190817D01*
X1058614Y1193122D01*
X1058500Y1195450D01*
X1058500Y1242950D01*
X1058614Y1245278D01*
X1058956Y1247583D01*
X1059523Y1249844D01*
X1060308Y1252039D01*
X1061304Y1254146D01*
X1062503Y1256145D01*
X1063891Y1258017D01*
X1065456Y1259744D01*
X1067183Y1261309D01*
X1069055Y1262697D01*
X1071054Y1263896D01*
X1073161Y1264892D01*
X1075356Y1265677D01*
X1077617Y1266244D01*
X1079922Y1266586D01*
X1082250Y1266700D01*
X1132250Y1266700D01*
X1134578Y1266586D01*
X1134578Y1266586D01*
G37*
D18*
X1107250Y1219200D03*
G04 #@! TD*
D13*
G04 #@! TO.C,R3*
G36*
X1282278Y1266586D02*
X1284583Y1266244D01*
X1286844Y1265677D01*
X1289039Y1264892D01*
X1291146Y1263896D01*
X1293145Y1262697D01*
X1295017Y1261309D01*
X1296744Y1259744D01*
X1298309Y1258017D01*
X1299697Y1256145D01*
X1300896Y1254146D01*
X1301892Y1252039D01*
X1302677Y1249844D01*
X1303244Y1247583D01*
X1303586Y1245278D01*
X1303700Y1242950D01*
X1303700Y1195450D01*
X1303586Y1193122D01*
X1303244Y1190817D01*
X1302677Y1188556D01*
X1301892Y1186361D01*
X1300896Y1184254D01*
X1299697Y1182255D01*
X1298309Y1180383D01*
X1296744Y1178656D01*
X1295017Y1177091D01*
X1293145Y1175703D01*
X1291146Y1174504D01*
X1289039Y1173508D01*
X1286844Y1172723D01*
X1284583Y1172156D01*
X1282278Y1171814D01*
X1279950Y1171700D01*
X1229950Y1171700D01*
X1227622Y1171814D01*
X1225317Y1172156D01*
X1223056Y1172723D01*
X1220861Y1173508D01*
X1218754Y1174504D01*
X1216755Y1175703D01*
X1214883Y1177091D01*
X1213156Y1178656D01*
X1211591Y1180383D01*
X1210203Y1182255D01*
X1209004Y1184254D01*
X1208008Y1186361D01*
X1207223Y1188556D01*
X1206656Y1190817D01*
X1206314Y1193122D01*
X1206200Y1195450D01*
X1206200Y1242950D01*
X1206314Y1245278D01*
X1206656Y1247583D01*
X1207223Y1249844D01*
X1208008Y1252039D01*
X1209004Y1254146D01*
X1210203Y1256145D01*
X1211591Y1258017D01*
X1213156Y1259744D01*
X1214883Y1261309D01*
X1216755Y1262697D01*
X1218754Y1263896D01*
X1220861Y1264892D01*
X1223056Y1265677D01*
X1225317Y1266244D01*
X1227622Y1266586D01*
X1229950Y1266700D01*
X1279950Y1266700D01*
X1282278Y1266586D01*
X1282278Y1266586D01*
G37*
D18*
X1254950Y1219200D03*
D13*
G36*
X1464778Y1266586D02*
X1467083Y1266244D01*
X1469344Y1265677D01*
X1471539Y1264892D01*
X1473646Y1263896D01*
X1475645Y1262697D01*
X1477517Y1261309D01*
X1479244Y1259744D01*
X1480809Y1258017D01*
X1482197Y1256145D01*
X1483396Y1254146D01*
X1484392Y1252039D01*
X1485177Y1249844D01*
X1485744Y1247583D01*
X1486086Y1245278D01*
X1486200Y1242950D01*
X1486200Y1195450D01*
X1486086Y1193122D01*
X1485744Y1190817D01*
X1485177Y1188556D01*
X1484392Y1186361D01*
X1483396Y1184254D01*
X1482197Y1182255D01*
X1480809Y1180383D01*
X1479244Y1178656D01*
X1477517Y1177091D01*
X1475645Y1175703D01*
X1473646Y1174504D01*
X1471539Y1173508D01*
X1469344Y1172723D01*
X1467083Y1172156D01*
X1464778Y1171814D01*
X1462450Y1171700D01*
X1412450Y1171700D01*
X1410122Y1171814D01*
X1407817Y1172156D01*
X1405556Y1172723D01*
X1403361Y1173508D01*
X1401254Y1174504D01*
X1399255Y1175703D01*
X1397383Y1177091D01*
X1395656Y1178656D01*
X1394091Y1180383D01*
X1392703Y1182255D01*
X1391504Y1184254D01*
X1390508Y1186361D01*
X1389723Y1188556D01*
X1389156Y1190817D01*
X1388814Y1193122D01*
X1388700Y1195450D01*
X1388700Y1242950D01*
X1388814Y1245278D01*
X1389156Y1247583D01*
X1389723Y1249844D01*
X1390508Y1252039D01*
X1391504Y1254146D01*
X1392703Y1256145D01*
X1394091Y1258017D01*
X1395656Y1259744D01*
X1397383Y1261309D01*
X1399255Y1262697D01*
X1401254Y1263896D01*
X1403361Y1264892D01*
X1405556Y1265677D01*
X1407817Y1266244D01*
X1410122Y1266586D01*
X1412450Y1266700D01*
X1462450Y1266700D01*
X1464778Y1266586D01*
X1464778Y1266586D01*
G37*
D18*
X1437450Y1219200D03*
G04 #@! TD*
D13*
G04 #@! TO.C,R1*
G36*
X318178Y1328986D02*
X320483Y1328644D01*
X322744Y1328077D01*
X324939Y1327292D01*
X327046Y1326296D01*
X329045Y1325097D01*
X330917Y1323709D01*
X332644Y1322144D01*
X334209Y1320417D01*
X335597Y1318545D01*
X336796Y1316546D01*
X337792Y1314439D01*
X338577Y1312244D01*
X339144Y1309983D01*
X339486Y1307678D01*
X339600Y1305350D01*
X339600Y1255350D01*
X339486Y1253022D01*
X339144Y1250717D01*
X338577Y1248456D01*
X337792Y1246261D01*
X336796Y1244154D01*
X335597Y1242155D01*
X334209Y1240283D01*
X332644Y1238556D01*
X330917Y1236991D01*
X329045Y1235603D01*
X327046Y1234404D01*
X324939Y1233408D01*
X322744Y1232623D01*
X320483Y1232056D01*
X318178Y1231714D01*
X315850Y1231600D01*
X268350Y1231600D01*
X266022Y1231714D01*
X263717Y1232056D01*
X261456Y1232623D01*
X259261Y1233408D01*
X257154Y1234404D01*
X255155Y1235603D01*
X253283Y1236991D01*
X251556Y1238556D01*
X249991Y1240283D01*
X248603Y1242155D01*
X247404Y1244154D01*
X246408Y1246261D01*
X245623Y1248456D01*
X245056Y1250717D01*
X244714Y1253022D01*
X244600Y1255350D01*
X244600Y1305350D01*
X244714Y1307678D01*
X245056Y1309983D01*
X245623Y1312244D01*
X246408Y1314439D01*
X247404Y1316546D01*
X248603Y1318545D01*
X249991Y1320417D01*
X251556Y1322144D01*
X253283Y1323709D01*
X255155Y1325097D01*
X257154Y1326296D01*
X259261Y1327292D01*
X261456Y1328077D01*
X263717Y1328644D01*
X266022Y1328986D01*
X268350Y1329100D01*
X315850Y1329100D01*
X318178Y1328986D01*
X318178Y1328986D01*
G37*
D18*
X292100Y1280350D03*
D13*
G36*
X318178Y1511486D02*
X320483Y1511144D01*
X322744Y1510577D01*
X324939Y1509792D01*
X327046Y1508796D01*
X329045Y1507597D01*
X330917Y1506209D01*
X332644Y1504644D01*
X334209Y1502917D01*
X335597Y1501045D01*
X336796Y1499046D01*
X337792Y1496939D01*
X338577Y1494744D01*
X339144Y1492483D01*
X339486Y1490178D01*
X339600Y1487850D01*
X339600Y1437850D01*
X339486Y1435522D01*
X339144Y1433217D01*
X338577Y1430956D01*
X337792Y1428761D01*
X336796Y1426654D01*
X335597Y1424655D01*
X334209Y1422783D01*
X332644Y1421056D01*
X330917Y1419491D01*
X329045Y1418103D01*
X327046Y1416904D01*
X324939Y1415908D01*
X322744Y1415123D01*
X320483Y1414556D01*
X318178Y1414214D01*
X315850Y1414100D01*
X268350Y1414100D01*
X266022Y1414214D01*
X263717Y1414556D01*
X261456Y1415123D01*
X259261Y1415908D01*
X257154Y1416904D01*
X255155Y1418103D01*
X253283Y1419491D01*
X251556Y1421056D01*
X249991Y1422783D01*
X248603Y1424655D01*
X247404Y1426654D01*
X246408Y1428761D01*
X245623Y1430956D01*
X245056Y1433217D01*
X244714Y1435522D01*
X244600Y1437850D01*
X244600Y1487850D01*
X244714Y1490178D01*
X245056Y1492483D01*
X245623Y1494744D01*
X246408Y1496939D01*
X247404Y1499046D01*
X248603Y1501045D01*
X249991Y1502917D01*
X251556Y1504644D01*
X253283Y1506209D01*
X255155Y1507597D01*
X257154Y1508796D01*
X259261Y1509792D01*
X261456Y1510577D01*
X263717Y1511144D01*
X266022Y1511486D01*
X268350Y1511600D01*
X315850Y1511600D01*
X318178Y1511486D01*
X318178Y1511486D01*
G37*
D18*
X292100Y1462850D03*
G04 #@! TD*
D23*
G04 #@! TO.C,L1*
X1244700Y1917700D03*
X939700Y1917700D03*
G04 #@! TD*
D16*
G04 #@! TO.C,J2*
X3213100Y266700D03*
X3213100Y520700D03*
X3213100Y774700D03*
D17*
X3213100Y1028700D03*
G04 #@! TD*
D13*
G04 #@! TO.C,C17*
G36*
X2352585Y342032D02*
X2354770Y341708D01*
X2356911Y341171D01*
X2358990Y340427D01*
X2360986Y339483D01*
X2362880Y338348D01*
X2364654Y337033D01*
X2366290Y335550D01*
X2367773Y333914D01*
X2369088Y332140D01*
X2370223Y330246D01*
X2371167Y328250D01*
X2371911Y326171D01*
X2372448Y324030D01*
X2372772Y321845D01*
X2372880Y319640D01*
X2372880Y269640D01*
X2372772Y267435D01*
X2372448Y265251D01*
X2371911Y263109D01*
X2371167Y261030D01*
X2370223Y259034D01*
X2369088Y257140D01*
X2367773Y255366D01*
X2366290Y253730D01*
X2364654Y252247D01*
X2362880Y250932D01*
X2360986Y249797D01*
X2358990Y248853D01*
X2356911Y248109D01*
X2354770Y247572D01*
X2352585Y247248D01*
X2350380Y247140D01*
X2305380Y247140D01*
X2303175Y247248D01*
X2300991Y247572D01*
X2298849Y248109D01*
X2296770Y248853D01*
X2294774Y249797D01*
X2292880Y250932D01*
X2291106Y252247D01*
X2289470Y253730D01*
X2287987Y255366D01*
X2286672Y257140D01*
X2285537Y259034D01*
X2284593Y261030D01*
X2283849Y263109D01*
X2283312Y265251D01*
X2282988Y267435D01*
X2282880Y269640D01*
X2282880Y319640D01*
X2282988Y321845D01*
X2283312Y324030D01*
X2283849Y326171D01*
X2284593Y328250D01*
X2285537Y330246D01*
X2286672Y332140D01*
X2287987Y333914D01*
X2289470Y335550D01*
X2291106Y337033D01*
X2292880Y338348D01*
X2294774Y339483D01*
X2296770Y340427D01*
X2298849Y341171D01*
X2300991Y341708D01*
X2303175Y342032D01*
X2305380Y342140D01*
X2350380Y342140D01*
X2352585Y342032D01*
X2352585Y342032D01*
G37*
D19*
X2327880Y294640D03*
D13*
G36*
X2507585Y342032D02*
X2509770Y341708D01*
X2511911Y341171D01*
X2513990Y340427D01*
X2515986Y339483D01*
X2517880Y338348D01*
X2519654Y337033D01*
X2521290Y335550D01*
X2522773Y333914D01*
X2524088Y332140D01*
X2525223Y330246D01*
X2526167Y328250D01*
X2526911Y326171D01*
X2527448Y324030D01*
X2527772Y321845D01*
X2527880Y319640D01*
X2527880Y269640D01*
X2527772Y267435D01*
X2527448Y265251D01*
X2526911Y263109D01*
X2526167Y261030D01*
X2525223Y259034D01*
X2524088Y257140D01*
X2522773Y255366D01*
X2521290Y253730D01*
X2519654Y252247D01*
X2517880Y250932D01*
X2515986Y249797D01*
X2513990Y248853D01*
X2511911Y248109D01*
X2509770Y247572D01*
X2507585Y247248D01*
X2505380Y247140D01*
X2460380Y247140D01*
X2458175Y247248D01*
X2455991Y247572D01*
X2453849Y248109D01*
X2451770Y248853D01*
X2449774Y249797D01*
X2447880Y250932D01*
X2446106Y252247D01*
X2444470Y253730D01*
X2442987Y255366D01*
X2441672Y257140D01*
X2440537Y259034D01*
X2439593Y261030D01*
X2438849Y263109D01*
X2438312Y265251D01*
X2437988Y267435D01*
X2437880Y269640D01*
X2437880Y319640D01*
X2437988Y321845D01*
X2438312Y324030D01*
X2438849Y326171D01*
X2439593Y328250D01*
X2440537Y330246D01*
X2441672Y332140D01*
X2442987Y333914D01*
X2444470Y335550D01*
X2446106Y337033D01*
X2447880Y338348D01*
X2449774Y339483D01*
X2451770Y340427D01*
X2453849Y341171D01*
X2455991Y341708D01*
X2458175Y342032D01*
X2460380Y342140D01*
X2505380Y342140D01*
X2507585Y342032D01*
X2507585Y342032D01*
G37*
D19*
X2482880Y294640D03*
G04 #@! TD*
D13*
G04 #@! TO.C,C16*
G36*
X2360205Y555392D02*
X2362390Y555068D01*
X2364531Y554531D01*
X2366610Y553787D01*
X2368606Y552843D01*
X2370500Y551708D01*
X2372274Y550393D01*
X2373910Y548910D01*
X2375393Y547274D01*
X2376708Y545500D01*
X2377843Y543606D01*
X2378787Y541610D01*
X2379531Y539531D01*
X2380068Y537390D01*
X2380392Y535205D01*
X2380500Y533000D01*
X2380500Y483000D01*
X2380392Y480795D01*
X2380068Y478610D01*
X2379531Y476469D01*
X2378787Y474390D01*
X2377843Y472394D01*
X2376708Y470500D01*
X2375393Y468726D01*
X2373910Y467090D01*
X2372274Y465607D01*
X2370500Y464292D01*
X2368606Y463157D01*
X2366610Y462213D01*
X2364531Y461469D01*
X2362390Y460932D01*
X2360205Y460608D01*
X2358000Y460500D01*
X2313000Y460500D01*
X2310795Y460608D01*
X2308611Y460932D01*
X2306469Y461469D01*
X2304390Y462213D01*
X2302394Y463157D01*
X2300500Y464292D01*
X2298726Y465607D01*
X2297090Y467090D01*
X2295607Y468726D01*
X2294292Y470500D01*
X2293157Y472394D01*
X2292213Y474390D01*
X2291469Y476469D01*
X2290932Y478610D01*
X2290608Y480795D01*
X2290500Y483000D01*
X2290500Y533000D01*
X2290608Y535205D01*
X2290932Y537390D01*
X2291469Y539531D01*
X2292213Y541610D01*
X2293157Y543606D01*
X2294292Y545500D01*
X2295607Y547274D01*
X2297090Y548910D01*
X2298726Y550393D01*
X2300500Y551708D01*
X2302394Y552843D01*
X2304390Y553787D01*
X2306469Y554531D01*
X2308611Y555068D01*
X2310795Y555392D01*
X2313000Y555500D01*
X2358000Y555500D01*
X2360205Y555392D01*
X2360205Y555392D01*
G37*
D19*
X2335500Y508000D03*
D13*
G36*
X2515205Y555392D02*
X2517390Y555068D01*
X2519531Y554531D01*
X2521610Y553787D01*
X2523606Y552843D01*
X2525500Y551708D01*
X2527274Y550393D01*
X2528910Y548910D01*
X2530393Y547274D01*
X2531708Y545500D01*
X2532843Y543606D01*
X2533787Y541610D01*
X2534531Y539531D01*
X2535068Y537390D01*
X2535392Y535205D01*
X2535500Y533000D01*
X2535500Y483000D01*
X2535392Y480795D01*
X2535068Y478610D01*
X2534531Y476469D01*
X2533787Y474390D01*
X2532843Y472394D01*
X2531708Y470500D01*
X2530393Y468726D01*
X2528910Y467090D01*
X2527274Y465607D01*
X2525500Y464292D01*
X2523606Y463157D01*
X2521610Y462213D01*
X2519531Y461469D01*
X2517390Y460932D01*
X2515205Y460608D01*
X2513000Y460500D01*
X2468000Y460500D01*
X2465795Y460608D01*
X2463611Y460932D01*
X2461469Y461469D01*
X2459390Y462213D01*
X2457394Y463157D01*
X2455500Y464292D01*
X2453726Y465607D01*
X2452090Y467090D01*
X2450607Y468726D01*
X2449292Y470500D01*
X2448157Y472394D01*
X2447213Y474390D01*
X2446469Y476469D01*
X2445932Y478610D01*
X2445608Y480795D01*
X2445500Y483000D01*
X2445500Y533000D01*
X2445608Y535205D01*
X2445932Y537390D01*
X2446469Y539531D01*
X2447213Y541610D01*
X2448157Y543606D01*
X2449292Y545500D01*
X2450607Y547274D01*
X2452090Y548910D01*
X2453726Y550393D01*
X2455500Y551708D01*
X2457394Y552843D01*
X2459390Y553787D01*
X2461469Y554531D01*
X2463611Y555068D01*
X2465795Y555392D01*
X2468000Y555500D01*
X2513000Y555500D01*
X2515205Y555392D01*
X2515205Y555392D01*
G37*
D19*
X2490500Y508000D03*
G04 #@! TD*
D13*
G04 #@! TO.C,C15*
G36*
X2414805Y881792D02*
X2416990Y881468D01*
X2419131Y880931D01*
X2421210Y880187D01*
X2423206Y879243D01*
X2425100Y878108D01*
X2426874Y876793D01*
X2428510Y875310D01*
X2429993Y873674D01*
X2431308Y871900D01*
X2432443Y870006D01*
X2433387Y868010D01*
X2434131Y865931D01*
X2434668Y863789D01*
X2434992Y861605D01*
X2435100Y859400D01*
X2435100Y814400D01*
X2434992Y812195D01*
X2434668Y810010D01*
X2434131Y807869D01*
X2433387Y805790D01*
X2432443Y803794D01*
X2431308Y801900D01*
X2429993Y800126D01*
X2428510Y798490D01*
X2426874Y797007D01*
X2425100Y795692D01*
X2423206Y794557D01*
X2421210Y793613D01*
X2419131Y792869D01*
X2416990Y792332D01*
X2414805Y792008D01*
X2412600Y791900D01*
X2362600Y791900D01*
X2360395Y792008D01*
X2358211Y792332D01*
X2356069Y792869D01*
X2353990Y793613D01*
X2351994Y794557D01*
X2350100Y795692D01*
X2348326Y797007D01*
X2346690Y798490D01*
X2345207Y800126D01*
X2343892Y801900D01*
X2342757Y803794D01*
X2341813Y805790D01*
X2341069Y807869D01*
X2340532Y810010D01*
X2340208Y812195D01*
X2340100Y814400D01*
X2340100Y859400D01*
X2340208Y861605D01*
X2340532Y863789D01*
X2341069Y865931D01*
X2341813Y868010D01*
X2342757Y870006D01*
X2343892Y871900D01*
X2345207Y873674D01*
X2346690Y875310D01*
X2348326Y876793D01*
X2350100Y878108D01*
X2351994Y879243D01*
X2353990Y880187D01*
X2356069Y880931D01*
X2358211Y881468D01*
X2360395Y881792D01*
X2362600Y881900D01*
X2412600Y881900D01*
X2414805Y881792D01*
X2414805Y881792D01*
G37*
D19*
X2387600Y836900D03*
D13*
G36*
X2414805Y1036792D02*
X2416990Y1036468D01*
X2419131Y1035931D01*
X2421210Y1035187D01*
X2423206Y1034243D01*
X2425100Y1033108D01*
X2426874Y1031793D01*
X2428510Y1030310D01*
X2429993Y1028674D01*
X2431308Y1026900D01*
X2432443Y1025006D01*
X2433387Y1023010D01*
X2434131Y1020931D01*
X2434668Y1018789D01*
X2434992Y1016605D01*
X2435100Y1014400D01*
X2435100Y969400D01*
X2434992Y967195D01*
X2434668Y965010D01*
X2434131Y962869D01*
X2433387Y960790D01*
X2432443Y958794D01*
X2431308Y956900D01*
X2429993Y955126D01*
X2428510Y953490D01*
X2426874Y952007D01*
X2425100Y950692D01*
X2423206Y949557D01*
X2421210Y948613D01*
X2419131Y947869D01*
X2416990Y947332D01*
X2414805Y947008D01*
X2412600Y946900D01*
X2362600Y946900D01*
X2360395Y947008D01*
X2358211Y947332D01*
X2356069Y947869D01*
X2353990Y948613D01*
X2351994Y949557D01*
X2350100Y950692D01*
X2348326Y952007D01*
X2346690Y953490D01*
X2345207Y955126D01*
X2343892Y956900D01*
X2342757Y958794D01*
X2341813Y960790D01*
X2341069Y962869D01*
X2340532Y965010D01*
X2340208Y967195D01*
X2340100Y969400D01*
X2340100Y1014400D01*
X2340208Y1016605D01*
X2340532Y1018789D01*
X2341069Y1020931D01*
X2341813Y1023010D01*
X2342757Y1025006D01*
X2343892Y1026900D01*
X2345207Y1028674D01*
X2346690Y1030310D01*
X2348326Y1031793D01*
X2350100Y1033108D01*
X2351994Y1034243D01*
X2353990Y1035187D01*
X2356069Y1035931D01*
X2358211Y1036468D01*
X2360395Y1036792D01*
X2362600Y1036900D01*
X2412600Y1036900D01*
X2414805Y1036792D01*
X2414805Y1036792D01*
G37*
D19*
X2387600Y991900D03*
G04 #@! TD*
D13*
G04 #@! TO.C,C14*
G36*
X2973605Y907192D02*
X2975789Y906868D01*
X2977931Y906331D01*
X2980010Y905587D01*
X2982006Y904643D01*
X2983900Y903508D01*
X2985674Y902193D01*
X2987310Y900710D01*
X2988793Y899074D01*
X2990108Y897300D01*
X2991243Y895406D01*
X2992187Y893410D01*
X2992931Y891331D01*
X2993468Y889189D01*
X2993792Y887005D01*
X2993900Y884800D01*
X2993900Y839800D01*
X2993792Y837595D01*
X2993468Y835410D01*
X2992931Y833269D01*
X2992187Y831190D01*
X2991243Y829194D01*
X2990108Y827300D01*
X2988793Y825526D01*
X2987310Y823890D01*
X2985674Y822407D01*
X2983900Y821092D01*
X2982006Y819957D01*
X2980010Y819013D01*
X2977931Y818269D01*
X2975789Y817732D01*
X2973605Y817408D01*
X2971400Y817300D01*
X2921400Y817300D01*
X2919195Y817408D01*
X2917010Y817732D01*
X2914869Y818269D01*
X2912790Y819013D01*
X2910794Y819957D01*
X2908900Y821092D01*
X2907126Y822407D01*
X2905490Y823890D01*
X2904007Y825526D01*
X2902692Y827300D01*
X2901557Y829194D01*
X2900613Y831190D01*
X2899869Y833269D01*
X2899332Y835410D01*
X2899008Y837595D01*
X2898900Y839800D01*
X2898900Y884800D01*
X2899008Y887005D01*
X2899332Y889189D01*
X2899869Y891331D01*
X2900613Y893410D01*
X2901557Y895406D01*
X2902692Y897300D01*
X2904007Y899074D01*
X2905490Y900710D01*
X2907126Y902193D01*
X2908900Y903508D01*
X2910794Y904643D01*
X2912790Y905587D01*
X2914869Y906331D01*
X2917010Y906868D01*
X2919195Y907192D01*
X2921400Y907300D01*
X2971400Y907300D01*
X2973605Y907192D01*
X2973605Y907192D01*
G37*
D19*
X2946400Y862300D03*
D13*
G36*
X2973605Y1062192D02*
X2975789Y1061868D01*
X2977931Y1061331D01*
X2980010Y1060587D01*
X2982006Y1059643D01*
X2983900Y1058508D01*
X2985674Y1057193D01*
X2987310Y1055710D01*
X2988793Y1054074D01*
X2990108Y1052300D01*
X2991243Y1050406D01*
X2992187Y1048410D01*
X2992931Y1046331D01*
X2993468Y1044189D01*
X2993792Y1042005D01*
X2993900Y1039800D01*
X2993900Y994800D01*
X2993792Y992595D01*
X2993468Y990410D01*
X2992931Y988269D01*
X2992187Y986190D01*
X2991243Y984194D01*
X2990108Y982300D01*
X2988793Y980526D01*
X2987310Y978890D01*
X2985674Y977407D01*
X2983900Y976092D01*
X2982006Y974957D01*
X2980010Y974013D01*
X2977931Y973269D01*
X2975789Y972732D01*
X2973605Y972408D01*
X2971400Y972300D01*
X2921400Y972300D01*
X2919195Y972408D01*
X2917010Y972732D01*
X2914869Y973269D01*
X2912790Y974013D01*
X2910794Y974957D01*
X2908900Y976092D01*
X2907126Y977407D01*
X2905490Y978890D01*
X2904007Y980526D01*
X2902692Y982300D01*
X2901557Y984194D01*
X2900613Y986190D01*
X2899869Y988269D01*
X2899332Y990410D01*
X2899008Y992595D01*
X2898900Y994800D01*
X2898900Y1039800D01*
X2899008Y1042005D01*
X2899332Y1044189D01*
X2899869Y1046331D01*
X2900613Y1048410D01*
X2901557Y1050406D01*
X2902692Y1052300D01*
X2904007Y1054074D01*
X2905490Y1055710D01*
X2907126Y1057193D01*
X2908900Y1058508D01*
X2910794Y1059643D01*
X2912790Y1060587D01*
X2914869Y1061331D01*
X2917010Y1061868D01*
X2919195Y1062192D01*
X2921400Y1062300D01*
X2971400Y1062300D01*
X2973605Y1062192D01*
X2973605Y1062192D01*
G37*
D19*
X2946400Y1017300D03*
G04 #@! TD*
D13*
G04 #@! TO.C,C13*
G36*
X2817405Y1787292D02*
X2819589Y1786968D01*
X2821731Y1786431D01*
X2823810Y1785687D01*
X2825806Y1784743D01*
X2827700Y1783608D01*
X2829474Y1782293D01*
X2831110Y1780810D01*
X2832593Y1779174D01*
X2833908Y1777400D01*
X2835043Y1775506D01*
X2835987Y1773510D01*
X2836731Y1771431D01*
X2837268Y1769289D01*
X2837592Y1767105D01*
X2837700Y1764900D01*
X2837700Y1714900D01*
X2837592Y1712695D01*
X2837268Y1710510D01*
X2836731Y1708369D01*
X2835987Y1706290D01*
X2835043Y1704294D01*
X2833908Y1702400D01*
X2832593Y1700626D01*
X2831110Y1698990D01*
X2829474Y1697507D01*
X2827700Y1696192D01*
X2825806Y1695057D01*
X2823810Y1694113D01*
X2821731Y1693369D01*
X2819589Y1692832D01*
X2817405Y1692508D01*
X2815200Y1692400D01*
X2770200Y1692400D01*
X2767995Y1692508D01*
X2765811Y1692832D01*
X2763669Y1693369D01*
X2761590Y1694113D01*
X2759594Y1695057D01*
X2757700Y1696192D01*
X2755926Y1697507D01*
X2754290Y1698990D01*
X2752807Y1700626D01*
X2751492Y1702400D01*
X2750357Y1704294D01*
X2749413Y1706290D01*
X2748669Y1708369D01*
X2748132Y1710510D01*
X2747808Y1712695D01*
X2747700Y1714900D01*
X2747700Y1764900D01*
X2747808Y1767105D01*
X2748132Y1769289D01*
X2748669Y1771431D01*
X2749413Y1773510D01*
X2750357Y1775506D01*
X2751492Y1777400D01*
X2752807Y1779174D01*
X2754290Y1780810D01*
X2755926Y1782293D01*
X2757700Y1783608D01*
X2759594Y1784743D01*
X2761590Y1785687D01*
X2763669Y1786431D01*
X2765811Y1786968D01*
X2767995Y1787292D01*
X2770200Y1787400D01*
X2815200Y1787400D01*
X2817405Y1787292D01*
X2817405Y1787292D01*
G37*
D19*
X2792700Y1739900D03*
D13*
G36*
X2972405Y1787292D02*
X2974589Y1786968D01*
X2976731Y1786431D01*
X2978810Y1785687D01*
X2980806Y1784743D01*
X2982700Y1783608D01*
X2984474Y1782293D01*
X2986110Y1780810D01*
X2987593Y1779174D01*
X2988908Y1777400D01*
X2990043Y1775506D01*
X2990987Y1773510D01*
X2991731Y1771431D01*
X2992268Y1769289D01*
X2992592Y1767105D01*
X2992700Y1764900D01*
X2992700Y1714900D01*
X2992592Y1712695D01*
X2992268Y1710510D01*
X2991731Y1708369D01*
X2990987Y1706290D01*
X2990043Y1704294D01*
X2988908Y1702400D01*
X2987593Y1700626D01*
X2986110Y1698990D01*
X2984474Y1697507D01*
X2982700Y1696192D01*
X2980806Y1695057D01*
X2978810Y1694113D01*
X2976731Y1693369D01*
X2974589Y1692832D01*
X2972405Y1692508D01*
X2970200Y1692400D01*
X2925200Y1692400D01*
X2922995Y1692508D01*
X2920810Y1692832D01*
X2918669Y1693369D01*
X2916590Y1694113D01*
X2914594Y1695057D01*
X2912700Y1696192D01*
X2910926Y1697507D01*
X2909290Y1698990D01*
X2907807Y1700626D01*
X2906492Y1702400D01*
X2905357Y1704294D01*
X2904413Y1706290D01*
X2903669Y1708369D01*
X2903132Y1710510D01*
X2902808Y1712695D01*
X2902700Y1714900D01*
X2902700Y1764900D01*
X2902808Y1767105D01*
X2903132Y1769289D01*
X2903669Y1771431D01*
X2904413Y1773510D01*
X2905357Y1775506D01*
X2906492Y1777400D01*
X2907807Y1779174D01*
X2909290Y1780810D01*
X2910926Y1782293D01*
X2912700Y1783608D01*
X2914594Y1784743D01*
X2916590Y1785687D01*
X2918669Y1786431D01*
X2920810Y1786968D01*
X2922995Y1787292D01*
X2925200Y1787400D01*
X2970200Y1787400D01*
X2972405Y1787292D01*
X2972405Y1787292D01*
G37*
D19*
X2947700Y1739900D03*
G04 #@! TD*
D13*
G04 #@! TO.C,C12*
G36*
X1702345Y375052D02*
X1704529Y374728D01*
X1706671Y374191D01*
X1708750Y373447D01*
X1710746Y372503D01*
X1712640Y371368D01*
X1714414Y370053D01*
X1716050Y368570D01*
X1717533Y366934D01*
X1718848Y365160D01*
X1719983Y363266D01*
X1720927Y361270D01*
X1721671Y359191D01*
X1722208Y357049D01*
X1722532Y354865D01*
X1722640Y352660D01*
X1722640Y302660D01*
X1722532Y300455D01*
X1722208Y298271D01*
X1721671Y296129D01*
X1720927Y294050D01*
X1719983Y292054D01*
X1718848Y290160D01*
X1717533Y288386D01*
X1716050Y286750D01*
X1714414Y285267D01*
X1712640Y283952D01*
X1710746Y282817D01*
X1708750Y281873D01*
X1706671Y281129D01*
X1704529Y280592D01*
X1702345Y280268D01*
X1700140Y280160D01*
X1655140Y280160D01*
X1652935Y280268D01*
X1650750Y280592D01*
X1648609Y281129D01*
X1646530Y281873D01*
X1644534Y282817D01*
X1642640Y283952D01*
X1640866Y285267D01*
X1639230Y286750D01*
X1637747Y288386D01*
X1636432Y290160D01*
X1635297Y292054D01*
X1634353Y294050D01*
X1633609Y296129D01*
X1633072Y298271D01*
X1632748Y300455D01*
X1632640Y302660D01*
X1632640Y352660D01*
X1632748Y354865D01*
X1633072Y357049D01*
X1633609Y359191D01*
X1634353Y361270D01*
X1635297Y363266D01*
X1636432Y365160D01*
X1637747Y366934D01*
X1639230Y368570D01*
X1640866Y370053D01*
X1642640Y371368D01*
X1644534Y372503D01*
X1646530Y373447D01*
X1648609Y374191D01*
X1650750Y374728D01*
X1652935Y375052D01*
X1655140Y375160D01*
X1700140Y375160D01*
X1702345Y375052D01*
X1702345Y375052D01*
G37*
D19*
X1677640Y327660D03*
D13*
G36*
X1857345Y375052D02*
X1859529Y374728D01*
X1861671Y374191D01*
X1863750Y373447D01*
X1865746Y372503D01*
X1867640Y371368D01*
X1869414Y370053D01*
X1871050Y368570D01*
X1872533Y366934D01*
X1873848Y365160D01*
X1874983Y363266D01*
X1875927Y361270D01*
X1876671Y359191D01*
X1877208Y357049D01*
X1877532Y354865D01*
X1877640Y352660D01*
X1877640Y302660D01*
X1877532Y300455D01*
X1877208Y298271D01*
X1876671Y296129D01*
X1875927Y294050D01*
X1874983Y292054D01*
X1873848Y290160D01*
X1872533Y288386D01*
X1871050Y286750D01*
X1869414Y285267D01*
X1867640Y283952D01*
X1865746Y282817D01*
X1863750Y281873D01*
X1861671Y281129D01*
X1859529Y280592D01*
X1857345Y280268D01*
X1855140Y280160D01*
X1810140Y280160D01*
X1807935Y280268D01*
X1805750Y280592D01*
X1803609Y281129D01*
X1801530Y281873D01*
X1799534Y282817D01*
X1797640Y283952D01*
X1795866Y285267D01*
X1794230Y286750D01*
X1792747Y288386D01*
X1791432Y290160D01*
X1790297Y292054D01*
X1789353Y294050D01*
X1788609Y296129D01*
X1788072Y298271D01*
X1787748Y300455D01*
X1787640Y302660D01*
X1787640Y352660D01*
X1787748Y354865D01*
X1788072Y357049D01*
X1788609Y359191D01*
X1789353Y361270D01*
X1790297Y363266D01*
X1791432Y365160D01*
X1792747Y366934D01*
X1794230Y368570D01*
X1795866Y370053D01*
X1797640Y371368D01*
X1799534Y372503D01*
X1801530Y373447D01*
X1803609Y374191D01*
X1805750Y374728D01*
X1807935Y375052D01*
X1810140Y375160D01*
X1855140Y375160D01*
X1857345Y375052D01*
X1857345Y375052D01*
G37*
D19*
X1832640Y327660D03*
G04 #@! TD*
D13*
G04 #@! TO.C,C11*
G36*
X1699805Y555392D02*
X1701989Y555068D01*
X1704131Y554531D01*
X1706210Y553787D01*
X1708206Y552843D01*
X1710100Y551708D01*
X1711874Y550393D01*
X1713510Y548910D01*
X1714993Y547274D01*
X1716308Y545500D01*
X1717443Y543606D01*
X1718387Y541610D01*
X1719131Y539531D01*
X1719668Y537390D01*
X1719992Y535205D01*
X1720100Y533000D01*
X1720100Y483000D01*
X1719992Y480795D01*
X1719668Y478610D01*
X1719131Y476469D01*
X1718387Y474390D01*
X1717443Y472394D01*
X1716308Y470500D01*
X1714993Y468726D01*
X1713510Y467090D01*
X1711874Y465607D01*
X1710100Y464292D01*
X1708206Y463157D01*
X1706210Y462213D01*
X1704131Y461469D01*
X1701989Y460932D01*
X1699805Y460608D01*
X1697600Y460500D01*
X1652600Y460500D01*
X1650395Y460608D01*
X1648210Y460932D01*
X1646069Y461469D01*
X1643990Y462213D01*
X1641994Y463157D01*
X1640100Y464292D01*
X1638326Y465607D01*
X1636690Y467090D01*
X1635207Y468726D01*
X1633892Y470500D01*
X1632757Y472394D01*
X1631813Y474390D01*
X1631069Y476469D01*
X1630532Y478610D01*
X1630208Y480795D01*
X1630100Y483000D01*
X1630100Y533000D01*
X1630208Y535205D01*
X1630532Y537390D01*
X1631069Y539531D01*
X1631813Y541610D01*
X1632757Y543606D01*
X1633892Y545500D01*
X1635207Y547274D01*
X1636690Y548910D01*
X1638326Y550393D01*
X1640100Y551708D01*
X1641994Y552843D01*
X1643990Y553787D01*
X1646069Y554531D01*
X1648210Y555068D01*
X1650395Y555392D01*
X1652600Y555500D01*
X1697600Y555500D01*
X1699805Y555392D01*
X1699805Y555392D01*
G37*
D19*
X1675100Y508000D03*
D13*
G36*
X1854805Y555392D02*
X1856989Y555068D01*
X1859131Y554531D01*
X1861210Y553787D01*
X1863206Y552843D01*
X1865100Y551708D01*
X1866874Y550393D01*
X1868510Y548910D01*
X1869993Y547274D01*
X1871308Y545500D01*
X1872443Y543606D01*
X1873387Y541610D01*
X1874131Y539531D01*
X1874668Y537390D01*
X1874992Y535205D01*
X1875100Y533000D01*
X1875100Y483000D01*
X1874992Y480795D01*
X1874668Y478610D01*
X1874131Y476469D01*
X1873387Y474390D01*
X1872443Y472394D01*
X1871308Y470500D01*
X1869993Y468726D01*
X1868510Y467090D01*
X1866874Y465607D01*
X1865100Y464292D01*
X1863206Y463157D01*
X1861210Y462213D01*
X1859131Y461469D01*
X1856989Y460932D01*
X1854805Y460608D01*
X1852600Y460500D01*
X1807600Y460500D01*
X1805395Y460608D01*
X1803210Y460932D01*
X1801069Y461469D01*
X1798990Y462213D01*
X1796994Y463157D01*
X1795100Y464292D01*
X1793326Y465607D01*
X1791690Y467090D01*
X1790207Y468726D01*
X1788892Y470500D01*
X1787757Y472394D01*
X1786813Y474390D01*
X1786069Y476469D01*
X1785532Y478610D01*
X1785208Y480795D01*
X1785100Y483000D01*
X1785100Y533000D01*
X1785208Y535205D01*
X1785532Y537390D01*
X1786069Y539531D01*
X1786813Y541610D01*
X1787757Y543606D01*
X1788892Y545500D01*
X1790207Y547274D01*
X1791690Y548910D01*
X1793326Y550393D01*
X1795100Y551708D01*
X1796994Y552843D01*
X1798990Y553787D01*
X1801069Y554531D01*
X1803210Y555068D01*
X1805395Y555392D01*
X1807600Y555500D01*
X1852600Y555500D01*
X1854805Y555392D01*
X1854805Y555392D01*
G37*
D19*
X1830100Y508000D03*
G04 #@! TD*
D13*
G04 #@! TO.C,C10*
G36*
X1880205Y847492D02*
X1882389Y847168D01*
X1884531Y846631D01*
X1886610Y845887D01*
X1888606Y844943D01*
X1890500Y843808D01*
X1892274Y842493D01*
X1893910Y841010D01*
X1895393Y839374D01*
X1896708Y837600D01*
X1897843Y835706D01*
X1898787Y833710D01*
X1899531Y831631D01*
X1900068Y829489D01*
X1900392Y827305D01*
X1900500Y825100D01*
X1900500Y775100D01*
X1900392Y772895D01*
X1900068Y770710D01*
X1899531Y768569D01*
X1898787Y766490D01*
X1897843Y764494D01*
X1896708Y762600D01*
X1895393Y760826D01*
X1893910Y759190D01*
X1892274Y757707D01*
X1890500Y756392D01*
X1888606Y755257D01*
X1886610Y754313D01*
X1884531Y753569D01*
X1882389Y753032D01*
X1880205Y752708D01*
X1878000Y752600D01*
X1833000Y752600D01*
X1830795Y752708D01*
X1828610Y753032D01*
X1826469Y753569D01*
X1824390Y754313D01*
X1822394Y755257D01*
X1820500Y756392D01*
X1818726Y757707D01*
X1817090Y759190D01*
X1815607Y760826D01*
X1814292Y762600D01*
X1813157Y764494D01*
X1812213Y766490D01*
X1811469Y768569D01*
X1810932Y770710D01*
X1810608Y772895D01*
X1810500Y775100D01*
X1810500Y825100D01*
X1810608Y827305D01*
X1810932Y829489D01*
X1811469Y831631D01*
X1812213Y833710D01*
X1813157Y835706D01*
X1814292Y837600D01*
X1815607Y839374D01*
X1817090Y841010D01*
X1818726Y842493D01*
X1820500Y843808D01*
X1822394Y844943D01*
X1824390Y845887D01*
X1826469Y846631D01*
X1828610Y847168D01*
X1830795Y847492D01*
X1833000Y847600D01*
X1878000Y847600D01*
X1880205Y847492D01*
X1880205Y847492D01*
G37*
D19*
X1855500Y800100D03*
D13*
G36*
X1725205Y847492D02*
X1727389Y847168D01*
X1729531Y846631D01*
X1731610Y845887D01*
X1733606Y844943D01*
X1735500Y843808D01*
X1737274Y842493D01*
X1738910Y841010D01*
X1740393Y839374D01*
X1741708Y837600D01*
X1742843Y835706D01*
X1743787Y833710D01*
X1744531Y831631D01*
X1745068Y829489D01*
X1745392Y827305D01*
X1745500Y825100D01*
X1745500Y775100D01*
X1745392Y772895D01*
X1745068Y770710D01*
X1744531Y768569D01*
X1743787Y766490D01*
X1742843Y764494D01*
X1741708Y762600D01*
X1740393Y760826D01*
X1738910Y759190D01*
X1737274Y757707D01*
X1735500Y756392D01*
X1733606Y755257D01*
X1731610Y754313D01*
X1729531Y753569D01*
X1727389Y753032D01*
X1725205Y752708D01*
X1723000Y752600D01*
X1678000Y752600D01*
X1675795Y752708D01*
X1673610Y753032D01*
X1671469Y753569D01*
X1669390Y754313D01*
X1667394Y755257D01*
X1665500Y756392D01*
X1663726Y757707D01*
X1662090Y759190D01*
X1660607Y760826D01*
X1659292Y762600D01*
X1658157Y764494D01*
X1657213Y766490D01*
X1656469Y768569D01*
X1655932Y770710D01*
X1655608Y772895D01*
X1655500Y775100D01*
X1655500Y825100D01*
X1655608Y827305D01*
X1655932Y829489D01*
X1656469Y831631D01*
X1657213Y833710D01*
X1658157Y835706D01*
X1659292Y837600D01*
X1660607Y839374D01*
X1662090Y841010D01*
X1663726Y842493D01*
X1665500Y843808D01*
X1667394Y844943D01*
X1669390Y845887D01*
X1671469Y846631D01*
X1673610Y847168D01*
X1675795Y847492D01*
X1678000Y847600D01*
X1723000Y847600D01*
X1725205Y847492D01*
X1725205Y847492D01*
G37*
D19*
X1700500Y800100D03*
G04 #@! TD*
D13*
G04 #@! TO.C,C9*
G36*
X2328445Y1656492D02*
X2330630Y1656168D01*
X2332771Y1655631D01*
X2334850Y1654887D01*
X2336846Y1653943D01*
X2338740Y1652808D01*
X2340514Y1651493D01*
X2342150Y1650010D01*
X2343633Y1648374D01*
X2344948Y1646600D01*
X2346083Y1644706D01*
X2347027Y1642710D01*
X2347771Y1640631D01*
X2348308Y1638489D01*
X2348632Y1636305D01*
X2348740Y1634100D01*
X2348740Y1589100D01*
X2348632Y1586895D01*
X2348308Y1584710D01*
X2347771Y1582569D01*
X2347027Y1580490D01*
X2346083Y1578494D01*
X2344948Y1576600D01*
X2343633Y1574826D01*
X2342150Y1573190D01*
X2340514Y1571707D01*
X2338740Y1570392D01*
X2336846Y1569257D01*
X2334850Y1568313D01*
X2332771Y1567569D01*
X2330630Y1567032D01*
X2328445Y1566708D01*
X2326240Y1566600D01*
X2276240Y1566600D01*
X2274035Y1566708D01*
X2271851Y1567032D01*
X2269709Y1567569D01*
X2267630Y1568313D01*
X2265634Y1569257D01*
X2263740Y1570392D01*
X2261966Y1571707D01*
X2260330Y1573190D01*
X2258847Y1574826D01*
X2257532Y1576600D01*
X2256397Y1578494D01*
X2255453Y1580490D01*
X2254709Y1582569D01*
X2254172Y1584710D01*
X2253848Y1586895D01*
X2253740Y1589100D01*
X2253740Y1634100D01*
X2253848Y1636305D01*
X2254172Y1638489D01*
X2254709Y1640631D01*
X2255453Y1642710D01*
X2256397Y1644706D01*
X2257532Y1646600D01*
X2258847Y1648374D01*
X2260330Y1650010D01*
X2261966Y1651493D01*
X2263740Y1652808D01*
X2265634Y1653943D01*
X2267630Y1654887D01*
X2269709Y1655631D01*
X2271851Y1656168D01*
X2274035Y1656492D01*
X2276240Y1656600D01*
X2326240Y1656600D01*
X2328445Y1656492D01*
X2328445Y1656492D01*
G37*
D19*
X2301240Y1611600D03*
D13*
G36*
X2328445Y1811492D02*
X2330630Y1811168D01*
X2332771Y1810631D01*
X2334850Y1809887D01*
X2336846Y1808943D01*
X2338740Y1807808D01*
X2340514Y1806493D01*
X2342150Y1805010D01*
X2343633Y1803374D01*
X2344948Y1801600D01*
X2346083Y1799706D01*
X2347027Y1797710D01*
X2347771Y1795631D01*
X2348308Y1793489D01*
X2348632Y1791305D01*
X2348740Y1789100D01*
X2348740Y1744100D01*
X2348632Y1741895D01*
X2348308Y1739710D01*
X2347771Y1737569D01*
X2347027Y1735490D01*
X2346083Y1733494D01*
X2344948Y1731600D01*
X2343633Y1729826D01*
X2342150Y1728190D01*
X2340514Y1726707D01*
X2338740Y1725392D01*
X2336846Y1724257D01*
X2334850Y1723313D01*
X2332771Y1722569D01*
X2330630Y1722032D01*
X2328445Y1721708D01*
X2326240Y1721600D01*
X2276240Y1721600D01*
X2274035Y1721708D01*
X2271851Y1722032D01*
X2269709Y1722569D01*
X2267630Y1723313D01*
X2265634Y1724257D01*
X2263740Y1725392D01*
X2261966Y1726707D01*
X2260330Y1728190D01*
X2258847Y1729826D01*
X2257532Y1731600D01*
X2256397Y1733494D01*
X2255453Y1735490D01*
X2254709Y1737569D01*
X2254172Y1739710D01*
X2253848Y1741895D01*
X2253740Y1744100D01*
X2253740Y1789100D01*
X2253848Y1791305D01*
X2254172Y1793489D01*
X2254709Y1795631D01*
X2255453Y1797710D01*
X2256397Y1799706D01*
X2257532Y1801600D01*
X2258847Y1803374D01*
X2260330Y1805010D01*
X2261966Y1806493D01*
X2263740Y1807808D01*
X2265634Y1808943D01*
X2267630Y1809887D01*
X2269709Y1810631D01*
X2271851Y1811168D01*
X2274035Y1811492D01*
X2276240Y1811600D01*
X2326240Y1811600D01*
X2328445Y1811492D01*
X2328445Y1811492D01*
G37*
D19*
X2301240Y1766600D03*
G04 #@! TD*
D13*
G04 #@! TO.C,C8*
G36*
X1934050Y1362580D02*
X1936477Y1362220D01*
X1938857Y1361624D01*
X1941167Y1360797D01*
X1943385Y1359748D01*
X1945489Y1358487D01*
X1947460Y1357025D01*
X1949278Y1355378D01*
X1950925Y1353560D01*
X1952387Y1351589D01*
X1953648Y1349485D01*
X1954697Y1347267D01*
X1955523Y1344957D01*
X1956120Y1342577D01*
X1956480Y1340150D01*
X1956600Y1337700D01*
X1956600Y1227700D01*
X1956480Y1225250D01*
X1956120Y1222823D01*
X1955523Y1220443D01*
X1954697Y1218133D01*
X1953648Y1215915D01*
X1952387Y1213811D01*
X1950925Y1211840D01*
X1949278Y1210022D01*
X1947460Y1208375D01*
X1945489Y1206913D01*
X1943385Y1205652D01*
X1941167Y1204603D01*
X1938857Y1203777D01*
X1936477Y1203180D01*
X1934050Y1202820D01*
X1931600Y1202700D01*
X1721600Y1202700D01*
X1719150Y1202820D01*
X1716723Y1203180D01*
X1714343Y1203777D01*
X1712033Y1204603D01*
X1709815Y1205652D01*
X1707711Y1206913D01*
X1705740Y1208375D01*
X1703922Y1210022D01*
X1702275Y1211840D01*
X1700813Y1213811D01*
X1699552Y1215915D01*
X1698503Y1218133D01*
X1697676Y1220443D01*
X1697080Y1222823D01*
X1696720Y1225250D01*
X1696600Y1227700D01*
X1696600Y1337700D01*
X1696720Y1340150D01*
X1697080Y1342577D01*
X1697676Y1344957D01*
X1698503Y1347267D01*
X1699552Y1349485D01*
X1700813Y1351589D01*
X1702275Y1353560D01*
X1703922Y1355378D01*
X1705740Y1357025D01*
X1707711Y1358487D01*
X1709815Y1359748D01*
X1712033Y1360797D01*
X1714343Y1361624D01*
X1716723Y1362220D01*
X1719150Y1362580D01*
X1721600Y1362700D01*
X1931600Y1362700D01*
X1934050Y1362580D01*
X1934050Y1362580D01*
G37*
D24*
X1826600Y1282700D03*
D13*
G36*
X2294050Y1362580D02*
X2296477Y1362220D01*
X2298857Y1361624D01*
X2301167Y1360797D01*
X2303385Y1359748D01*
X2305489Y1358487D01*
X2307460Y1357025D01*
X2309278Y1355378D01*
X2310925Y1353560D01*
X2312387Y1351589D01*
X2313648Y1349485D01*
X2314697Y1347267D01*
X2315524Y1344957D01*
X2316120Y1342577D01*
X2316480Y1340150D01*
X2316600Y1337700D01*
X2316600Y1227700D01*
X2316480Y1225250D01*
X2316120Y1222823D01*
X2315524Y1220443D01*
X2314697Y1218133D01*
X2313648Y1215915D01*
X2312387Y1213811D01*
X2310925Y1211840D01*
X2309278Y1210022D01*
X2307460Y1208375D01*
X2305489Y1206913D01*
X2303385Y1205652D01*
X2301167Y1204603D01*
X2298857Y1203777D01*
X2296477Y1203180D01*
X2294050Y1202820D01*
X2291600Y1202700D01*
X2081600Y1202700D01*
X2079150Y1202820D01*
X2076723Y1203180D01*
X2074343Y1203777D01*
X2072033Y1204603D01*
X2069815Y1205652D01*
X2067711Y1206913D01*
X2065740Y1208375D01*
X2063922Y1210022D01*
X2062275Y1211840D01*
X2060813Y1213811D01*
X2059552Y1215915D01*
X2058503Y1218133D01*
X2057676Y1220443D01*
X2057080Y1222823D01*
X2056720Y1225250D01*
X2056600Y1227700D01*
X2056600Y1337700D01*
X2056720Y1340150D01*
X2057080Y1342577D01*
X2057676Y1344957D01*
X2058503Y1347267D01*
X2059552Y1349485D01*
X2060813Y1351589D01*
X2062275Y1353560D01*
X2063922Y1355378D01*
X2065740Y1357025D01*
X2067711Y1358487D01*
X2069815Y1359748D01*
X2072033Y1360797D01*
X2074343Y1361624D01*
X2076723Y1362220D01*
X2079150Y1362580D01*
X2081600Y1362700D01*
X2291600Y1362700D01*
X2294050Y1362580D01*
X2294050Y1362580D01*
G37*
D24*
X2186600Y1282700D03*
G04 #@! TD*
D13*
G04 #@! TO.C,C7*
G36*
X1746785Y1719992D02*
X1748969Y1719668D01*
X1751111Y1719131D01*
X1753190Y1718387D01*
X1755186Y1717443D01*
X1757080Y1716308D01*
X1758854Y1714993D01*
X1760490Y1713510D01*
X1761973Y1711874D01*
X1763288Y1710100D01*
X1764423Y1708206D01*
X1765367Y1706210D01*
X1766111Y1704131D01*
X1766648Y1701989D01*
X1766972Y1699805D01*
X1767080Y1697600D01*
X1767080Y1652600D01*
X1766972Y1650395D01*
X1766648Y1648210D01*
X1766111Y1646069D01*
X1765367Y1643990D01*
X1764423Y1641994D01*
X1763288Y1640100D01*
X1761973Y1638326D01*
X1760490Y1636690D01*
X1758854Y1635207D01*
X1757080Y1633892D01*
X1755186Y1632757D01*
X1753190Y1631813D01*
X1751111Y1631069D01*
X1748969Y1630532D01*
X1746785Y1630208D01*
X1744580Y1630100D01*
X1694580Y1630100D01*
X1692375Y1630208D01*
X1690190Y1630532D01*
X1688049Y1631069D01*
X1685970Y1631813D01*
X1683974Y1632757D01*
X1682080Y1633892D01*
X1680306Y1635207D01*
X1678670Y1636690D01*
X1677187Y1638326D01*
X1675872Y1640100D01*
X1674737Y1641994D01*
X1673793Y1643990D01*
X1673049Y1646069D01*
X1672512Y1648210D01*
X1672188Y1650395D01*
X1672080Y1652600D01*
X1672080Y1697600D01*
X1672188Y1699805D01*
X1672512Y1701989D01*
X1673049Y1704131D01*
X1673793Y1706210D01*
X1674737Y1708206D01*
X1675872Y1710100D01*
X1677187Y1711874D01*
X1678670Y1713510D01*
X1680306Y1714993D01*
X1682080Y1716308D01*
X1683974Y1717443D01*
X1685970Y1718387D01*
X1688049Y1719131D01*
X1690190Y1719668D01*
X1692375Y1719992D01*
X1694580Y1720100D01*
X1744580Y1720100D01*
X1746785Y1719992D01*
X1746785Y1719992D01*
G37*
D19*
X1719580Y1675100D03*
D13*
G36*
X1746785Y1874992D02*
X1748969Y1874668D01*
X1751111Y1874131D01*
X1753190Y1873387D01*
X1755186Y1872443D01*
X1757080Y1871308D01*
X1758854Y1869993D01*
X1760490Y1868510D01*
X1761973Y1866874D01*
X1763288Y1865100D01*
X1764423Y1863206D01*
X1765367Y1861210D01*
X1766111Y1859131D01*
X1766648Y1856989D01*
X1766972Y1854805D01*
X1767080Y1852600D01*
X1767080Y1807600D01*
X1766972Y1805395D01*
X1766648Y1803210D01*
X1766111Y1801069D01*
X1765367Y1798990D01*
X1764423Y1796994D01*
X1763288Y1795100D01*
X1761973Y1793326D01*
X1760490Y1791690D01*
X1758854Y1790207D01*
X1757080Y1788892D01*
X1755186Y1787757D01*
X1753190Y1786813D01*
X1751111Y1786069D01*
X1748969Y1785532D01*
X1746785Y1785208D01*
X1744580Y1785100D01*
X1694580Y1785100D01*
X1692375Y1785208D01*
X1690190Y1785532D01*
X1688049Y1786069D01*
X1685970Y1786813D01*
X1683974Y1787757D01*
X1682080Y1788892D01*
X1680306Y1790207D01*
X1678670Y1791690D01*
X1677187Y1793326D01*
X1675872Y1795100D01*
X1674737Y1796994D01*
X1673793Y1798990D01*
X1673049Y1801069D01*
X1672512Y1803210D01*
X1672188Y1805395D01*
X1672080Y1807600D01*
X1672080Y1852600D01*
X1672188Y1854805D01*
X1672512Y1856989D01*
X1673049Y1859131D01*
X1673793Y1861210D01*
X1674737Y1863206D01*
X1675872Y1865100D01*
X1677187Y1866874D01*
X1678670Y1868510D01*
X1680306Y1869993D01*
X1682080Y1871308D01*
X1683974Y1872443D01*
X1685970Y1873387D01*
X1688049Y1874131D01*
X1690190Y1874668D01*
X1692375Y1874992D01*
X1694580Y1875100D01*
X1744580Y1875100D01*
X1746785Y1874992D01*
X1746785Y1874992D01*
G37*
D19*
X1719580Y1830100D03*
G04 #@! TD*
D13*
G04 #@! TO.C,C6*
G36*
X1297205Y1491392D02*
X1299390Y1491068D01*
X1301531Y1490531D01*
X1303610Y1489787D01*
X1305606Y1488843D01*
X1307500Y1487708D01*
X1309274Y1486393D01*
X1310910Y1484910D01*
X1312393Y1483274D01*
X1313708Y1481500D01*
X1314843Y1479606D01*
X1315787Y1477610D01*
X1316531Y1475531D01*
X1317068Y1473389D01*
X1317392Y1471205D01*
X1317500Y1469000D01*
X1317500Y1424000D01*
X1317392Y1421795D01*
X1317068Y1419610D01*
X1316531Y1417469D01*
X1315787Y1415390D01*
X1314843Y1413394D01*
X1313708Y1411500D01*
X1312393Y1409726D01*
X1310910Y1408090D01*
X1309274Y1406607D01*
X1307500Y1405292D01*
X1305606Y1404157D01*
X1303610Y1403213D01*
X1301531Y1402469D01*
X1299390Y1401932D01*
X1297205Y1401608D01*
X1295000Y1401500D01*
X1245000Y1401500D01*
X1242795Y1401608D01*
X1240611Y1401932D01*
X1238469Y1402469D01*
X1236390Y1403213D01*
X1234394Y1404157D01*
X1232500Y1405292D01*
X1230726Y1406607D01*
X1229090Y1408090D01*
X1227607Y1409726D01*
X1226292Y1411500D01*
X1225157Y1413394D01*
X1224213Y1415390D01*
X1223469Y1417469D01*
X1222932Y1419610D01*
X1222608Y1421795D01*
X1222500Y1424000D01*
X1222500Y1469000D01*
X1222608Y1471205D01*
X1222932Y1473389D01*
X1223469Y1475531D01*
X1224213Y1477610D01*
X1225157Y1479606D01*
X1226292Y1481500D01*
X1227607Y1483274D01*
X1229090Y1484910D01*
X1230726Y1486393D01*
X1232500Y1487708D01*
X1234394Y1488843D01*
X1236390Y1489787D01*
X1238469Y1490531D01*
X1240611Y1491068D01*
X1242795Y1491392D01*
X1245000Y1491500D01*
X1295000Y1491500D01*
X1297205Y1491392D01*
X1297205Y1491392D01*
G37*
D19*
X1270000Y1446500D03*
D13*
G36*
X1297205Y1646392D02*
X1299390Y1646068D01*
X1301531Y1645531D01*
X1303610Y1644787D01*
X1305606Y1643843D01*
X1307500Y1642708D01*
X1309274Y1641393D01*
X1310910Y1639910D01*
X1312393Y1638274D01*
X1313708Y1636500D01*
X1314843Y1634606D01*
X1315787Y1632610D01*
X1316531Y1630531D01*
X1317068Y1628389D01*
X1317392Y1626205D01*
X1317500Y1624000D01*
X1317500Y1579000D01*
X1317392Y1576795D01*
X1317068Y1574610D01*
X1316531Y1572469D01*
X1315787Y1570390D01*
X1314843Y1568394D01*
X1313708Y1566500D01*
X1312393Y1564726D01*
X1310910Y1563090D01*
X1309274Y1561607D01*
X1307500Y1560292D01*
X1305606Y1559157D01*
X1303610Y1558213D01*
X1301531Y1557469D01*
X1299390Y1556932D01*
X1297205Y1556608D01*
X1295000Y1556500D01*
X1245000Y1556500D01*
X1242795Y1556608D01*
X1240611Y1556932D01*
X1238469Y1557469D01*
X1236390Y1558213D01*
X1234394Y1559157D01*
X1232500Y1560292D01*
X1230726Y1561607D01*
X1229090Y1563090D01*
X1227607Y1564726D01*
X1226292Y1566500D01*
X1225157Y1568394D01*
X1224213Y1570390D01*
X1223469Y1572469D01*
X1222932Y1574610D01*
X1222608Y1576795D01*
X1222500Y1579000D01*
X1222500Y1624000D01*
X1222608Y1626205D01*
X1222932Y1628389D01*
X1223469Y1630531D01*
X1224213Y1632610D01*
X1225157Y1634606D01*
X1226292Y1636500D01*
X1227607Y1638274D01*
X1229090Y1639910D01*
X1230726Y1641393D01*
X1232500Y1642708D01*
X1234394Y1643843D01*
X1236390Y1644787D01*
X1238469Y1645531D01*
X1240611Y1646068D01*
X1242795Y1646392D01*
X1245000Y1646500D01*
X1295000Y1646500D01*
X1297205Y1646392D01*
X1297205Y1646392D01*
G37*
D19*
X1270000Y1601500D03*
G04 #@! TD*
D13*
G04 #@! TO.C,C5*
G36*
X1540650Y1510080D02*
X1543077Y1509720D01*
X1545457Y1509123D01*
X1547767Y1508297D01*
X1549985Y1507248D01*
X1552089Y1505987D01*
X1554060Y1504525D01*
X1555878Y1502878D01*
X1557525Y1501060D01*
X1558987Y1499089D01*
X1560248Y1496985D01*
X1561297Y1494767D01*
X1562123Y1492457D01*
X1562720Y1490077D01*
X1563080Y1487650D01*
X1563200Y1485200D01*
X1563200Y1420200D01*
X1563080Y1417749D01*
X1562720Y1415323D01*
X1562123Y1412943D01*
X1561297Y1410633D01*
X1560248Y1408415D01*
X1558987Y1406311D01*
X1557525Y1404340D01*
X1555878Y1402522D01*
X1554060Y1400875D01*
X1552089Y1399413D01*
X1549985Y1398152D01*
X1547767Y1397103D01*
X1545457Y1396277D01*
X1543077Y1395680D01*
X1540650Y1395320D01*
X1538200Y1395200D01*
X1408200Y1395200D01*
X1405749Y1395320D01*
X1403323Y1395680D01*
X1400943Y1396277D01*
X1398633Y1397103D01*
X1396415Y1398152D01*
X1394311Y1399413D01*
X1392340Y1400875D01*
X1390522Y1402522D01*
X1388875Y1404340D01*
X1387413Y1406311D01*
X1386152Y1408415D01*
X1385103Y1410633D01*
X1384277Y1412943D01*
X1383680Y1415323D01*
X1383320Y1417749D01*
X1383200Y1420200D01*
X1383200Y1485200D01*
X1383320Y1487650D01*
X1383680Y1490077D01*
X1384277Y1492457D01*
X1385103Y1494767D01*
X1386152Y1496985D01*
X1387413Y1499089D01*
X1388875Y1501060D01*
X1390522Y1502878D01*
X1392340Y1504525D01*
X1394311Y1505987D01*
X1396415Y1507248D01*
X1398633Y1508297D01*
X1400943Y1509123D01*
X1403323Y1509720D01*
X1405749Y1510080D01*
X1408200Y1510200D01*
X1538200Y1510200D01*
X1540650Y1510080D01*
X1540650Y1510080D01*
G37*
D25*
X1473200Y1452700D03*
D13*
G36*
X1540650Y1805080D02*
X1543077Y1804720D01*
X1545457Y1804123D01*
X1547767Y1803297D01*
X1549985Y1802248D01*
X1552089Y1800987D01*
X1554060Y1799525D01*
X1555878Y1797878D01*
X1557525Y1796060D01*
X1558987Y1794089D01*
X1560248Y1791985D01*
X1561297Y1789767D01*
X1562123Y1787457D01*
X1562720Y1785077D01*
X1563080Y1782650D01*
X1563200Y1780200D01*
X1563200Y1715200D01*
X1563080Y1712749D01*
X1562720Y1710323D01*
X1562123Y1707943D01*
X1561297Y1705633D01*
X1560248Y1703415D01*
X1558987Y1701311D01*
X1557525Y1699340D01*
X1555878Y1697522D01*
X1554060Y1695875D01*
X1552089Y1694413D01*
X1549985Y1693152D01*
X1547767Y1692103D01*
X1545457Y1691276D01*
X1543077Y1690680D01*
X1540650Y1690320D01*
X1538200Y1690200D01*
X1408200Y1690200D01*
X1405749Y1690320D01*
X1403323Y1690680D01*
X1400943Y1691276D01*
X1398633Y1692103D01*
X1396415Y1693152D01*
X1394311Y1694413D01*
X1392340Y1695875D01*
X1390522Y1697522D01*
X1388875Y1699340D01*
X1387413Y1701311D01*
X1386152Y1703415D01*
X1385103Y1705633D01*
X1384277Y1707943D01*
X1383680Y1710323D01*
X1383320Y1712749D01*
X1383200Y1715200D01*
X1383200Y1780200D01*
X1383320Y1782650D01*
X1383680Y1785077D01*
X1384277Y1787457D01*
X1385103Y1789767D01*
X1386152Y1791985D01*
X1387413Y1794089D01*
X1388875Y1796060D01*
X1390522Y1797878D01*
X1392340Y1799525D01*
X1394311Y1800987D01*
X1396415Y1802248D01*
X1398633Y1803297D01*
X1400943Y1804123D01*
X1403323Y1804720D01*
X1405749Y1805080D01*
X1408200Y1805200D01*
X1538200Y1805200D01*
X1540650Y1805080D01*
X1540650Y1805080D01*
G37*
D25*
X1473200Y1747700D03*
G04 #@! TD*
D13*
G04 #@! TO.C,C4*
G36*
X890805Y703992D02*
X892989Y703668D01*
X895131Y703131D01*
X897210Y702387D01*
X899206Y701443D01*
X901100Y700308D01*
X902874Y698993D01*
X904510Y697510D01*
X905993Y695874D01*
X907308Y694100D01*
X908443Y692206D01*
X909387Y690210D01*
X910131Y688131D01*
X910668Y685990D01*
X910992Y683805D01*
X911100Y681600D01*
X911100Y636600D01*
X910992Y634395D01*
X910668Y632211D01*
X910131Y630069D01*
X909387Y627990D01*
X908443Y625994D01*
X907308Y624100D01*
X905993Y622326D01*
X904510Y620690D01*
X902874Y619207D01*
X901100Y617892D01*
X899206Y616757D01*
X897210Y615813D01*
X895131Y615069D01*
X892989Y614532D01*
X890805Y614208D01*
X888600Y614100D01*
X838600Y614100D01*
X836395Y614208D01*
X834210Y614532D01*
X832069Y615069D01*
X829990Y615813D01*
X827994Y616757D01*
X826100Y617892D01*
X824326Y619207D01*
X822690Y620690D01*
X821207Y622326D01*
X819892Y624100D01*
X818757Y625994D01*
X817813Y627990D01*
X817069Y630069D01*
X816532Y632211D01*
X816208Y634395D01*
X816100Y636600D01*
X816100Y681600D01*
X816208Y683805D01*
X816532Y685990D01*
X817069Y688131D01*
X817813Y690210D01*
X818757Y692206D01*
X819892Y694100D01*
X821207Y695874D01*
X822690Y697510D01*
X824326Y698993D01*
X826100Y700308D01*
X827994Y701443D01*
X829990Y702387D01*
X832069Y703131D01*
X834210Y703668D01*
X836395Y703992D01*
X838600Y704100D01*
X888600Y704100D01*
X890805Y703992D01*
X890805Y703992D01*
G37*
D19*
X863600Y659100D03*
D13*
G36*
X890805Y858992D02*
X892989Y858668D01*
X895131Y858131D01*
X897210Y857387D01*
X899206Y856443D01*
X901100Y855308D01*
X902874Y853993D01*
X904510Y852510D01*
X905993Y850874D01*
X907308Y849100D01*
X908443Y847206D01*
X909387Y845210D01*
X910131Y843131D01*
X910668Y840989D01*
X910992Y838805D01*
X911100Y836600D01*
X911100Y791600D01*
X910992Y789395D01*
X910668Y787210D01*
X910131Y785069D01*
X909387Y782990D01*
X908443Y780994D01*
X907308Y779100D01*
X905993Y777326D01*
X904510Y775690D01*
X902874Y774207D01*
X901100Y772892D01*
X899206Y771757D01*
X897210Y770813D01*
X895131Y770069D01*
X892989Y769532D01*
X890805Y769208D01*
X888600Y769100D01*
X838600Y769100D01*
X836395Y769208D01*
X834210Y769532D01*
X832069Y770069D01*
X829990Y770813D01*
X827994Y771757D01*
X826100Y772892D01*
X824326Y774207D01*
X822690Y775690D01*
X821207Y777326D01*
X819892Y779100D01*
X818757Y780994D01*
X817813Y782990D01*
X817069Y785069D01*
X816532Y787210D01*
X816208Y789395D01*
X816100Y791600D01*
X816100Y836600D01*
X816208Y838805D01*
X816532Y840989D01*
X817069Y843131D01*
X817813Y845210D01*
X818757Y847206D01*
X819892Y849100D01*
X821207Y850874D01*
X822690Y852510D01*
X824326Y853993D01*
X826100Y855308D01*
X827994Y856443D01*
X829990Y857387D01*
X832069Y858131D01*
X834210Y858668D01*
X836395Y858992D01*
X838600Y859100D01*
X888600Y859100D01*
X890805Y858992D01*
X890805Y858992D01*
G37*
D19*
X863600Y814100D03*
G04 #@! TD*
D13*
G04 #@! TO.C,C2*
G36*
X766650Y2071080D02*
X769077Y2070720D01*
X771457Y2070123D01*
X773767Y2069297D01*
X775985Y2068248D01*
X778089Y2066987D01*
X780060Y2065525D01*
X781878Y2063878D01*
X783525Y2062060D01*
X784987Y2060089D01*
X786248Y2057985D01*
X787297Y2055767D01*
X788123Y2053457D01*
X788720Y2051077D01*
X789080Y2048650D01*
X789200Y2046200D01*
X789200Y1916200D01*
X789080Y1913749D01*
X788720Y1911323D01*
X788123Y1908943D01*
X787297Y1906633D01*
X786248Y1904415D01*
X784987Y1902311D01*
X783525Y1900340D01*
X781878Y1898522D01*
X780060Y1896875D01*
X778089Y1895413D01*
X775985Y1894152D01*
X773767Y1893103D01*
X771457Y1892276D01*
X769077Y1891680D01*
X766650Y1891320D01*
X764200Y1891200D01*
X699200Y1891200D01*
X696750Y1891320D01*
X694323Y1891680D01*
X691943Y1892276D01*
X689633Y1893103D01*
X687415Y1894152D01*
X685311Y1895413D01*
X683340Y1896875D01*
X681522Y1898522D01*
X679875Y1900340D01*
X678413Y1902311D01*
X677152Y1904415D01*
X676103Y1906633D01*
X675277Y1908943D01*
X674680Y1911323D01*
X674320Y1913749D01*
X674200Y1916200D01*
X674200Y2046200D01*
X674320Y2048650D01*
X674680Y2051077D01*
X675277Y2053457D01*
X676103Y2055767D01*
X677152Y2057985D01*
X678413Y2060089D01*
X679875Y2062060D01*
X681522Y2063878D01*
X683340Y2065525D01*
X685311Y2066987D01*
X687415Y2068248D01*
X689633Y2069297D01*
X691943Y2070123D01*
X694323Y2070720D01*
X696750Y2071080D01*
X699200Y2071200D01*
X764200Y2071200D01*
X766650Y2071080D01*
X766650Y2071080D01*
G37*
D25*
X731700Y1981200D03*
D13*
G36*
X471650Y2071080D02*
X474077Y2070720D01*
X476457Y2070123D01*
X478767Y2069297D01*
X480985Y2068248D01*
X483089Y2066987D01*
X485060Y2065525D01*
X486878Y2063878D01*
X488525Y2062060D01*
X489987Y2060089D01*
X491248Y2057985D01*
X492297Y2055767D01*
X493123Y2053457D01*
X493720Y2051077D01*
X494080Y2048650D01*
X494200Y2046200D01*
X494200Y1916200D01*
X494080Y1913749D01*
X493720Y1911323D01*
X493123Y1908943D01*
X492297Y1906633D01*
X491248Y1904415D01*
X489987Y1902311D01*
X488525Y1900340D01*
X486878Y1898522D01*
X485060Y1896875D01*
X483089Y1895413D01*
X480985Y1894152D01*
X478767Y1893103D01*
X476457Y1892276D01*
X474077Y1891680D01*
X471650Y1891320D01*
X469200Y1891200D01*
X404200Y1891200D01*
X401749Y1891320D01*
X399323Y1891680D01*
X396943Y1892276D01*
X394633Y1893103D01*
X392415Y1894152D01*
X390311Y1895413D01*
X388340Y1896875D01*
X386522Y1898522D01*
X384875Y1900340D01*
X383413Y1902311D01*
X382152Y1904415D01*
X381103Y1906633D01*
X380276Y1908943D01*
X379680Y1911323D01*
X379320Y1913749D01*
X379200Y1916200D01*
X379200Y2046200D01*
X379320Y2048650D01*
X379680Y2051077D01*
X380276Y2053457D01*
X381103Y2055767D01*
X382152Y2057985D01*
X383413Y2060089D01*
X384875Y2062060D01*
X386522Y2063878D01*
X388340Y2065525D01*
X390311Y2066987D01*
X392415Y2068248D01*
X394633Y2069297D01*
X396943Y2070123D01*
X399323Y2070720D01*
X401749Y2071080D01*
X404200Y2071200D01*
X469200Y2071200D01*
X471650Y2071080D01*
X471650Y2071080D01*
G37*
D25*
X436700Y1981200D03*
G04 #@! TD*
D13*
G04 #@! TO.C,C1*
G36*
X661005Y1825392D02*
X663190Y1825068D01*
X665331Y1824531D01*
X667410Y1823787D01*
X669406Y1822843D01*
X671300Y1821708D01*
X673074Y1820393D01*
X674710Y1818910D01*
X676193Y1817274D01*
X677508Y1815500D01*
X678643Y1813606D01*
X679587Y1811610D01*
X680331Y1809531D01*
X680868Y1807389D01*
X681192Y1805205D01*
X681300Y1803000D01*
X681300Y1753000D01*
X681192Y1750795D01*
X680868Y1748610D01*
X680331Y1746469D01*
X679587Y1744390D01*
X678643Y1742394D01*
X677508Y1740500D01*
X676193Y1738726D01*
X674710Y1737090D01*
X673074Y1735607D01*
X671300Y1734292D01*
X669406Y1733157D01*
X667410Y1732213D01*
X665331Y1731469D01*
X663190Y1730932D01*
X661005Y1730608D01*
X658800Y1730500D01*
X613800Y1730500D01*
X611595Y1730608D01*
X609411Y1730932D01*
X607269Y1731469D01*
X605190Y1732213D01*
X603194Y1733157D01*
X601300Y1734292D01*
X599526Y1735607D01*
X597890Y1737090D01*
X596407Y1738726D01*
X595092Y1740500D01*
X593957Y1742394D01*
X593013Y1744390D01*
X592269Y1746469D01*
X591732Y1748610D01*
X591408Y1750795D01*
X591300Y1753000D01*
X591300Y1803000D01*
X591408Y1805205D01*
X591732Y1807389D01*
X592269Y1809531D01*
X593013Y1811610D01*
X593957Y1813606D01*
X595092Y1815500D01*
X596407Y1817274D01*
X597890Y1818910D01*
X599526Y1820393D01*
X601300Y1821708D01*
X603194Y1822843D01*
X605190Y1823787D01*
X607269Y1824531D01*
X609411Y1825068D01*
X611595Y1825392D01*
X613800Y1825500D01*
X658800Y1825500D01*
X661005Y1825392D01*
X661005Y1825392D01*
G37*
D19*
X636300Y1778000D03*
D13*
G36*
X506005Y1825392D02*
X508189Y1825068D01*
X510331Y1824531D01*
X512410Y1823787D01*
X514406Y1822843D01*
X516300Y1821708D01*
X518074Y1820393D01*
X519710Y1818910D01*
X521193Y1817274D01*
X522508Y1815500D01*
X523643Y1813606D01*
X524587Y1811610D01*
X525331Y1809531D01*
X525868Y1807389D01*
X526192Y1805205D01*
X526300Y1803000D01*
X526300Y1753000D01*
X526192Y1750795D01*
X525868Y1748610D01*
X525331Y1746469D01*
X524587Y1744390D01*
X523643Y1742394D01*
X522508Y1740500D01*
X521193Y1738726D01*
X519710Y1737090D01*
X518074Y1735607D01*
X516300Y1734292D01*
X514406Y1733157D01*
X512410Y1732213D01*
X510331Y1731469D01*
X508189Y1730932D01*
X506005Y1730608D01*
X503800Y1730500D01*
X458800Y1730500D01*
X456595Y1730608D01*
X454410Y1730932D01*
X452269Y1731469D01*
X450190Y1732213D01*
X448194Y1733157D01*
X446300Y1734292D01*
X444526Y1735607D01*
X442890Y1737090D01*
X441407Y1738726D01*
X440092Y1740500D01*
X438957Y1742394D01*
X438013Y1744390D01*
X437269Y1746469D01*
X436732Y1748610D01*
X436408Y1750795D01*
X436300Y1753000D01*
X436300Y1803000D01*
X436408Y1805205D01*
X436732Y1807389D01*
X437269Y1809531D01*
X438013Y1811610D01*
X438957Y1813606D01*
X440092Y1815500D01*
X441407Y1817274D01*
X442890Y1818910D01*
X444526Y1820393D01*
X446300Y1821708D01*
X448194Y1822843D01*
X450190Y1823787D01*
X452269Y1824531D01*
X454410Y1825068D01*
X456595Y1825392D01*
X458800Y1825500D01*
X503800Y1825500D01*
X506005Y1825392D01*
X506005Y1825392D01*
G37*
D19*
X481300Y1778000D03*
G04 #@! TD*
D17*
G04 #@! TO.C,J5*
X413800Y2329500D03*
D16*
X667800Y2329500D03*
X921800Y2329500D03*
X1175800Y2329500D03*
G04 #@! TD*
G04 #@! TO.C,J6*
X3150800Y2329500D03*
X2896800Y2329500D03*
X2642800Y2329500D03*
D17*
X2388800Y2329500D03*
G04 #@! TD*
M02*
