G04 #@! TF.GenerationSoftware,KiCad,Pcbnew,(5.1.10)-1*
G04 #@! TF.CreationDate,2021-05-22T21:50:54-07:00*
G04 #@! TF.ProjectId,E-Bike,452d4269-6b65-42e6-9b69-6361645f7063,rev?*
G04 #@! TF.SameCoordinates,PX619eb90PY83695b8*
G04 #@! TF.FileFunction,Copper,L1,Top*
G04 #@! TF.FilePolarity,Positive*
%FSLAX45Y45*%
G04 Gerber Fmt 4.5, Leading zero omitted, Abs format (unit mm)*
G04 Created by KiCad (PCBNEW (5.1.10)-1) date 2021-05-22 21:50:54*
%MOMM*%
%LPD*%
G01*
G04 APERTURE LIST*
G04 #@! TA.AperFunction,ComponentPad*
%ADD10O,1.700000X1.700000*%
G04 #@! TD*
G04 #@! TA.AperFunction,ComponentPad*
%ADD11R,1.700000X1.700000*%
G04 #@! TD*
G04 #@! TA.AperFunction,SMDPad,CuDef*
%ADD12R,1.060000X0.650000*%
G04 #@! TD*
G04 #@! TA.AperFunction,SMDPad,CuDef*
%ADD13R,0.650000X1.700000*%
G04 #@! TD*
G04 #@! TA.AperFunction,SMDPad,CuDef*
%ADD14R,1.400000X0.300000*%
G04 #@! TD*
G04 #@! TA.AperFunction,SMDPad,CuDef*
%ADD15R,1.500000X3.600000*%
G04 #@! TD*
G04 #@! TA.AperFunction,ViaPad*
%ADD16C,0.800000*%
G04 #@! TD*
G04 #@! TA.AperFunction,Conductor*
%ADD17C,0.250000*%
G04 #@! TD*
G04 #@! TA.AperFunction,Conductor*
%ADD18C,0.254000*%
G04 #@! TD*
G04 #@! TA.AperFunction,Conductor*
%ADD19C,0.100000*%
G04 #@! TD*
G04 APERTURE END LIST*
D10*
X2667000Y850900D03*
D11*
X2667000Y1104900D03*
D10*
X571500Y304800D03*
X317500Y304800D03*
X571500Y558800D03*
X317500Y558800D03*
X571500Y812800D03*
D11*
X317500Y812800D03*
D12*
X2116600Y1911100D03*
X2116600Y1721100D03*
X1896600Y1721100D03*
X1896600Y1816100D03*
X1896600Y1911100D03*
D13*
X1054100Y936500D03*
X1181100Y936500D03*
X1308100Y936500D03*
X1435100Y936500D03*
X1435100Y206500D03*
X1308100Y206500D03*
X1181100Y206500D03*
X1054100Y206500D03*
D14*
X931200Y1598600D03*
X931200Y1548600D03*
X931200Y1498600D03*
X931200Y1448600D03*
X931200Y1398600D03*
X491200Y1398600D03*
X491200Y1448600D03*
X491200Y1498600D03*
X491200Y1548600D03*
X491200Y1598600D03*
G04 #@! TA.AperFunction,SMDPad,CuDef*
G36*
G01*
X2078400Y976250D02*
X2078400Y928750D01*
G75*
G02*
X2054650Y905000I-23750J0D01*
G01*
X2004650Y905000D01*
G75*
G02*
X1980900Y928750I0J23750D01*
G01*
X1980900Y976250D01*
G75*
G02*
X2004650Y1000000I23750J0D01*
G01*
X2054650Y1000000D01*
G75*
G02*
X2078400Y976250I0J-23750D01*
G01*
G37*
G04 #@! TD.AperFunction*
G04 #@! TA.AperFunction,SMDPad,CuDef*
G36*
G01*
X2260900Y976250D02*
X2260900Y928750D01*
G75*
G02*
X2237150Y905000I-23750J0D01*
G01*
X2187150Y905000D01*
G75*
G02*
X2163400Y928750I0J23750D01*
G01*
X2163400Y976250D01*
G75*
G02*
X2187150Y1000000I23750J0D01*
G01*
X2237150Y1000000D01*
G75*
G02*
X2260900Y976250I0J-23750D01*
G01*
G37*
G04 #@! TD.AperFunction*
G04 #@! TA.AperFunction,SMDPad,CuDef*
G36*
G01*
X2125300Y230250D02*
X2125300Y277750D01*
G75*
G02*
X2149050Y301500I23750J0D01*
G01*
X2199050Y301500D01*
G75*
G02*
X2222800Y277750I0J-23750D01*
G01*
X2222800Y230250D01*
G75*
G02*
X2199050Y206500I-23750J0D01*
G01*
X2149050Y206500D01*
G75*
G02*
X2125300Y230250I0J23750D01*
G01*
G37*
G04 #@! TD.AperFunction*
G04 #@! TA.AperFunction,SMDPad,CuDef*
G36*
G01*
X1942800Y230250D02*
X1942800Y277750D01*
G75*
G02*
X1966550Y301500I23750J0D01*
G01*
X2016550Y301500D01*
G75*
G02*
X2040300Y277750I0J-23750D01*
G01*
X2040300Y230250D01*
G75*
G02*
X2016550Y206500I-23750J0D01*
G01*
X1966550Y206500D01*
G75*
G02*
X1942800Y230250I0J23750D01*
G01*
G37*
G04 #@! TD.AperFunction*
G04 #@! TA.AperFunction,SMDPad,CuDef*
G36*
G01*
X2125300Y484250D02*
X2125300Y531750D01*
G75*
G02*
X2149050Y555500I23750J0D01*
G01*
X2199050Y555500D01*
G75*
G02*
X2222800Y531750I0J-23750D01*
G01*
X2222800Y484250D01*
G75*
G02*
X2199050Y460500I-23750J0D01*
G01*
X2149050Y460500D01*
G75*
G02*
X2125300Y484250I0J23750D01*
G01*
G37*
G04 #@! TD.AperFunction*
G04 #@! TA.AperFunction,SMDPad,CuDef*
G36*
G01*
X1942800Y484250D02*
X1942800Y531750D01*
G75*
G02*
X1966550Y555500I23750J0D01*
G01*
X2016550Y555500D01*
G75*
G02*
X2040300Y531750I0J-23750D01*
G01*
X2040300Y484250D01*
G75*
G02*
X2016550Y460500I-23750J0D01*
G01*
X1966550Y460500D01*
G75*
G02*
X1942800Y484250I0J23750D01*
G01*
G37*
G04 #@! TD.AperFunction*
G04 #@! TA.AperFunction,SMDPad,CuDef*
G36*
G01*
X1820500Y928750D02*
X1820500Y976250D01*
G75*
G02*
X1844250Y1000000I23750J0D01*
G01*
X1894250Y1000000D01*
G75*
G02*
X1918000Y976250I0J-23750D01*
G01*
X1918000Y928750D01*
G75*
G02*
X1894250Y905000I-23750J0D01*
G01*
X1844250Y905000D01*
G75*
G02*
X1820500Y928750I0J23750D01*
G01*
G37*
G04 #@! TD.AperFunction*
G04 #@! TA.AperFunction,SMDPad,CuDef*
G36*
G01*
X1638000Y928750D02*
X1638000Y976250D01*
G75*
G02*
X1661750Y1000000I23750J0D01*
G01*
X1711750Y1000000D01*
G75*
G02*
X1735500Y976250I0J-23750D01*
G01*
X1735500Y928750D01*
G75*
G02*
X1711750Y905000I-23750J0D01*
G01*
X1661750Y905000D01*
G75*
G02*
X1638000Y928750I0J23750D01*
G01*
G37*
G04 #@! TD.AperFunction*
G04 #@! TA.AperFunction,SMDPad,CuDef*
G36*
G01*
X2912700Y1551050D02*
X2912700Y1598550D01*
G75*
G02*
X2936450Y1622300I23750J0D01*
G01*
X2986450Y1622300D01*
G75*
G02*
X3010200Y1598550I0J-23750D01*
G01*
X3010200Y1551050D01*
G75*
G02*
X2986450Y1527300I-23750J0D01*
G01*
X2936450Y1527300D01*
G75*
G02*
X2912700Y1551050I0J23750D01*
G01*
G37*
G04 #@! TD.AperFunction*
G04 #@! TA.AperFunction,SMDPad,CuDef*
G36*
G01*
X2730200Y1551050D02*
X2730200Y1598550D01*
G75*
G02*
X2753950Y1622300I23750J0D01*
G01*
X2803950Y1622300D01*
G75*
G02*
X2827700Y1598550I0J-23750D01*
G01*
X2827700Y1551050D01*
G75*
G02*
X2803950Y1527300I-23750J0D01*
G01*
X2753950Y1527300D01*
G75*
G02*
X2730200Y1551050I0J23750D01*
G01*
G37*
G04 #@! TD.AperFunction*
G04 #@! TA.AperFunction,SMDPad,CuDef*
G36*
G01*
X2912700Y1385950D02*
X2912700Y1433450D01*
G75*
G02*
X2936450Y1457200I23750J0D01*
G01*
X2986450Y1457200D01*
G75*
G02*
X3010200Y1433450I0J-23750D01*
G01*
X3010200Y1385950D01*
G75*
G02*
X2986450Y1362200I-23750J0D01*
G01*
X2936450Y1362200D01*
G75*
G02*
X2912700Y1385950I0J23750D01*
G01*
G37*
G04 #@! TD.AperFunction*
G04 #@! TA.AperFunction,SMDPad,CuDef*
G36*
G01*
X2730200Y1385950D02*
X2730200Y1433450D01*
G75*
G02*
X2753950Y1457200I23750J0D01*
G01*
X2803950Y1457200D01*
G75*
G02*
X2827700Y1433450I0J-23750D01*
G01*
X2827700Y1385950D01*
G75*
G02*
X2803950Y1362200I-23750J0D01*
G01*
X2753950Y1362200D01*
G75*
G02*
X2730200Y1385950I0J23750D01*
G01*
G37*
G04 #@! TD.AperFunction*
G04 #@! TA.AperFunction,SMDPad,CuDef*
G36*
G01*
X973500Y1242950D02*
X973500Y1195450D01*
G75*
G02*
X949750Y1171700I-23750J0D01*
G01*
X899750Y1171700D01*
G75*
G02*
X876000Y1195450I0J23750D01*
G01*
X876000Y1242950D01*
G75*
G02*
X899750Y1266700I23750J0D01*
G01*
X949750Y1266700D01*
G75*
G02*
X973500Y1242950I0J-23750D01*
G01*
G37*
G04 #@! TD.AperFunction*
G04 #@! TA.AperFunction,SMDPad,CuDef*
G36*
G01*
X1156000Y1242950D02*
X1156000Y1195450D01*
G75*
G02*
X1132250Y1171700I-23750J0D01*
G01*
X1082250Y1171700D01*
G75*
G02*
X1058500Y1195450I0J23750D01*
G01*
X1058500Y1242950D01*
G75*
G02*
X1082250Y1266700I23750J0D01*
G01*
X1132250Y1266700D01*
G75*
G02*
X1156000Y1242950I0J-23750D01*
G01*
G37*
G04 #@! TD.AperFunction*
G04 #@! TA.AperFunction,SMDPad,CuDef*
G36*
G01*
X1303700Y1242950D02*
X1303700Y1195450D01*
G75*
G02*
X1279950Y1171700I-23750J0D01*
G01*
X1229950Y1171700D01*
G75*
G02*
X1206200Y1195450I0J23750D01*
G01*
X1206200Y1242950D01*
G75*
G02*
X1229950Y1266700I23750J0D01*
G01*
X1279950Y1266700D01*
G75*
G02*
X1303700Y1242950I0J-23750D01*
G01*
G37*
G04 #@! TD.AperFunction*
G04 #@! TA.AperFunction,SMDPad,CuDef*
G36*
G01*
X1486200Y1242950D02*
X1486200Y1195450D01*
G75*
G02*
X1462450Y1171700I-23750J0D01*
G01*
X1412450Y1171700D01*
G75*
G02*
X1388700Y1195450I0J23750D01*
G01*
X1388700Y1242950D01*
G75*
G02*
X1412450Y1266700I23750J0D01*
G01*
X1462450Y1266700D01*
G75*
G02*
X1486200Y1242950I0J-23750D01*
G01*
G37*
G04 #@! TD.AperFunction*
G04 #@! TA.AperFunction,SMDPad,CuDef*
G36*
G01*
X268350Y1329100D02*
X315850Y1329100D01*
G75*
G02*
X339600Y1305350I0J-23750D01*
G01*
X339600Y1255350D01*
G75*
G02*
X315850Y1231600I-23750J0D01*
G01*
X268350Y1231600D01*
G75*
G02*
X244600Y1255350I0J23750D01*
G01*
X244600Y1305350D01*
G75*
G02*
X268350Y1329100I23750J0D01*
G01*
G37*
G04 #@! TD.AperFunction*
G04 #@! TA.AperFunction,SMDPad,CuDef*
G36*
G01*
X268350Y1511600D02*
X315850Y1511600D01*
G75*
G02*
X339600Y1487850I0J-23750D01*
G01*
X339600Y1437850D01*
G75*
G02*
X315850Y1414100I-23750J0D01*
G01*
X268350Y1414100D01*
G75*
G02*
X244600Y1437850I0J23750D01*
G01*
X244600Y1487850D01*
G75*
G02*
X268350Y1511600I23750J0D01*
G01*
G37*
G04 #@! TD.AperFunction*
D15*
X1244700Y1917700D03*
X939700Y1917700D03*
D10*
X3225800Y1473200D03*
X3225800Y1727200D03*
D11*
X3225800Y1981200D03*
D10*
X3213100Y266700D03*
X3213100Y520700D03*
X3213100Y774700D03*
D11*
X3213100Y1028700D03*
G04 #@! TA.AperFunction,SMDPad,CuDef*
G36*
G01*
X2380500Y279000D02*
X2380500Y229000D01*
G75*
G02*
X2358000Y206500I-22500J0D01*
G01*
X2313000Y206500D01*
G75*
G02*
X2290500Y229000I0J22500D01*
G01*
X2290500Y279000D01*
G75*
G02*
X2313000Y301500I22500J0D01*
G01*
X2358000Y301500D01*
G75*
G02*
X2380500Y279000I0J-22500D01*
G01*
G37*
G04 #@! TD.AperFunction*
G04 #@! TA.AperFunction,SMDPad,CuDef*
G36*
G01*
X2535500Y279000D02*
X2535500Y229000D01*
G75*
G02*
X2513000Y206500I-22500J0D01*
G01*
X2468000Y206500D01*
G75*
G02*
X2445500Y229000I0J22500D01*
G01*
X2445500Y279000D01*
G75*
G02*
X2468000Y301500I22500J0D01*
G01*
X2513000Y301500D01*
G75*
G02*
X2535500Y279000I0J-22500D01*
G01*
G37*
G04 #@! TD.AperFunction*
G04 #@! TA.AperFunction,SMDPad,CuDef*
G36*
G01*
X2380500Y533000D02*
X2380500Y483000D01*
G75*
G02*
X2358000Y460500I-22500J0D01*
G01*
X2313000Y460500D01*
G75*
G02*
X2290500Y483000I0J22500D01*
G01*
X2290500Y533000D01*
G75*
G02*
X2313000Y555500I22500J0D01*
G01*
X2358000Y555500D01*
G75*
G02*
X2380500Y533000I0J-22500D01*
G01*
G37*
G04 #@! TD.AperFunction*
G04 #@! TA.AperFunction,SMDPad,CuDef*
G36*
G01*
X2535500Y533000D02*
X2535500Y483000D01*
G75*
G02*
X2513000Y460500I-22500J0D01*
G01*
X2468000Y460500D01*
G75*
G02*
X2445500Y483000I0J22500D01*
G01*
X2445500Y533000D01*
G75*
G02*
X2468000Y555500I22500J0D01*
G01*
X2513000Y555500D01*
G75*
G02*
X2535500Y533000I0J-22500D01*
G01*
G37*
G04 #@! TD.AperFunction*
G04 #@! TA.AperFunction,SMDPad,CuDef*
G36*
G01*
X2362600Y881900D02*
X2412600Y881900D01*
G75*
G02*
X2435100Y859400I0J-22500D01*
G01*
X2435100Y814400D01*
G75*
G02*
X2412600Y791900I-22500J0D01*
G01*
X2362600Y791900D01*
G75*
G02*
X2340100Y814400I0J22500D01*
G01*
X2340100Y859400D01*
G75*
G02*
X2362600Y881900I22500J0D01*
G01*
G37*
G04 #@! TD.AperFunction*
G04 #@! TA.AperFunction,SMDPad,CuDef*
G36*
G01*
X2362600Y1036900D02*
X2412600Y1036900D01*
G75*
G02*
X2435100Y1014400I0J-22500D01*
G01*
X2435100Y969400D01*
G75*
G02*
X2412600Y946900I-22500J0D01*
G01*
X2362600Y946900D01*
G75*
G02*
X2340100Y969400I0J22500D01*
G01*
X2340100Y1014400D01*
G75*
G02*
X2362600Y1036900I22500J0D01*
G01*
G37*
G04 #@! TD.AperFunction*
G04 #@! TA.AperFunction,SMDPad,CuDef*
G36*
G01*
X2921400Y907300D02*
X2971400Y907300D01*
G75*
G02*
X2993900Y884800I0J-22500D01*
G01*
X2993900Y839800D01*
G75*
G02*
X2971400Y817300I-22500J0D01*
G01*
X2921400Y817300D01*
G75*
G02*
X2898900Y839800I0J22500D01*
G01*
X2898900Y884800D01*
G75*
G02*
X2921400Y907300I22500J0D01*
G01*
G37*
G04 #@! TD.AperFunction*
G04 #@! TA.AperFunction,SMDPad,CuDef*
G36*
G01*
X2921400Y1062300D02*
X2971400Y1062300D01*
G75*
G02*
X2993900Y1039800I0J-22500D01*
G01*
X2993900Y994800D01*
G75*
G02*
X2971400Y972300I-22500J0D01*
G01*
X2921400Y972300D01*
G75*
G02*
X2898900Y994800I0J22500D01*
G01*
X2898900Y1039800D01*
G75*
G02*
X2921400Y1062300I22500J0D01*
G01*
G37*
G04 #@! TD.AperFunction*
G04 #@! TA.AperFunction,SMDPad,CuDef*
G36*
G01*
X2837700Y1764900D02*
X2837700Y1714900D01*
G75*
G02*
X2815200Y1692400I-22500J0D01*
G01*
X2770200Y1692400D01*
G75*
G02*
X2747700Y1714900I0J22500D01*
G01*
X2747700Y1764900D01*
G75*
G02*
X2770200Y1787400I22500J0D01*
G01*
X2815200Y1787400D01*
G75*
G02*
X2837700Y1764900I0J-22500D01*
G01*
G37*
G04 #@! TD.AperFunction*
G04 #@! TA.AperFunction,SMDPad,CuDef*
G36*
G01*
X2992700Y1764900D02*
X2992700Y1714900D01*
G75*
G02*
X2970200Y1692400I-22500J0D01*
G01*
X2925200Y1692400D01*
G75*
G02*
X2902700Y1714900I0J22500D01*
G01*
X2902700Y1764900D01*
G75*
G02*
X2925200Y1787400I22500J0D01*
G01*
X2970200Y1787400D01*
G75*
G02*
X2992700Y1764900I0J-22500D01*
G01*
G37*
G04 #@! TD.AperFunction*
G04 #@! TA.AperFunction,SMDPad,CuDef*
G36*
G01*
X1720100Y279000D02*
X1720100Y229000D01*
G75*
G02*
X1697600Y206500I-22500J0D01*
G01*
X1652600Y206500D01*
G75*
G02*
X1630100Y229000I0J22500D01*
G01*
X1630100Y279000D01*
G75*
G02*
X1652600Y301500I22500J0D01*
G01*
X1697600Y301500D01*
G75*
G02*
X1720100Y279000I0J-22500D01*
G01*
G37*
G04 #@! TD.AperFunction*
G04 #@! TA.AperFunction,SMDPad,CuDef*
G36*
G01*
X1875100Y279000D02*
X1875100Y229000D01*
G75*
G02*
X1852600Y206500I-22500J0D01*
G01*
X1807600Y206500D01*
G75*
G02*
X1785100Y229000I0J22500D01*
G01*
X1785100Y279000D01*
G75*
G02*
X1807600Y301500I22500J0D01*
G01*
X1852600Y301500D01*
G75*
G02*
X1875100Y279000I0J-22500D01*
G01*
G37*
G04 #@! TD.AperFunction*
G04 #@! TA.AperFunction,SMDPad,CuDef*
G36*
G01*
X1720100Y533000D02*
X1720100Y483000D01*
G75*
G02*
X1697600Y460500I-22500J0D01*
G01*
X1652600Y460500D01*
G75*
G02*
X1630100Y483000I0J22500D01*
G01*
X1630100Y533000D01*
G75*
G02*
X1652600Y555500I22500J0D01*
G01*
X1697600Y555500D01*
G75*
G02*
X1720100Y533000I0J-22500D01*
G01*
G37*
G04 #@! TD.AperFunction*
G04 #@! TA.AperFunction,SMDPad,CuDef*
G36*
G01*
X1875100Y533000D02*
X1875100Y483000D01*
G75*
G02*
X1852600Y460500I-22500J0D01*
G01*
X1807600Y460500D01*
G75*
G02*
X1785100Y483000I0J22500D01*
G01*
X1785100Y533000D01*
G75*
G02*
X1807600Y555500I22500J0D01*
G01*
X1852600Y555500D01*
G75*
G02*
X1875100Y533000I0J-22500D01*
G01*
G37*
G04 #@! TD.AperFunction*
G04 #@! TA.AperFunction,SMDPad,CuDef*
G36*
G01*
X1810500Y775100D02*
X1810500Y825100D01*
G75*
G02*
X1833000Y847600I22500J0D01*
G01*
X1878000Y847600D01*
G75*
G02*
X1900500Y825100I0J-22500D01*
G01*
X1900500Y775100D01*
G75*
G02*
X1878000Y752600I-22500J0D01*
G01*
X1833000Y752600D01*
G75*
G02*
X1810500Y775100I0J22500D01*
G01*
G37*
G04 #@! TD.AperFunction*
G04 #@! TA.AperFunction,SMDPad,CuDef*
G36*
G01*
X1655500Y775100D02*
X1655500Y825100D01*
G75*
G02*
X1678000Y847600I22500J0D01*
G01*
X1723000Y847600D01*
G75*
G02*
X1745500Y825100I0J-22500D01*
G01*
X1745500Y775100D01*
G75*
G02*
X1723000Y752600I-22500J0D01*
G01*
X1678000Y752600D01*
G75*
G02*
X1655500Y775100I0J22500D01*
G01*
G37*
G04 #@! TD.AperFunction*
G04 #@! TA.AperFunction,SMDPad,CuDef*
G36*
G01*
X2286400Y1783600D02*
X2336400Y1783600D01*
G75*
G02*
X2358900Y1761100I0J-22500D01*
G01*
X2358900Y1716100D01*
G75*
G02*
X2336400Y1693600I-22500J0D01*
G01*
X2286400Y1693600D01*
G75*
G02*
X2263900Y1716100I0J22500D01*
G01*
X2263900Y1761100D01*
G75*
G02*
X2286400Y1783600I22500J0D01*
G01*
G37*
G04 #@! TD.AperFunction*
G04 #@! TA.AperFunction,SMDPad,CuDef*
G36*
G01*
X2286400Y1938600D02*
X2336400Y1938600D01*
G75*
G02*
X2358900Y1916100I0J-22500D01*
G01*
X2358900Y1871100D01*
G75*
G02*
X2336400Y1848600I-22500J0D01*
G01*
X2286400Y1848600D01*
G75*
G02*
X2263900Y1871100I0J22500D01*
G01*
X2263900Y1916100D01*
G75*
G02*
X2286400Y1938600I22500J0D01*
G01*
G37*
G04 #@! TD.AperFunction*
G04 #@! TA.AperFunction,SMDPad,CuDef*
G36*
G01*
X1956600Y1439300D02*
X1956600Y1329300D01*
G75*
G02*
X1931600Y1304300I-25000J0D01*
G01*
X1721600Y1304300D01*
G75*
G02*
X1696600Y1329300I0J25000D01*
G01*
X1696600Y1439300D01*
G75*
G02*
X1721600Y1464300I25000J0D01*
G01*
X1931600Y1464300D01*
G75*
G02*
X1956600Y1439300I0J-25000D01*
G01*
G37*
G04 #@! TD.AperFunction*
G04 #@! TA.AperFunction,SMDPad,CuDef*
G36*
G01*
X2316600Y1439300D02*
X2316600Y1329300D01*
G75*
G02*
X2291600Y1304300I-25000J0D01*
G01*
X2081600Y1304300D01*
G75*
G02*
X2056600Y1329300I0J25000D01*
G01*
X2056600Y1439300D01*
G75*
G02*
X2081600Y1464300I25000J0D01*
G01*
X2291600Y1464300D01*
G75*
G02*
X2316600Y1439300I0J-25000D01*
G01*
G37*
G04 #@! TD.AperFunction*
G04 #@! TA.AperFunction,SMDPad,CuDef*
G36*
G01*
X1702200Y1809000D02*
X1752200Y1809000D01*
G75*
G02*
X1774700Y1786500I0J-22500D01*
G01*
X1774700Y1741500D01*
G75*
G02*
X1752200Y1719000I-22500J0D01*
G01*
X1702200Y1719000D01*
G75*
G02*
X1679700Y1741500I0J22500D01*
G01*
X1679700Y1786500D01*
G75*
G02*
X1702200Y1809000I22500J0D01*
G01*
G37*
G04 #@! TD.AperFunction*
G04 #@! TA.AperFunction,SMDPad,CuDef*
G36*
G01*
X1702200Y1964000D02*
X1752200Y1964000D01*
G75*
G02*
X1774700Y1941500I0J-22500D01*
G01*
X1774700Y1896500D01*
G75*
G02*
X1752200Y1874000I-22500J0D01*
G01*
X1702200Y1874000D01*
G75*
G02*
X1679700Y1896500I0J22500D01*
G01*
X1679700Y1941500D01*
G75*
G02*
X1702200Y1964000I22500J0D01*
G01*
G37*
G04 #@! TD.AperFunction*
G04 #@! TA.AperFunction,SMDPad,CuDef*
G36*
G01*
X1245000Y1491500D02*
X1295000Y1491500D01*
G75*
G02*
X1317500Y1469000I0J-22500D01*
G01*
X1317500Y1424000D01*
G75*
G02*
X1295000Y1401500I-22500J0D01*
G01*
X1245000Y1401500D01*
G75*
G02*
X1222500Y1424000I0J22500D01*
G01*
X1222500Y1469000D01*
G75*
G02*
X1245000Y1491500I22500J0D01*
G01*
G37*
G04 #@! TD.AperFunction*
G04 #@! TA.AperFunction,SMDPad,CuDef*
G36*
G01*
X1245000Y1646500D02*
X1295000Y1646500D01*
G75*
G02*
X1317500Y1624000I0J-22500D01*
G01*
X1317500Y1579000D01*
G75*
G02*
X1295000Y1556500I-22500J0D01*
G01*
X1245000Y1556500D01*
G75*
G02*
X1222500Y1579000I0J22500D01*
G01*
X1222500Y1624000D01*
G75*
G02*
X1245000Y1646500I22500J0D01*
G01*
G37*
G04 #@! TD.AperFunction*
G04 #@! TA.AperFunction,SMDPad,CuDef*
G36*
G01*
X1408200Y1510200D02*
X1538200Y1510200D01*
G75*
G02*
X1563200Y1485200I0J-25000D01*
G01*
X1563200Y1420200D01*
G75*
G02*
X1538200Y1395200I-25000J0D01*
G01*
X1408200Y1395200D01*
G75*
G02*
X1383200Y1420200I0J25000D01*
G01*
X1383200Y1485200D01*
G75*
G02*
X1408200Y1510200I25000J0D01*
G01*
G37*
G04 #@! TD.AperFunction*
G04 #@! TA.AperFunction,SMDPad,CuDef*
G36*
G01*
X1408200Y1805200D02*
X1538200Y1805200D01*
G75*
G02*
X1563200Y1780200I0J-25000D01*
G01*
X1563200Y1715200D01*
G75*
G02*
X1538200Y1690200I-25000J0D01*
G01*
X1408200Y1690200D01*
G75*
G02*
X1383200Y1715200I0J25000D01*
G01*
X1383200Y1780200D01*
G75*
G02*
X1408200Y1805200I25000J0D01*
G01*
G37*
G04 #@! TD.AperFunction*
G04 #@! TA.AperFunction,SMDPad,CuDef*
G36*
G01*
X838600Y704100D02*
X888600Y704100D01*
G75*
G02*
X911100Y681600I0J-22500D01*
G01*
X911100Y636600D01*
G75*
G02*
X888600Y614100I-22500J0D01*
G01*
X838600Y614100D01*
G75*
G02*
X816100Y636600I0J22500D01*
G01*
X816100Y681600D01*
G75*
G02*
X838600Y704100I22500J0D01*
G01*
G37*
G04 #@! TD.AperFunction*
G04 #@! TA.AperFunction,SMDPad,CuDef*
G36*
G01*
X838600Y859100D02*
X888600Y859100D01*
G75*
G02*
X911100Y836600I0J-22500D01*
G01*
X911100Y791600D01*
G75*
G02*
X888600Y769100I-22500J0D01*
G01*
X838600Y769100D01*
G75*
G02*
X816100Y791600I0J22500D01*
G01*
X816100Y836600D01*
G75*
G02*
X838600Y859100I22500J0D01*
G01*
G37*
G04 #@! TD.AperFunction*
G04 #@! TA.AperFunction,SMDPad,CuDef*
G36*
G01*
X674200Y1916200D02*
X674200Y2046200D01*
G75*
G02*
X699200Y2071200I25000J0D01*
G01*
X764200Y2071200D01*
G75*
G02*
X789200Y2046200I0J-25000D01*
G01*
X789200Y1916200D01*
G75*
G02*
X764200Y1891200I-25000J0D01*
G01*
X699200Y1891200D01*
G75*
G02*
X674200Y1916200I0J25000D01*
G01*
G37*
G04 #@! TD.AperFunction*
G04 #@! TA.AperFunction,SMDPad,CuDef*
G36*
G01*
X379200Y1916200D02*
X379200Y2046200D01*
G75*
G02*
X404200Y2071200I25000J0D01*
G01*
X469200Y2071200D01*
G75*
G02*
X494200Y2046200I0J-25000D01*
G01*
X494200Y1916200D01*
G75*
G02*
X469200Y1891200I-25000J0D01*
G01*
X404200Y1891200D01*
G75*
G02*
X379200Y1916200I0J25000D01*
G01*
G37*
G04 #@! TD.AperFunction*
G04 #@! TA.AperFunction,SMDPad,CuDef*
G36*
G01*
X591300Y1753000D02*
X591300Y1803000D01*
G75*
G02*
X613800Y1825500I22500J0D01*
G01*
X658800Y1825500D01*
G75*
G02*
X681300Y1803000I0J-22500D01*
G01*
X681300Y1753000D01*
G75*
G02*
X658800Y1730500I-22500J0D01*
G01*
X613800Y1730500D01*
G75*
G02*
X591300Y1753000I0J22500D01*
G01*
G37*
G04 #@! TD.AperFunction*
G04 #@! TA.AperFunction,SMDPad,CuDef*
G36*
G01*
X436300Y1753000D02*
X436300Y1803000D01*
G75*
G02*
X458800Y1825500I22500J0D01*
G01*
X503800Y1825500D01*
G75*
G02*
X526300Y1803000I0J-22500D01*
G01*
X526300Y1753000D01*
G75*
G02*
X503800Y1730500I-22500J0D01*
G01*
X458800Y1730500D01*
G75*
G02*
X436300Y1753000I0J22500D01*
G01*
G37*
G04 #@! TD.AperFunction*
D16*
X0Y2298700D03*
X0Y0D03*
X3479800Y2298700D03*
X508000Y0D03*
X1117600Y0D03*
X1714500Y0D03*
X2311400Y0D03*
X2882900Y0D03*
X3479800Y0D03*
X3479800Y381000D03*
X3479800Y774700D03*
X3479800Y1143000D03*
X3479800Y1536700D03*
X3479800Y1930400D03*
X508000Y2298700D03*
X2311400Y2298700D03*
X1117600Y2298700D03*
X1714500Y2298700D03*
X2882900Y2298700D03*
X0Y774700D03*
X0Y1143000D03*
X0Y1930400D03*
X0Y381000D03*
X0Y1536700D03*
X292100Y1143000D03*
X660400Y1612900D03*
X762000Y1612900D03*
X660400Y1511300D03*
X762000Y1511300D03*
X660400Y1409700D03*
X762000Y1409700D03*
X1104900Y1422400D03*
X2792700Y1878300D03*
X2311400Y1600200D03*
X1727200Y1587500D03*
X2006600Y800100D03*
X2222500Y647700D03*
X1549400Y469900D03*
X1066800Y609600D03*
X3098800Y1358900D03*
X1600200Y1219200D03*
X1549400Y1892300D03*
X1422400Y533400D03*
X1447800Y774700D03*
X1270000Y723900D03*
D17*
X292100Y1280350D02*
X292100Y1143000D01*
X2792700Y1739900D02*
X2792700Y1878300D01*
X1855500Y800100D02*
X2006600Y800100D01*
X2653000Y836900D02*
X2667000Y850900D01*
X2387600Y836900D02*
X2653000Y836900D01*
X3125500Y862300D02*
X3213100Y774700D01*
X2946400Y862300D02*
X3125500Y862300D01*
X2222500Y635000D02*
X2222500Y647700D01*
X2335500Y522000D02*
X2222500Y635000D01*
X2335500Y508000D02*
X2335500Y522000D01*
X1675100Y508000D02*
X1587500Y508000D01*
X1587500Y508000D02*
X1549400Y469900D01*
X863600Y659100D02*
X1004600Y659100D01*
X1054100Y609600D02*
X1066800Y609600D01*
X1004600Y659100D02*
X1054100Y609600D01*
X1675100Y39400D02*
X1714500Y0D01*
X1675100Y254000D02*
X1675100Y39400D01*
X1435100Y206500D02*
X1435100Y38100D01*
X1397000Y0D02*
X1117600Y0D01*
X1435100Y38100D02*
X1397000Y0D01*
X3048000Y1409700D02*
X3098800Y1358900D01*
X2961450Y1409700D02*
X3048000Y1409700D01*
X2335500Y24100D02*
X2311400Y0D01*
X2335500Y254000D02*
X2335500Y24100D01*
X491200Y1768100D02*
X481300Y1778000D01*
X2212150Y1358750D02*
X2186600Y1384300D01*
X2212150Y952500D02*
X2212150Y1358750D01*
X1437450Y1219200D02*
X1600200Y1219200D01*
X1987800Y1911100D02*
X1896600Y1911100D01*
X1993900Y1905000D02*
X1987800Y1911100D01*
X1993900Y1752600D02*
X1993900Y1905000D01*
X1962400Y1721100D02*
X1993900Y1752600D01*
X1896600Y1721100D02*
X1962400Y1721100D01*
X1451100Y952500D02*
X1435100Y936500D01*
X1686750Y952500D02*
X1451100Y952500D01*
X1686750Y813850D02*
X1700500Y800100D01*
X1686750Y952500D02*
X1686750Y813850D01*
X1447800Y923800D02*
X1435100Y936500D01*
X1447800Y774700D02*
X1447800Y923800D01*
X1346200Y457200D02*
X1422400Y533400D01*
X673100Y457200D02*
X1346200Y457200D01*
X571500Y558800D02*
X673100Y457200D01*
X1991550Y508000D02*
X1830100Y508000D01*
X1181100Y698500D02*
X1181100Y936500D01*
X1244600Y635000D02*
X1181100Y698500D01*
X1703100Y635000D02*
X1244600Y635000D01*
X1830100Y508000D02*
X1703100Y635000D01*
X1244600Y635000D02*
X1244600Y609600D01*
X1244600Y609600D02*
X1155700Y520700D01*
X1155700Y520700D02*
X825500Y520700D01*
X435000Y676300D02*
X317500Y558800D01*
X669900Y676300D02*
X435000Y676300D01*
X825500Y520700D02*
X669900Y676300D01*
X1991550Y254000D02*
X1830100Y254000D01*
X1830100Y254000D02*
X1830100Y303500D01*
X1830100Y303500D02*
X1765300Y368300D01*
X1765300Y368300D02*
X1231900Y368300D01*
X1181100Y317500D02*
X1181100Y206500D01*
X1231900Y368300D02*
X1181100Y317500D01*
X2961450Y1726150D02*
X2947700Y1739900D01*
X2961450Y1574800D02*
X2961450Y1726150D01*
X3124200Y1574800D02*
X3225800Y1473200D01*
X2961450Y1574800D02*
X3124200Y1574800D01*
X2503200Y266700D02*
X2490500Y254000D01*
X3213100Y266700D02*
X2503200Y266700D01*
X2490500Y254000D02*
X2490500Y316200D01*
X2490500Y316200D02*
X2438400Y368300D01*
X2438400Y368300D02*
X2209800Y368300D01*
X2174050Y332550D02*
X2174050Y254000D01*
X2209800Y368300D02*
X2174050Y332550D01*
X2490500Y445800D02*
X2490500Y508000D01*
X2463800Y419100D02*
X2490500Y445800D01*
X2197100Y419100D02*
X2463800Y419100D01*
X2174050Y442150D02*
X2197100Y419100D01*
X2174050Y508000D02*
X2174050Y442150D01*
X2503200Y520700D02*
X2490500Y508000D01*
X3213100Y520700D02*
X2503200Y520700D01*
X931200Y1896500D02*
X939700Y1905000D01*
X931200Y1598600D02*
X931200Y1896500D01*
X327850Y1498600D02*
X292100Y1462850D01*
X491200Y1498600D02*
X327850Y1498600D01*
X1254950Y1219200D02*
X1107250Y1219200D01*
X1107250Y1219200D02*
X1206500Y1219200D01*
X491200Y1185200D02*
X491200Y1398600D01*
X571500Y1104900D02*
X491200Y1185200D01*
X1003300Y1104900D02*
X571500Y1104900D01*
X1107250Y1208850D02*
X1003300Y1104900D01*
X1107250Y1219200D02*
X1107250Y1208850D01*
X2029650Y952500D02*
X1869250Y952500D01*
X2387600Y991900D02*
X2388900Y991900D01*
X2501900Y1104900D02*
X2667000Y1104900D01*
X2388900Y991900D02*
X2501900Y1104900D01*
X2387600Y977900D02*
X2387600Y991900D01*
X2273300Y863600D02*
X2387600Y977900D01*
X2118550Y863600D02*
X2273300Y863600D01*
X2029650Y952500D02*
X2118550Y863600D01*
X1054100Y206500D02*
X955800Y206500D01*
X955800Y206500D02*
X876300Y127000D01*
X495300Y127000D02*
X317500Y304800D01*
X876300Y127000D02*
X495300Y127000D01*
X1308100Y936500D02*
X1308100Y800100D01*
X2778950Y1409700D02*
X2778950Y1574800D01*
X1358900Y749300D02*
X1333500Y749300D01*
X1308100Y800100D02*
X1358900Y749300D01*
X1333500Y749300D02*
X1308100Y723900D01*
X1308100Y723900D02*
X1270000Y723900D01*
X2905950Y1282700D02*
X2778950Y1409700D01*
X3378200Y711200D02*
X3378200Y1206500D01*
X3159100Y638200D02*
X3305200Y638200D01*
X3302000Y1282700D02*
X2905950Y1282700D01*
X1993900Y723900D02*
X3073400Y723900D01*
X3378200Y1206500D02*
X3302000Y1282700D01*
X1968500Y698500D02*
X1993900Y723900D01*
X3073400Y723900D02*
X3159100Y638200D01*
X1409700Y698500D02*
X1968500Y698500D01*
X3305200Y638200D02*
X3378200Y711200D01*
X1358900Y749300D02*
X1409700Y698500D01*
D18*
X3365500Y1879600D02*
X3035300Y1879600D01*
X3035300Y2006600D01*
X3035056Y2009078D01*
X3034333Y2011460D01*
X3033160Y2013656D01*
X3031580Y2015580D01*
X3029645Y2017167D01*
X2877245Y2118767D01*
X2875048Y2119938D01*
X2872665Y2120659D01*
X2870200Y2120900D01*
X1342962Y2120900D01*
X1342934Y2120934D01*
X1337955Y2125021D01*
X1332274Y2128057D01*
X1326110Y2129927D01*
X1319700Y2130558D01*
X1169700Y2130558D01*
X1163290Y2129927D01*
X1157126Y2128057D01*
X1151445Y2125021D01*
X1146466Y2120934D01*
X1146438Y2120900D01*
X1037962Y2120900D01*
X1037934Y2120934D01*
X1032955Y2125021D01*
X1027274Y2128057D01*
X1021110Y2129927D01*
X1014700Y2130558D01*
X864700Y2130558D01*
X858290Y2129927D01*
X852126Y2128057D01*
X846445Y2125021D01*
X841466Y2120934D01*
X841438Y2120900D01*
X584200Y2120900D01*
X581722Y2120656D01*
X579340Y2119933D01*
X577144Y2118760D01*
X575220Y2117180D01*
X573640Y2115256D01*
X572467Y2113060D01*
X571744Y2110678D01*
X571500Y2108200D01*
X571500Y1838299D01*
X567771Y1833755D01*
X562656Y1824185D01*
X559506Y1813800D01*
X558442Y1803000D01*
X558442Y1753000D01*
X559506Y1742200D01*
X562656Y1731815D01*
X567771Y1722245D01*
X571500Y1717701D01*
X571500Y1544647D01*
X567610Y1545827D01*
X561200Y1546458D01*
X421200Y1546458D01*
X419100Y1546251D01*
X419100Y1765300D01*
X418856Y1767778D01*
X418133Y1770160D01*
X416960Y1772356D01*
X415380Y1774280D01*
X413456Y1775860D01*
X411260Y1777033D01*
X408878Y1777756D01*
X406400Y1778000D01*
X190500Y1778000D01*
X190500Y2222500D01*
X3365500Y2222500D01*
X3365500Y1879600D01*
G04 #@! TA.AperFunction,Conductor*
D19*
G36*
X3365500Y1879600D02*
G01*
X3035300Y1879600D01*
X3035300Y2006600D01*
X3035056Y2009078D01*
X3034333Y2011460D01*
X3033160Y2013656D01*
X3031580Y2015580D01*
X3029645Y2017167D01*
X2877245Y2118767D01*
X2875048Y2119938D01*
X2872665Y2120659D01*
X2870200Y2120900D01*
X1342962Y2120900D01*
X1342934Y2120934D01*
X1337955Y2125021D01*
X1332274Y2128057D01*
X1326110Y2129927D01*
X1319700Y2130558D01*
X1169700Y2130558D01*
X1163290Y2129927D01*
X1157126Y2128057D01*
X1151445Y2125021D01*
X1146466Y2120934D01*
X1146438Y2120900D01*
X1037962Y2120900D01*
X1037934Y2120934D01*
X1032955Y2125021D01*
X1027274Y2128057D01*
X1021110Y2129927D01*
X1014700Y2130558D01*
X864700Y2130558D01*
X858290Y2129927D01*
X852126Y2128057D01*
X846445Y2125021D01*
X841466Y2120934D01*
X841438Y2120900D01*
X584200Y2120900D01*
X581722Y2120656D01*
X579340Y2119933D01*
X577144Y2118760D01*
X575220Y2117180D01*
X573640Y2115256D01*
X572467Y2113060D01*
X571744Y2110678D01*
X571500Y2108200D01*
X571500Y1838299D01*
X567771Y1833755D01*
X562656Y1824185D01*
X559506Y1813800D01*
X558442Y1803000D01*
X558442Y1753000D01*
X559506Y1742200D01*
X562656Y1731815D01*
X567771Y1722245D01*
X571500Y1717701D01*
X571500Y1544647D01*
X567610Y1545827D01*
X561200Y1546458D01*
X421200Y1546458D01*
X419100Y1546251D01*
X419100Y1765300D01*
X418856Y1767778D01*
X418133Y1770160D01*
X416960Y1772356D01*
X415380Y1774280D01*
X413456Y1775860D01*
X411260Y1777033D01*
X408878Y1777756D01*
X406400Y1778000D01*
X190500Y1778000D01*
X190500Y2222500D01*
X3365500Y2222500D01*
X3365500Y1879600D01*
G37*
G04 #@! TD.AperFunction*
D18*
X805500Y1587500D02*
X806128Y1581120D01*
X807989Y1574986D01*
X811011Y1569333D01*
X815078Y1564378D01*
X820033Y1560311D01*
X825686Y1557289D01*
X831820Y1555428D01*
X838200Y1554800D01*
X845713Y1554800D01*
X848626Y1553243D01*
X854790Y1551373D01*
X861200Y1550742D01*
X1001200Y1550742D01*
X1007610Y1551373D01*
X1013774Y1553243D01*
X1016687Y1554800D01*
X1066800Y1554800D01*
X1073150Y1555425D01*
X1079500Y1554800D01*
X1161100Y1554800D01*
X1161100Y1549400D01*
X1161728Y1543020D01*
X1163589Y1536886D01*
X1166611Y1531233D01*
X1170678Y1526278D01*
X1175633Y1522211D01*
X1181286Y1519189D01*
X1187421Y1517328D01*
X1193800Y1516700D01*
X1600200Y1516700D01*
X1606579Y1517328D01*
X1612714Y1519189D01*
X1618367Y1522211D01*
X1623322Y1526278D01*
X1627389Y1531233D01*
X1630411Y1536886D01*
X1632272Y1543020D01*
X1632900Y1549400D01*
X1632900Y1802555D01*
X1651845Y1821500D01*
X1948700Y1821500D01*
X1948700Y1790700D01*
X1841500Y1790700D01*
X1839022Y1790456D01*
X1836640Y1789733D01*
X1834444Y1788560D01*
X1832520Y1786980D01*
X1827740Y1782201D01*
X1825345Y1780921D01*
X1820366Y1776834D01*
X1816279Y1771855D01*
X1814999Y1769460D01*
X1807120Y1761580D01*
X1805540Y1759656D01*
X1804367Y1757460D01*
X1803644Y1755078D01*
X1803400Y1752600D01*
X1803400Y1676400D01*
X1803644Y1673922D01*
X1804367Y1671540D01*
X1805540Y1669344D01*
X1807120Y1667420D01*
X1809044Y1665840D01*
X1811240Y1664667D01*
X1813622Y1663944D01*
X1816100Y1663700D01*
X1822395Y1663700D01*
X1825345Y1661279D01*
X1831026Y1658243D01*
X1837190Y1656373D01*
X1843600Y1655742D01*
X1949600Y1655742D01*
X1956010Y1656373D01*
X1962174Y1658243D01*
X1967855Y1661279D01*
X1970805Y1663700D01*
X2042395Y1663700D01*
X2045345Y1661279D01*
X2051026Y1658243D01*
X2057190Y1656373D01*
X2063600Y1655742D01*
X2169600Y1655742D01*
X2176010Y1656373D01*
X2182174Y1658243D01*
X2187855Y1661279D01*
X2192834Y1665366D01*
X2196921Y1670345D01*
X2197627Y1671666D01*
X2231480Y1705520D01*
X2233060Y1707444D01*
X2234233Y1709640D01*
X2234956Y1712022D01*
X2235200Y1714500D01*
X2235200Y1770700D01*
X2367600Y1770700D01*
X2367600Y1544000D01*
X2019300Y1544000D01*
X2012920Y1543372D01*
X2006786Y1541511D01*
X2001133Y1538489D01*
X1998953Y1536700D01*
X1981200Y1536700D01*
X1978722Y1536456D01*
X1976340Y1535733D01*
X1974144Y1534560D01*
X1972220Y1532980D01*
X1970640Y1531056D01*
X1969467Y1528860D01*
X1968744Y1526478D01*
X1968500Y1524000D01*
X1968500Y1333500D01*
X1016000Y1333500D01*
X1013522Y1333256D01*
X1011140Y1332533D01*
X1008944Y1331360D01*
X1007020Y1329780D01*
X1005440Y1327856D01*
X1004267Y1325660D01*
X1003544Y1323278D01*
X1003300Y1320800D01*
X1003300Y1219200D01*
X622300Y1219200D01*
X622300Y1513600D01*
X828342Y1513600D01*
X828342Y1483600D01*
X828973Y1477190D01*
X830062Y1473600D01*
X828973Y1470010D01*
X828342Y1463600D01*
X828342Y1433600D01*
X828973Y1427190D01*
X830843Y1421026D01*
X833879Y1415345D01*
X837966Y1410366D01*
X842945Y1406279D01*
X848626Y1403243D01*
X854790Y1401373D01*
X861200Y1400742D01*
X1001200Y1400742D01*
X1007610Y1401373D01*
X1013774Y1403243D01*
X1019455Y1406279D01*
X1024434Y1410366D01*
X1028521Y1415345D01*
X1031557Y1421026D01*
X1033427Y1427190D01*
X1034058Y1433600D01*
X1034058Y1463600D01*
X1033427Y1470010D01*
X1032338Y1473600D01*
X1033427Y1477190D01*
X1034058Y1483600D01*
X1034058Y1513600D01*
X1033427Y1520010D01*
X1031557Y1526174D01*
X1028521Y1531855D01*
X1024434Y1536834D01*
X1019455Y1540921D01*
X1013774Y1543957D01*
X1007610Y1545827D01*
X1001200Y1546458D01*
X861200Y1546458D01*
X854790Y1545827D01*
X848626Y1543957D01*
X842945Y1540921D01*
X837966Y1536834D01*
X833879Y1531855D01*
X830843Y1526174D01*
X828973Y1520010D01*
X828342Y1513600D01*
X622300Y1513600D01*
X622300Y2070100D01*
X805500Y2070100D01*
X805500Y1587500D01*
G04 #@! TA.AperFunction,Conductor*
D19*
G36*
X805500Y1587500D02*
G01*
X806128Y1581120D01*
X807989Y1574986D01*
X811011Y1569333D01*
X815078Y1564378D01*
X820033Y1560311D01*
X825686Y1557289D01*
X831820Y1555428D01*
X838200Y1554800D01*
X845713Y1554800D01*
X848626Y1553243D01*
X854790Y1551373D01*
X861200Y1550742D01*
X1001200Y1550742D01*
X1007610Y1551373D01*
X1013774Y1553243D01*
X1016687Y1554800D01*
X1066800Y1554800D01*
X1073150Y1555425D01*
X1079500Y1554800D01*
X1161100Y1554800D01*
X1161100Y1549400D01*
X1161728Y1543020D01*
X1163589Y1536886D01*
X1166611Y1531233D01*
X1170678Y1526278D01*
X1175633Y1522211D01*
X1181286Y1519189D01*
X1187421Y1517328D01*
X1193800Y1516700D01*
X1600200Y1516700D01*
X1606579Y1517328D01*
X1612714Y1519189D01*
X1618367Y1522211D01*
X1623322Y1526278D01*
X1627389Y1531233D01*
X1630411Y1536886D01*
X1632272Y1543020D01*
X1632900Y1549400D01*
X1632900Y1802555D01*
X1651845Y1821500D01*
X1948700Y1821500D01*
X1948700Y1790700D01*
X1841500Y1790700D01*
X1839022Y1790456D01*
X1836640Y1789733D01*
X1834444Y1788560D01*
X1832520Y1786980D01*
X1827740Y1782201D01*
X1825345Y1780921D01*
X1820366Y1776834D01*
X1816279Y1771855D01*
X1814999Y1769460D01*
X1807120Y1761580D01*
X1805540Y1759656D01*
X1804367Y1757460D01*
X1803644Y1755078D01*
X1803400Y1752600D01*
X1803400Y1676400D01*
X1803644Y1673922D01*
X1804367Y1671540D01*
X1805540Y1669344D01*
X1807120Y1667420D01*
X1809044Y1665840D01*
X1811240Y1664667D01*
X1813622Y1663944D01*
X1816100Y1663700D01*
X1822395Y1663700D01*
X1825345Y1661279D01*
X1831026Y1658243D01*
X1837190Y1656373D01*
X1843600Y1655742D01*
X1949600Y1655742D01*
X1956010Y1656373D01*
X1962174Y1658243D01*
X1967855Y1661279D01*
X1970805Y1663700D01*
X2042395Y1663700D01*
X2045345Y1661279D01*
X2051026Y1658243D01*
X2057190Y1656373D01*
X2063600Y1655742D01*
X2169600Y1655742D01*
X2176010Y1656373D01*
X2182174Y1658243D01*
X2187855Y1661279D01*
X2192834Y1665366D01*
X2196921Y1670345D01*
X2197627Y1671666D01*
X2231480Y1705520D01*
X2233060Y1707444D01*
X2234233Y1709640D01*
X2234956Y1712022D01*
X2235200Y1714500D01*
X2235200Y1770700D01*
X2367600Y1770700D01*
X2367600Y1544000D01*
X2019300Y1544000D01*
X2012920Y1543372D01*
X2006786Y1541511D01*
X2001133Y1538489D01*
X1998953Y1536700D01*
X1981200Y1536700D01*
X1978722Y1536456D01*
X1976340Y1535733D01*
X1974144Y1534560D01*
X1972220Y1532980D01*
X1970640Y1531056D01*
X1969467Y1528860D01*
X1968744Y1526478D01*
X1968500Y1524000D01*
X1968500Y1333500D01*
X1016000Y1333500D01*
X1013522Y1333256D01*
X1011140Y1332533D01*
X1008944Y1331360D01*
X1007020Y1329780D01*
X1005440Y1327856D01*
X1004267Y1325660D01*
X1003544Y1323278D01*
X1003300Y1320800D01*
X1003300Y1219200D01*
X622300Y1219200D01*
X622300Y1513600D01*
X828342Y1513600D01*
X828342Y1483600D01*
X828973Y1477190D01*
X830062Y1473600D01*
X828973Y1470010D01*
X828342Y1463600D01*
X828342Y1433600D01*
X828973Y1427190D01*
X830843Y1421026D01*
X833879Y1415345D01*
X837966Y1410366D01*
X842945Y1406279D01*
X848626Y1403243D01*
X854790Y1401373D01*
X861200Y1400742D01*
X1001200Y1400742D01*
X1007610Y1401373D01*
X1013774Y1403243D01*
X1019455Y1406279D01*
X1024434Y1410366D01*
X1028521Y1415345D01*
X1031557Y1421026D01*
X1033427Y1427190D01*
X1034058Y1433600D01*
X1034058Y1463600D01*
X1033427Y1470010D01*
X1032338Y1473600D01*
X1033427Y1477190D01*
X1034058Y1483600D01*
X1034058Y1513600D01*
X1033427Y1520010D01*
X1031557Y1526174D01*
X1028521Y1531855D01*
X1024434Y1536834D01*
X1019455Y1540921D01*
X1013774Y1543957D01*
X1007610Y1545827D01*
X1001200Y1546458D01*
X861200Y1546458D01*
X854790Y1545827D01*
X848626Y1543957D01*
X842945Y1540921D01*
X837966Y1536834D01*
X833879Y1531855D01*
X830843Y1526174D01*
X828973Y1520010D01*
X828342Y1513600D01*
X622300Y1513600D01*
X622300Y2070100D01*
X805500Y2070100D01*
X805500Y1587500D01*
G37*
G04 #@! TD.AperFunction*
D18*
X1046800Y1600200D02*
X850900Y1600200D01*
X850900Y2075500D01*
X1046800Y2075500D01*
X1046800Y1600200D01*
G04 #@! TA.AperFunction,Conductor*
D19*
G36*
X1046800Y1600200D02*
G01*
X850900Y1600200D01*
X850900Y2075500D01*
X1046800Y2075500D01*
X1046800Y1600200D01*
G37*
G04 #@! TD.AperFunction*
D18*
X2501900Y1282700D02*
X2311400Y1282700D01*
X2308922Y1282456D01*
X2306540Y1281733D01*
X2304344Y1280560D01*
X2302420Y1278980D01*
X2300840Y1277056D01*
X2299667Y1274860D01*
X2298944Y1272478D01*
X2298700Y1270000D01*
X2298700Y952922D01*
X2254578Y908800D01*
X2137272Y908800D01*
X2111258Y934814D01*
X2111258Y976250D01*
X2110171Y987294D01*
X2108200Y993790D01*
X2108200Y1041400D01*
X2107956Y1043878D01*
X2107233Y1046260D01*
X2106060Y1048456D01*
X2104480Y1050380D01*
X2102556Y1051960D01*
X2100360Y1053133D01*
X2097978Y1053856D01*
X2095500Y1054100D01*
X1470221Y1054100D01*
X1467600Y1054358D01*
X1402600Y1054358D01*
X1399979Y1054100D01*
X1343221Y1054100D01*
X1340600Y1054358D01*
X1275600Y1054358D01*
X1272979Y1054100D01*
X1216221Y1054100D01*
X1213600Y1054358D01*
X1148600Y1054358D01*
X1145979Y1054100D01*
X1117600Y1054100D01*
X1115122Y1053856D01*
X1112740Y1053133D01*
X1110544Y1051960D01*
X1108620Y1050380D01*
X1107040Y1048456D01*
X1105867Y1046260D01*
X1105144Y1043878D01*
X1104900Y1041400D01*
X1104900Y762000D01*
X787400Y762000D01*
X784922Y761756D01*
X782540Y761033D01*
X780344Y759860D01*
X779270Y759056D01*
X709340Y700782D01*
X703432Y706690D01*
X702016Y708416D01*
X695133Y714064D01*
X687281Y718261D01*
X678761Y720846D01*
X672120Y721500D01*
X669900Y721719D01*
X667679Y721500D01*
X469900Y721500D01*
X469900Y1054100D01*
X990600Y1054100D01*
X993078Y1054344D01*
X995460Y1055067D01*
X997656Y1056240D01*
X998963Y1057242D01*
X1001702Y1059639D01*
X1003300Y1059481D01*
X1005520Y1059700D01*
X1012161Y1060354D01*
X1020681Y1062939D01*
X1028533Y1067136D01*
X1035416Y1072784D01*
X1036832Y1074510D01*
X1101164Y1138842D01*
X1132250Y1138842D01*
X1143294Y1139930D01*
X1153416Y1143000D01*
X1208784Y1143000D01*
X1218906Y1139930D01*
X1229950Y1138842D01*
X1279950Y1138842D01*
X1290994Y1139930D01*
X1301116Y1143000D01*
X1391284Y1143000D01*
X1401406Y1139930D01*
X1412450Y1138842D01*
X1462450Y1138842D01*
X1473494Y1139930D01*
X1483616Y1143000D01*
X1701800Y1143000D01*
X1704278Y1143244D01*
X1706660Y1143967D01*
X1708856Y1145140D01*
X1710780Y1146720D01*
X1712360Y1148644D01*
X1713533Y1150840D01*
X1714256Y1153222D01*
X1714500Y1155700D01*
X1714500Y1257300D01*
X2019300Y1257300D01*
X2021778Y1257544D01*
X2024160Y1258267D01*
X2026356Y1259440D01*
X2028280Y1261020D01*
X2029860Y1262944D01*
X2031033Y1265140D01*
X2031756Y1267522D01*
X2032000Y1270000D01*
X2032000Y1498600D01*
X2400300Y1498600D01*
X2402778Y1498844D01*
X2405160Y1499567D01*
X2407356Y1500740D01*
X2409280Y1502320D01*
X2410860Y1504244D01*
X2412033Y1506440D01*
X2412756Y1508822D01*
X2413000Y1511300D01*
X2413000Y1803400D01*
X2412756Y1805878D01*
X2412033Y1808260D01*
X2410860Y1810456D01*
X2409280Y1812380D01*
X2407356Y1813960D01*
X2405160Y1815133D01*
X2402778Y1815856D01*
X2400300Y1816100D01*
X2340037Y1816100D01*
X2336400Y1816458D01*
X2286400Y1816458D01*
X2282763Y1816100D01*
X2039100Y1816100D01*
X2039100Y1902780D01*
X2039319Y1905000D01*
X2038446Y1913861D01*
X2036596Y1919961D01*
X2035861Y1922381D01*
X2032000Y1929605D01*
X2032000Y1948500D01*
X2501900Y1948500D01*
X2501900Y1282700D01*
G04 #@! TA.AperFunction,Conductor*
D19*
G36*
X2501900Y1282700D02*
G01*
X2311400Y1282700D01*
X2308922Y1282456D01*
X2306540Y1281733D01*
X2304344Y1280560D01*
X2302420Y1278980D01*
X2300840Y1277056D01*
X2299667Y1274860D01*
X2298944Y1272478D01*
X2298700Y1270000D01*
X2298700Y952922D01*
X2254578Y908800D01*
X2137272Y908800D01*
X2111258Y934814D01*
X2111258Y976250D01*
X2110171Y987294D01*
X2108200Y993790D01*
X2108200Y1041400D01*
X2107956Y1043878D01*
X2107233Y1046260D01*
X2106060Y1048456D01*
X2104480Y1050380D01*
X2102556Y1051960D01*
X2100360Y1053133D01*
X2097978Y1053856D01*
X2095500Y1054100D01*
X1470221Y1054100D01*
X1467600Y1054358D01*
X1402600Y1054358D01*
X1399979Y1054100D01*
X1343221Y1054100D01*
X1340600Y1054358D01*
X1275600Y1054358D01*
X1272979Y1054100D01*
X1216221Y1054100D01*
X1213600Y1054358D01*
X1148600Y1054358D01*
X1145979Y1054100D01*
X1117600Y1054100D01*
X1115122Y1053856D01*
X1112740Y1053133D01*
X1110544Y1051960D01*
X1108620Y1050380D01*
X1107040Y1048456D01*
X1105867Y1046260D01*
X1105144Y1043878D01*
X1104900Y1041400D01*
X1104900Y762000D01*
X787400Y762000D01*
X784922Y761756D01*
X782540Y761033D01*
X780344Y759860D01*
X779270Y759056D01*
X709340Y700782D01*
X703432Y706690D01*
X702016Y708416D01*
X695133Y714064D01*
X687281Y718261D01*
X678761Y720846D01*
X672120Y721500D01*
X669900Y721719D01*
X667679Y721500D01*
X469900Y721500D01*
X469900Y1054100D01*
X990600Y1054100D01*
X993078Y1054344D01*
X995460Y1055067D01*
X997656Y1056240D01*
X998963Y1057242D01*
X1001702Y1059639D01*
X1003300Y1059481D01*
X1005520Y1059700D01*
X1012161Y1060354D01*
X1020681Y1062939D01*
X1028533Y1067136D01*
X1035416Y1072784D01*
X1036832Y1074510D01*
X1101164Y1138842D01*
X1132250Y1138842D01*
X1143294Y1139930D01*
X1153416Y1143000D01*
X1208784Y1143000D01*
X1218906Y1139930D01*
X1229950Y1138842D01*
X1279950Y1138842D01*
X1290994Y1139930D01*
X1301116Y1143000D01*
X1391284Y1143000D01*
X1401406Y1139930D01*
X1412450Y1138842D01*
X1462450Y1138842D01*
X1473494Y1139930D01*
X1483616Y1143000D01*
X1701800Y1143000D01*
X1704278Y1143244D01*
X1706660Y1143967D01*
X1708856Y1145140D01*
X1710780Y1146720D01*
X1712360Y1148644D01*
X1713533Y1150840D01*
X1714256Y1153222D01*
X1714500Y1155700D01*
X1714500Y1257300D01*
X2019300Y1257300D01*
X2021778Y1257544D01*
X2024160Y1258267D01*
X2026356Y1259440D01*
X2028280Y1261020D01*
X2029860Y1262944D01*
X2031033Y1265140D01*
X2031756Y1267522D01*
X2032000Y1270000D01*
X2032000Y1498600D01*
X2400300Y1498600D01*
X2402778Y1498844D01*
X2405160Y1499567D01*
X2407356Y1500740D01*
X2409280Y1502320D01*
X2410860Y1504244D01*
X2412033Y1506440D01*
X2412756Y1508822D01*
X2413000Y1511300D01*
X2413000Y1803400D01*
X2412756Y1805878D01*
X2412033Y1808260D01*
X2410860Y1810456D01*
X2409280Y1812380D01*
X2407356Y1813960D01*
X2405160Y1815133D01*
X2402778Y1815856D01*
X2400300Y1816100D01*
X2340037Y1816100D01*
X2336400Y1816458D01*
X2286400Y1816458D01*
X2282763Y1816100D01*
X2039100Y1816100D01*
X2039100Y1902780D01*
X2039319Y1905000D01*
X2038446Y1913861D01*
X2036596Y1919961D01*
X2035861Y1922381D01*
X2032000Y1929605D01*
X2032000Y1948500D01*
X2501900Y1948500D01*
X2501900Y1282700D01*
G37*
G04 #@! TD.AperFunction*
D18*
X2692400Y1397000D02*
X2692644Y1394522D01*
X2693367Y1392140D01*
X2694540Y1389944D01*
X2696120Y1388020D01*
X2697342Y1386798D01*
X2697342Y1385950D01*
X2698430Y1374906D01*
X2701651Y1364287D01*
X2706882Y1354500D01*
X2713922Y1345922D01*
X2722500Y1338882D01*
X2732287Y1333651D01*
X2742906Y1330430D01*
X2753950Y1329342D01*
X2754798Y1329342D01*
X2835820Y1248320D01*
X2837744Y1246740D01*
X2839940Y1245567D01*
X2842322Y1244844D01*
X2844800Y1244600D01*
X2881345Y1244600D01*
X2888569Y1240739D01*
X2895106Y1238756D01*
X2897089Y1238154D01*
X2905950Y1237281D01*
X2908170Y1237500D01*
X3283278Y1237500D01*
X3333000Y1187778D01*
X3333000Y914400D01*
X3018046Y914400D01*
X3017429Y915555D01*
X3010544Y923944D01*
X3002155Y930829D01*
X2992585Y935944D01*
X2982200Y939094D01*
X2971400Y940158D01*
X2921400Y940158D01*
X2910600Y939094D01*
X2900215Y935944D01*
X2890645Y930829D01*
X2882256Y923944D01*
X2875371Y915555D01*
X2874754Y914400D01*
X2806700Y914400D01*
X2806700Y1181100D01*
X2806456Y1183578D01*
X2805733Y1185960D01*
X2804560Y1188156D01*
X2802980Y1190080D01*
X2801056Y1191660D01*
X2798860Y1192833D01*
X2796478Y1193556D01*
X2794000Y1193800D01*
X2784474Y1193800D01*
X2784227Y1196310D01*
X2782357Y1202474D01*
X2779321Y1208155D01*
X2775234Y1213134D01*
X2770255Y1217221D01*
X2764574Y1220257D01*
X2758410Y1222127D01*
X2752000Y1222758D01*
X2582000Y1222758D01*
X2575590Y1222127D01*
X2569426Y1220257D01*
X2565400Y1218105D01*
X2565400Y1981200D01*
X2565156Y1983678D01*
X2564433Y1986060D01*
X2563260Y1988256D01*
X2561680Y1990180D01*
X2559756Y1991760D01*
X2557560Y1992933D01*
X2555178Y1993656D01*
X2552700Y1993900D01*
X1968500Y1993900D01*
X1966022Y1993656D01*
X1963640Y1992933D01*
X1961444Y1991760D01*
X1959520Y1990180D01*
X1957940Y1988256D01*
X1956767Y1986060D01*
X1956044Y1983678D01*
X1955800Y1981200D01*
X1955800Y1880847D01*
X1949600Y1881458D01*
X1843600Y1881458D01*
X1837190Y1880827D01*
X1831026Y1878957D01*
X1825345Y1875921D01*
X1820366Y1871834D01*
X1816316Y1866900D01*
X1638300Y1866900D01*
X1635822Y1866656D01*
X1633440Y1865933D01*
X1631244Y1864760D01*
X1629320Y1863180D01*
X1591220Y1825080D01*
X1589640Y1823156D01*
X1588467Y1820960D01*
X1587744Y1818578D01*
X1587500Y1816100D01*
X1587500Y1562100D01*
X1206500Y1562100D01*
X1206500Y1587500D01*
X1206256Y1589978D01*
X1205533Y1592360D01*
X1204360Y1594556D01*
X1202780Y1596480D01*
X1200856Y1598060D01*
X1198660Y1599233D01*
X1196278Y1599956D01*
X1193800Y1600200D01*
X1092200Y1600200D01*
X1092200Y2075500D01*
X2692400Y2075500D01*
X2692400Y1397000D01*
G04 #@! TA.AperFunction,Conductor*
D19*
G36*
X2692400Y1397000D02*
G01*
X2692644Y1394522D01*
X2693367Y1392140D01*
X2694540Y1389944D01*
X2696120Y1388020D01*
X2697342Y1386798D01*
X2697342Y1385950D01*
X2698430Y1374906D01*
X2701651Y1364287D01*
X2706882Y1354500D01*
X2713922Y1345922D01*
X2722500Y1338882D01*
X2732287Y1333651D01*
X2742906Y1330430D01*
X2753950Y1329342D01*
X2754798Y1329342D01*
X2835820Y1248320D01*
X2837744Y1246740D01*
X2839940Y1245567D01*
X2842322Y1244844D01*
X2844800Y1244600D01*
X2881345Y1244600D01*
X2888569Y1240739D01*
X2895106Y1238756D01*
X2897089Y1238154D01*
X2905950Y1237281D01*
X2908170Y1237500D01*
X3283278Y1237500D01*
X3333000Y1187778D01*
X3333000Y914400D01*
X3018046Y914400D01*
X3017429Y915555D01*
X3010544Y923944D01*
X3002155Y930829D01*
X2992585Y935944D01*
X2982200Y939094D01*
X2971400Y940158D01*
X2921400Y940158D01*
X2910600Y939094D01*
X2900215Y935944D01*
X2890645Y930829D01*
X2882256Y923944D01*
X2875371Y915555D01*
X2874754Y914400D01*
X2806700Y914400D01*
X2806700Y1181100D01*
X2806456Y1183578D01*
X2805733Y1185960D01*
X2804560Y1188156D01*
X2802980Y1190080D01*
X2801056Y1191660D01*
X2798860Y1192833D01*
X2796478Y1193556D01*
X2794000Y1193800D01*
X2784474Y1193800D01*
X2784227Y1196310D01*
X2782357Y1202474D01*
X2779321Y1208155D01*
X2775234Y1213134D01*
X2770255Y1217221D01*
X2764574Y1220257D01*
X2758410Y1222127D01*
X2752000Y1222758D01*
X2582000Y1222758D01*
X2575590Y1222127D01*
X2569426Y1220257D01*
X2565400Y1218105D01*
X2565400Y1981200D01*
X2565156Y1983678D01*
X2564433Y1986060D01*
X2563260Y1988256D01*
X2561680Y1990180D01*
X2559756Y1991760D01*
X2557560Y1992933D01*
X2555178Y1993656D01*
X2552700Y1993900D01*
X1968500Y1993900D01*
X1966022Y1993656D01*
X1963640Y1992933D01*
X1961444Y1991760D01*
X1959520Y1990180D01*
X1957940Y1988256D01*
X1956767Y1986060D01*
X1956044Y1983678D01*
X1955800Y1981200D01*
X1955800Y1880847D01*
X1949600Y1881458D01*
X1843600Y1881458D01*
X1837190Y1880827D01*
X1831026Y1878957D01*
X1825345Y1875921D01*
X1820366Y1871834D01*
X1816316Y1866900D01*
X1638300Y1866900D01*
X1635822Y1866656D01*
X1633440Y1865933D01*
X1631244Y1864760D01*
X1629320Y1863180D01*
X1591220Y1825080D01*
X1589640Y1823156D01*
X1588467Y1820960D01*
X1587744Y1818578D01*
X1587500Y1816100D01*
X1587500Y1562100D01*
X1206500Y1562100D01*
X1206500Y1587500D01*
X1206256Y1589978D01*
X1205533Y1592360D01*
X1204360Y1594556D01*
X1202780Y1596480D01*
X1200856Y1598060D01*
X1198660Y1599233D01*
X1196278Y1599956D01*
X1193800Y1600200D01*
X1092200Y1600200D01*
X1092200Y2075500D01*
X2692400Y2075500D01*
X2692400Y1397000D01*
G37*
G04 #@! TD.AperFunction*
D18*
X3520800Y-41000D02*
X-41000Y-41000D01*
X-41000Y2235200D01*
X145100Y2235200D01*
X145100Y1765300D01*
X145728Y1758920D01*
X147589Y1752786D01*
X150611Y1747133D01*
X154678Y1742178D01*
X159633Y1738111D01*
X165286Y1735089D01*
X171421Y1733228D01*
X177800Y1732600D01*
X373700Y1732600D01*
X373700Y1543800D01*
X330070Y1543800D01*
X327850Y1544019D01*
X324081Y1543647D01*
X315850Y1544458D01*
X268350Y1544458D01*
X257306Y1543370D01*
X246687Y1540149D01*
X236900Y1534918D01*
X228322Y1527878D01*
X221282Y1519300D01*
X216051Y1509513D01*
X212829Y1498894D01*
X211742Y1487850D01*
X211742Y1437850D01*
X212829Y1426806D01*
X216051Y1416187D01*
X221282Y1406400D01*
X228322Y1397822D01*
X236900Y1390782D01*
X246687Y1385551D01*
X257306Y1382330D01*
X268350Y1381242D01*
X315850Y1381242D01*
X326894Y1382330D01*
X337513Y1385551D01*
X347300Y1390782D01*
X355878Y1397822D01*
X362918Y1406400D01*
X368149Y1416187D01*
X371370Y1426806D01*
X372458Y1437850D01*
X372458Y1453400D01*
X388342Y1453400D01*
X388342Y1433600D01*
X388973Y1427190D01*
X390062Y1423600D01*
X388973Y1420010D01*
X388342Y1413600D01*
X388342Y1383600D01*
X388973Y1377190D01*
X390843Y1371026D01*
X393879Y1365345D01*
X397966Y1360366D01*
X402945Y1356279D01*
X408626Y1353243D01*
X414790Y1351373D01*
X421200Y1350742D01*
X446000Y1350742D01*
X446000Y1187421D01*
X445781Y1185200D01*
X446654Y1176339D01*
X448248Y1171086D01*
X449239Y1167819D01*
X453436Y1159967D01*
X459084Y1153084D01*
X460810Y1151668D01*
X512978Y1099500D01*
X457200Y1099500D01*
X450820Y1098872D01*
X444686Y1097011D01*
X439033Y1093989D01*
X434078Y1089922D01*
X430011Y1084967D01*
X426989Y1079314D01*
X425128Y1073180D01*
X424500Y1066800D01*
X424500Y922047D01*
X420755Y925121D01*
X415074Y928157D01*
X408910Y930027D01*
X402500Y930658D01*
X232500Y930658D01*
X226090Y930027D01*
X219926Y928157D01*
X214245Y925121D01*
X209266Y921034D01*
X205179Y916055D01*
X202143Y910374D01*
X200273Y904210D01*
X199642Y897800D01*
X199642Y727800D01*
X200273Y721390D01*
X202143Y715226D01*
X205179Y709545D01*
X209266Y704566D01*
X214245Y700479D01*
X219926Y697443D01*
X226090Y695573D01*
X232500Y694942D01*
X389719Y694942D01*
X362384Y667606D01*
X351832Y671977D01*
X329092Y676500D01*
X305908Y676500D01*
X283168Y671977D01*
X261748Y663104D01*
X242471Y650224D01*
X226076Y633829D01*
X213196Y614552D01*
X204323Y593132D01*
X199800Y570392D01*
X199800Y547208D01*
X204323Y524468D01*
X213196Y503048D01*
X226076Y483771D01*
X242471Y467376D01*
X261748Y454496D01*
X283168Y445623D01*
X305908Y441100D01*
X329092Y441100D01*
X351832Y445623D01*
X373252Y454496D01*
X392529Y467376D01*
X408924Y483771D01*
X421804Y503048D01*
X430677Y524468D01*
X435200Y547208D01*
X435200Y570392D01*
X430677Y593132D01*
X426306Y603684D01*
X453723Y631100D01*
X478253Y631100D01*
X467196Y614552D01*
X458323Y593132D01*
X453800Y570392D01*
X453800Y547208D01*
X458323Y524468D01*
X467196Y503048D01*
X480076Y483771D01*
X496471Y467376D01*
X515748Y454496D01*
X537168Y445623D01*
X559908Y441100D01*
X583092Y441100D01*
X605832Y445623D01*
X616384Y449994D01*
X639568Y426809D01*
X640984Y425084D01*
X647867Y419436D01*
X648495Y419100D01*
X655719Y415239D01*
X664239Y412654D01*
X673100Y411781D01*
X675321Y412000D01*
X1220250Y412000D01*
X1214519Y410261D01*
X1206667Y406064D01*
X1199784Y400416D01*
X1198369Y398691D01*
X1150710Y351032D01*
X1148984Y349616D01*
X1143336Y342733D01*
X1140757Y337909D01*
X1139139Y334881D01*
X1136554Y326361D01*
X1136113Y321884D01*
X1136026Y321857D01*
X1130345Y318821D01*
X1125366Y314734D01*
X1121279Y309755D01*
X1118243Y304074D01*
X1117600Y301955D01*
X1116957Y304074D01*
X1113921Y309755D01*
X1109834Y314734D01*
X1104855Y318821D01*
X1099174Y321857D01*
X1093010Y323727D01*
X1086600Y324358D01*
X1021600Y324358D01*
X1015190Y323727D01*
X1009026Y321857D01*
X1003345Y318821D01*
X998366Y314734D01*
X994279Y309755D01*
X991243Y304074D01*
X989373Y297910D01*
X988742Y291500D01*
X988742Y251700D01*
X958020Y251700D01*
X955800Y251919D01*
X946939Y251046D01*
X941246Y249319D01*
X938419Y248461D01*
X930567Y244264D01*
X923684Y238616D01*
X922268Y236890D01*
X857578Y172200D01*
X514022Y172200D01*
X426306Y259916D01*
X430677Y270468D01*
X435200Y293208D01*
X435200Y316392D01*
X430677Y339132D01*
X421804Y360552D01*
X408924Y379829D01*
X392529Y396224D01*
X373252Y409104D01*
X351832Y417977D01*
X329092Y422500D01*
X305908Y422500D01*
X283168Y417977D01*
X261748Y409104D01*
X242471Y396224D01*
X226076Y379829D01*
X213196Y360552D01*
X204323Y339132D01*
X199800Y316392D01*
X199800Y293208D01*
X204323Y270468D01*
X213196Y249048D01*
X226076Y229771D01*
X242471Y213376D01*
X261748Y200496D01*
X283168Y191623D01*
X305908Y187100D01*
X329092Y187100D01*
X351832Y191623D01*
X362384Y195994D01*
X461768Y96609D01*
X463184Y94884D01*
X470067Y89236D01*
X477919Y85039D01*
X486439Y82454D01*
X495300Y81581D01*
X497520Y81800D01*
X874079Y81800D01*
X876300Y81581D01*
X878520Y81800D01*
X885161Y82454D01*
X893681Y85039D01*
X901533Y89236D01*
X908416Y94884D01*
X909832Y96610D01*
X974522Y161300D01*
X988742Y161300D01*
X988742Y121500D01*
X989373Y115090D01*
X991243Y108926D01*
X994279Y103245D01*
X998366Y98266D01*
X1003345Y94179D01*
X1009026Y91143D01*
X1015190Y89273D01*
X1021600Y88642D01*
X1086600Y88642D01*
X1093010Y89273D01*
X1099174Y91143D01*
X1104855Y94179D01*
X1109834Y98266D01*
X1113921Y103245D01*
X1116957Y108926D01*
X1117600Y111045D01*
X1118243Y108926D01*
X1121279Y103245D01*
X1125366Y98266D01*
X1130345Y94179D01*
X1136026Y91143D01*
X1142190Y89273D01*
X1148600Y88642D01*
X1213600Y88642D01*
X1220010Y89273D01*
X1226174Y91143D01*
X1231855Y94179D01*
X1236834Y98266D01*
X1240921Y103245D01*
X1243957Y108926D01*
X1244600Y111045D01*
X1245243Y108926D01*
X1248279Y103245D01*
X1252366Y98266D01*
X1257345Y94179D01*
X1263026Y91143D01*
X1269190Y89273D01*
X1275600Y88642D01*
X1340600Y88642D01*
X1347010Y89273D01*
X1353174Y91143D01*
X1358855Y94179D01*
X1363834Y98266D01*
X1367921Y103245D01*
X1370957Y108926D01*
X1372827Y115090D01*
X1373458Y121500D01*
X1373458Y291500D01*
X1372827Y297910D01*
X1370957Y304074D01*
X1367921Y309755D01*
X1363834Y314734D01*
X1358855Y318821D01*
X1353174Y321857D01*
X1349077Y323100D01*
X1746578Y323100D01*
X1760997Y308681D01*
X1756456Y300185D01*
X1753305Y289800D01*
X1752242Y279000D01*
X1752242Y229000D01*
X1753305Y218200D01*
X1756456Y207815D01*
X1761571Y198245D01*
X1768456Y189856D01*
X1776845Y182971D01*
X1786415Y177856D01*
X1796800Y174706D01*
X1807600Y173642D01*
X1852600Y173642D01*
X1863400Y174706D01*
X1873785Y177856D01*
X1883355Y182971D01*
X1891744Y189856D01*
X1898629Y198245D01*
X1903744Y207815D01*
X1904043Y208800D01*
X1914186Y208800D01*
X1914251Y208587D01*
X1919482Y198800D01*
X1926522Y190222D01*
X1935100Y183182D01*
X1944887Y177951D01*
X1955506Y174730D01*
X1966550Y173642D01*
X2016550Y173642D01*
X2027594Y174730D01*
X2038213Y177951D01*
X2048000Y183182D01*
X2056578Y190222D01*
X2063618Y198800D01*
X2068849Y208587D01*
X2072070Y219206D01*
X2073158Y230250D01*
X2073158Y277750D01*
X2072070Y288794D01*
X2068849Y299413D01*
X2063618Y309200D01*
X2056578Y317778D01*
X2048000Y324818D01*
X2038213Y330049D01*
X2027594Y333271D01*
X2016550Y334358D01*
X1966550Y334358D01*
X1955506Y333271D01*
X1944887Y330049D01*
X1935100Y324818D01*
X1926522Y317778D01*
X1919482Y309200D01*
X1914251Y299413D01*
X1914186Y299200D01*
X1904043Y299200D01*
X1903744Y300185D01*
X1898629Y309755D01*
X1891744Y318144D01*
X1883355Y325029D01*
X1873785Y330144D01*
X1864360Y333003D01*
X1862216Y335616D01*
X1860491Y337032D01*
X1798832Y398690D01*
X1797416Y400416D01*
X1790533Y406064D01*
X1782681Y410261D01*
X1774161Y412846D01*
X1767520Y413500D01*
X1765300Y413719D01*
X1763079Y413500D01*
X1357850Y413500D01*
X1363581Y415239D01*
X1371433Y419436D01*
X1378316Y425084D01*
X1379732Y426810D01*
X1413891Y460968D01*
X1415240Y460700D01*
X1429560Y460700D01*
X1443606Y463494D01*
X1456836Y468974D01*
X1468744Y476930D01*
X1478870Y487056D01*
X1486826Y498964D01*
X1492306Y512194D01*
X1495100Y526240D01*
X1495100Y540560D01*
X1492306Y554606D01*
X1486826Y567836D01*
X1478870Y579744D01*
X1468813Y589800D01*
X1684378Y589800D01*
X1752242Y521936D01*
X1752242Y483000D01*
X1753305Y472200D01*
X1756456Y461815D01*
X1761571Y452245D01*
X1768456Y443856D01*
X1776845Y436971D01*
X1786415Y431856D01*
X1796800Y428705D01*
X1807600Y427642D01*
X1852600Y427642D01*
X1863400Y428705D01*
X1873785Y431856D01*
X1883355Y436971D01*
X1891744Y443856D01*
X1898629Y452245D01*
X1903744Y461815D01*
X1904043Y462800D01*
X1914186Y462800D01*
X1914251Y462587D01*
X1919482Y452800D01*
X1926522Y444222D01*
X1935100Y437182D01*
X1944887Y431951D01*
X1955506Y428729D01*
X1966550Y427642D01*
X2016550Y427642D01*
X2027594Y428729D01*
X2038213Y431951D01*
X2048000Y437182D01*
X2056578Y444222D01*
X2063618Y452800D01*
X2068849Y462587D01*
X2072070Y473206D01*
X2073158Y484250D01*
X2073158Y531750D01*
X2072070Y542794D01*
X2068849Y553413D01*
X2063618Y563200D01*
X2056578Y571778D01*
X2048000Y578818D01*
X2038213Y584049D01*
X2027594Y587271D01*
X2016550Y588358D01*
X1966550Y588358D01*
X1955506Y587271D01*
X1944887Y584049D01*
X1935100Y578818D01*
X1926522Y571778D01*
X1919482Y563200D01*
X1914251Y553413D01*
X1914186Y553200D01*
X1904043Y553200D01*
X1903744Y554185D01*
X1898629Y563755D01*
X1891744Y572144D01*
X1883355Y579029D01*
X1873785Y584144D01*
X1863400Y587295D01*
X1852600Y588358D01*
X1813664Y588358D01*
X1748722Y653300D01*
X1966279Y653300D01*
X1968500Y653081D01*
X1970720Y653300D01*
X1977361Y653954D01*
X1985881Y656539D01*
X1993733Y660736D01*
X2000616Y666384D01*
X2002032Y668110D01*
X2012622Y678700D01*
X3054678Y678700D01*
X3125568Y607810D01*
X3126984Y606084D01*
X3129756Y603809D01*
X3121676Y595729D01*
X3108796Y576452D01*
X3104425Y565900D01*
X2557269Y565900D01*
X2552144Y572144D01*
X2543755Y579029D01*
X2534185Y584144D01*
X2523800Y587295D01*
X2513000Y588358D01*
X2468000Y588358D01*
X2457200Y587295D01*
X2446815Y584144D01*
X2437245Y579029D01*
X2428856Y572144D01*
X2421971Y563755D01*
X2416856Y554185D01*
X2413706Y543800D01*
X2412642Y533000D01*
X2412642Y483000D01*
X2413706Y472200D01*
X2416102Y464300D01*
X2251869Y464300D01*
X2254571Y473206D01*
X2255658Y484250D01*
X2255658Y531750D01*
X2254571Y542794D01*
X2251349Y553413D01*
X2246118Y563200D01*
X2239078Y571778D01*
X2230500Y578818D01*
X2220713Y584049D01*
X2210094Y587271D01*
X2199050Y588358D01*
X2149050Y588358D01*
X2138006Y587271D01*
X2127387Y584049D01*
X2117600Y578818D01*
X2109022Y571778D01*
X2101982Y563200D01*
X2096751Y553413D01*
X2093529Y542794D01*
X2092442Y531750D01*
X2092442Y484250D01*
X2093529Y473206D01*
X2096751Y462587D01*
X2101982Y452800D01*
X2109022Y444222D01*
X2117600Y437182D01*
X2127387Y431951D01*
X2130166Y431108D01*
X2132089Y424769D01*
X2135119Y419100D01*
X2136286Y416917D01*
X2141934Y410034D01*
X2143660Y408618D01*
X2163568Y388710D01*
X2164794Y387216D01*
X2143660Y366082D01*
X2141934Y364666D01*
X2136286Y357783D01*
X2132617Y350919D01*
X2132089Y349931D01*
X2129504Y341411D01*
X2128631Y332550D01*
X2128834Y330488D01*
X2127387Y330049D01*
X2117600Y324818D01*
X2109022Y317778D01*
X2101982Y309200D01*
X2096751Y299413D01*
X2093529Y288794D01*
X2092442Y277750D01*
X2092442Y230250D01*
X2093529Y219206D01*
X2096751Y208587D01*
X2101982Y198800D01*
X2109022Y190222D01*
X2117600Y183182D01*
X2127387Y177951D01*
X2138006Y174730D01*
X2149050Y173642D01*
X2199050Y173642D01*
X2210094Y174730D01*
X2220713Y177951D01*
X2230500Y183182D01*
X2239078Y190222D01*
X2246118Y198800D01*
X2251349Y208587D01*
X2254571Y219206D01*
X2255658Y230250D01*
X2255658Y277750D01*
X2254571Y288794D01*
X2251349Y299413D01*
X2246118Y309200D01*
X2239078Y317778D01*
X2232593Y323100D01*
X2419678Y323100D01*
X2426953Y315825D01*
X2421971Y309755D01*
X2416856Y300185D01*
X2413706Y289800D01*
X2412642Y279000D01*
X2412642Y229000D01*
X2413706Y218200D01*
X2416856Y207815D01*
X2421971Y198245D01*
X2428856Y189856D01*
X2437245Y182971D01*
X2446815Y177856D01*
X2457200Y174706D01*
X2468000Y173642D01*
X2513000Y173642D01*
X2523800Y174706D01*
X2534185Y177856D01*
X2543755Y182971D01*
X2552144Y189856D01*
X2559029Y198245D01*
X2564144Y207815D01*
X2567295Y218200D01*
X2567620Y221500D01*
X3104425Y221500D01*
X3108796Y210948D01*
X3121676Y191671D01*
X3138071Y175276D01*
X3157348Y162396D01*
X3178768Y153523D01*
X3201508Y149000D01*
X3224692Y149000D01*
X3247432Y153523D01*
X3268852Y162396D01*
X3288129Y175276D01*
X3304524Y191671D01*
X3317404Y210948D01*
X3326277Y232368D01*
X3330800Y255108D01*
X3330800Y278292D01*
X3326277Y301032D01*
X3317404Y322452D01*
X3304524Y341729D01*
X3288129Y358124D01*
X3268852Y371004D01*
X3247432Y379877D01*
X3224692Y384400D01*
X3201508Y384400D01*
X3178768Y379877D01*
X3157348Y371004D01*
X3138071Y358124D01*
X3121676Y341729D01*
X3108796Y322452D01*
X3104425Y311900D01*
X2557269Y311900D01*
X2552144Y318144D01*
X2543755Y325029D01*
X2534185Y330144D01*
X2533435Y330372D01*
X2532461Y333581D01*
X2528264Y341433D01*
X2522616Y348316D01*
X2520891Y349731D01*
X2489173Y381450D01*
X2495916Y386984D01*
X2497332Y388710D01*
X2520890Y412268D01*
X2522616Y413684D01*
X2528264Y420567D01*
X2532461Y428419D01*
X2533435Y431628D01*
X2534185Y431856D01*
X2543755Y436971D01*
X2552144Y443856D01*
X2559029Y452245D01*
X2564144Y461815D01*
X2567295Y472200D01*
X2567620Y475500D01*
X3104425Y475500D01*
X3108796Y464948D01*
X3121676Y445671D01*
X3138071Y429276D01*
X3157348Y416396D01*
X3178768Y407523D01*
X3201508Y403000D01*
X3224692Y403000D01*
X3247432Y407523D01*
X3268852Y416396D01*
X3288129Y429276D01*
X3304524Y445671D01*
X3317404Y464948D01*
X3326277Y486368D01*
X3330800Y509108D01*
X3330800Y532292D01*
X3326277Y555032D01*
X3317404Y576452D01*
X3306413Y592901D01*
X3307421Y593000D01*
X3314061Y593654D01*
X3322581Y596239D01*
X3330433Y600436D01*
X3337316Y606084D01*
X3338732Y607810D01*
X3408591Y677669D01*
X3410316Y679084D01*
X3415964Y685967D01*
X3420161Y693819D01*
X3422746Y702339D01*
X3423400Y708979D01*
X3423400Y708980D01*
X3423619Y711200D01*
X3423400Y713420D01*
X3423400Y1204280D01*
X3423619Y1206500D01*
X3422746Y1215361D01*
X3420161Y1223881D01*
X3415964Y1231733D01*
X3410316Y1238616D01*
X3408590Y1240032D01*
X3384841Y1263782D01*
X3383011Y1269814D01*
X3379989Y1275467D01*
X3375922Y1280422D01*
X3370967Y1284489D01*
X3365314Y1287511D01*
X3359282Y1289341D01*
X3335532Y1313090D01*
X3334116Y1314816D01*
X3327233Y1320464D01*
X3319381Y1324661D01*
X3310861Y1327246D01*
X3304220Y1327900D01*
X3302000Y1328119D01*
X3299779Y1327900D01*
X2924672Y1327900D01*
X2860558Y1392014D01*
X2860558Y1433450D01*
X2859470Y1444494D01*
X2856249Y1455113D01*
X2851018Y1464900D01*
X2843978Y1473478D01*
X2835400Y1480518D01*
X2825613Y1485749D01*
X2824150Y1486193D01*
X2824150Y1498307D01*
X2825613Y1498751D01*
X2835400Y1503982D01*
X2843978Y1511022D01*
X2851018Y1519600D01*
X2856249Y1529387D01*
X2859470Y1540006D01*
X2860558Y1551050D01*
X2860558Y1598550D01*
X2859470Y1609594D01*
X2856249Y1620213D01*
X2851018Y1630000D01*
X2843978Y1638578D01*
X2835400Y1645618D01*
X2825613Y1650849D01*
X2814994Y1654070D01*
X2803950Y1655158D01*
X2753950Y1655158D01*
X2742906Y1654070D01*
X2737800Y1652521D01*
X2737800Y1764900D01*
X2869842Y1764900D01*
X2869842Y1714900D01*
X2870905Y1704100D01*
X2874056Y1693715D01*
X2879171Y1684145D01*
X2886056Y1675756D01*
X2894445Y1668871D01*
X2904015Y1663756D01*
X2914400Y1660605D01*
X2916250Y1660423D01*
X2916250Y1651293D01*
X2914787Y1650849D01*
X2905000Y1645618D01*
X2896422Y1638578D01*
X2889382Y1630000D01*
X2884151Y1620213D01*
X2880929Y1609594D01*
X2879842Y1598550D01*
X2879842Y1551050D01*
X2880929Y1540006D01*
X2884151Y1529387D01*
X2889382Y1519600D01*
X2896422Y1511022D01*
X2905000Y1503982D01*
X2914787Y1498751D01*
X2925406Y1495529D01*
X2936450Y1494442D01*
X2986450Y1494442D01*
X2997494Y1495529D01*
X3008113Y1498751D01*
X3017900Y1503982D01*
X3026478Y1511022D01*
X3033518Y1519600D01*
X3038749Y1529387D01*
X3038814Y1529600D01*
X3105478Y1529600D01*
X3116994Y1518084D01*
X3112623Y1507532D01*
X3108100Y1484792D01*
X3108100Y1461608D01*
X3112623Y1438868D01*
X3121496Y1417448D01*
X3134376Y1398171D01*
X3150771Y1381776D01*
X3170048Y1368896D01*
X3191468Y1360023D01*
X3214208Y1355500D01*
X3237392Y1355500D01*
X3260132Y1360023D01*
X3281552Y1368896D01*
X3300829Y1381776D01*
X3317224Y1398171D01*
X3330104Y1417448D01*
X3338977Y1438868D01*
X3343500Y1461608D01*
X3343500Y1484792D01*
X3338977Y1507532D01*
X3330104Y1528952D01*
X3317224Y1548229D01*
X3300829Y1564624D01*
X3281552Y1577504D01*
X3260132Y1586377D01*
X3237392Y1590900D01*
X3214208Y1590900D01*
X3191468Y1586377D01*
X3180916Y1582006D01*
X3157732Y1605190D01*
X3156316Y1606916D01*
X3149433Y1612564D01*
X3141581Y1616761D01*
X3133061Y1619346D01*
X3126420Y1620000D01*
X3124200Y1620219D01*
X3121979Y1620000D01*
X3038814Y1620000D01*
X3038749Y1620213D01*
X3033518Y1630000D01*
X3026478Y1638578D01*
X3017900Y1645618D01*
X3008113Y1650849D01*
X3006650Y1651293D01*
X3006650Y1673545D01*
X3009344Y1675756D01*
X3016229Y1684145D01*
X3021344Y1693715D01*
X3024494Y1704100D01*
X3025558Y1714900D01*
X3025558Y1764900D01*
X3024494Y1775700D01*
X3021344Y1786085D01*
X3016229Y1795655D01*
X3009344Y1804044D01*
X3000955Y1810929D01*
X2991385Y1816044D01*
X2981000Y1819194D01*
X2970200Y1820258D01*
X2925200Y1820258D01*
X2914400Y1819194D01*
X2904015Y1816044D01*
X2894445Y1810929D01*
X2886056Y1804044D01*
X2879171Y1795655D01*
X2874056Y1786085D01*
X2870905Y1775700D01*
X2869842Y1764900D01*
X2737800Y1764900D01*
X2737800Y2075500D01*
X2860299Y2075500D01*
X2989900Y1989099D01*
X2989900Y1866900D01*
X2990528Y1860520D01*
X2992389Y1854386D01*
X2995411Y1848733D01*
X2999478Y1843778D01*
X3004433Y1839711D01*
X3010086Y1836689D01*
X3016220Y1834828D01*
X3022600Y1834200D01*
X3378200Y1834200D01*
X3384579Y1834828D01*
X3390714Y1836689D01*
X3396367Y1839711D01*
X3401322Y1843778D01*
X3405389Y1848733D01*
X3408411Y1854386D01*
X3410272Y1860520D01*
X3410900Y1866900D01*
X3410900Y2235200D01*
X3410272Y2241580D01*
X3408411Y2247714D01*
X3405389Y2253367D01*
X3401322Y2258322D01*
X3396367Y2262389D01*
X3390714Y2265411D01*
X3384579Y2267272D01*
X3378200Y2267900D01*
X177800Y2267900D01*
X171421Y2267272D01*
X165286Y2265411D01*
X159633Y2262389D01*
X154678Y2258322D01*
X150611Y2253367D01*
X147589Y2247714D01*
X145728Y2241580D01*
X145100Y2235200D01*
X-41000Y2235200D01*
X-41000Y2339700D01*
X3520800Y2339700D01*
X3520800Y-41000D01*
G04 #@! TA.AperFunction,Conductor*
D19*
G36*
X3520800Y-41000D02*
G01*
X-41000Y-41000D01*
X-41000Y2235200D01*
X145100Y2235200D01*
X145100Y1765300D01*
X145728Y1758920D01*
X147589Y1752786D01*
X150611Y1747133D01*
X154678Y1742178D01*
X159633Y1738111D01*
X165286Y1735089D01*
X171421Y1733228D01*
X177800Y1732600D01*
X373700Y1732600D01*
X373700Y1543800D01*
X330070Y1543800D01*
X327850Y1544019D01*
X324081Y1543647D01*
X315850Y1544458D01*
X268350Y1544458D01*
X257306Y1543370D01*
X246687Y1540149D01*
X236900Y1534918D01*
X228322Y1527878D01*
X221282Y1519300D01*
X216051Y1509513D01*
X212829Y1498894D01*
X211742Y1487850D01*
X211742Y1437850D01*
X212829Y1426806D01*
X216051Y1416187D01*
X221282Y1406400D01*
X228322Y1397822D01*
X236900Y1390782D01*
X246687Y1385551D01*
X257306Y1382330D01*
X268350Y1381242D01*
X315850Y1381242D01*
X326894Y1382330D01*
X337513Y1385551D01*
X347300Y1390782D01*
X355878Y1397822D01*
X362918Y1406400D01*
X368149Y1416187D01*
X371370Y1426806D01*
X372458Y1437850D01*
X372458Y1453400D01*
X388342Y1453400D01*
X388342Y1433600D01*
X388973Y1427190D01*
X390062Y1423600D01*
X388973Y1420010D01*
X388342Y1413600D01*
X388342Y1383600D01*
X388973Y1377190D01*
X390843Y1371026D01*
X393879Y1365345D01*
X397966Y1360366D01*
X402945Y1356279D01*
X408626Y1353243D01*
X414790Y1351373D01*
X421200Y1350742D01*
X446000Y1350742D01*
X446000Y1187421D01*
X445781Y1185200D01*
X446654Y1176339D01*
X448248Y1171086D01*
X449239Y1167819D01*
X453436Y1159967D01*
X459084Y1153084D01*
X460810Y1151668D01*
X512978Y1099500D01*
X457200Y1099500D01*
X450820Y1098872D01*
X444686Y1097011D01*
X439033Y1093989D01*
X434078Y1089922D01*
X430011Y1084967D01*
X426989Y1079314D01*
X425128Y1073180D01*
X424500Y1066800D01*
X424500Y922047D01*
X420755Y925121D01*
X415074Y928157D01*
X408910Y930027D01*
X402500Y930658D01*
X232500Y930658D01*
X226090Y930027D01*
X219926Y928157D01*
X214245Y925121D01*
X209266Y921034D01*
X205179Y916055D01*
X202143Y910374D01*
X200273Y904210D01*
X199642Y897800D01*
X199642Y727800D01*
X200273Y721390D01*
X202143Y715226D01*
X205179Y709545D01*
X209266Y704566D01*
X214245Y700479D01*
X219926Y697443D01*
X226090Y695573D01*
X232500Y694942D01*
X389719Y694942D01*
X362384Y667606D01*
X351832Y671977D01*
X329092Y676500D01*
X305908Y676500D01*
X283168Y671977D01*
X261748Y663104D01*
X242471Y650224D01*
X226076Y633829D01*
X213196Y614552D01*
X204323Y593132D01*
X199800Y570392D01*
X199800Y547208D01*
X204323Y524468D01*
X213196Y503048D01*
X226076Y483771D01*
X242471Y467376D01*
X261748Y454496D01*
X283168Y445623D01*
X305908Y441100D01*
X329092Y441100D01*
X351832Y445623D01*
X373252Y454496D01*
X392529Y467376D01*
X408924Y483771D01*
X421804Y503048D01*
X430677Y524468D01*
X435200Y547208D01*
X435200Y570392D01*
X430677Y593132D01*
X426306Y603684D01*
X453723Y631100D01*
X478253Y631100D01*
X467196Y614552D01*
X458323Y593132D01*
X453800Y570392D01*
X453800Y547208D01*
X458323Y524468D01*
X467196Y503048D01*
X480076Y483771D01*
X496471Y467376D01*
X515748Y454496D01*
X537168Y445623D01*
X559908Y441100D01*
X583092Y441100D01*
X605832Y445623D01*
X616384Y449994D01*
X639568Y426809D01*
X640984Y425084D01*
X647867Y419436D01*
X648495Y419100D01*
X655719Y415239D01*
X664239Y412654D01*
X673100Y411781D01*
X675321Y412000D01*
X1220250Y412000D01*
X1214519Y410261D01*
X1206667Y406064D01*
X1199784Y400416D01*
X1198369Y398691D01*
X1150710Y351032D01*
X1148984Y349616D01*
X1143336Y342733D01*
X1140757Y337909D01*
X1139139Y334881D01*
X1136554Y326361D01*
X1136113Y321884D01*
X1136026Y321857D01*
X1130345Y318821D01*
X1125366Y314734D01*
X1121279Y309755D01*
X1118243Y304074D01*
X1117600Y301955D01*
X1116957Y304074D01*
X1113921Y309755D01*
X1109834Y314734D01*
X1104855Y318821D01*
X1099174Y321857D01*
X1093010Y323727D01*
X1086600Y324358D01*
X1021600Y324358D01*
X1015190Y323727D01*
X1009026Y321857D01*
X1003345Y318821D01*
X998366Y314734D01*
X994279Y309755D01*
X991243Y304074D01*
X989373Y297910D01*
X988742Y291500D01*
X988742Y251700D01*
X958020Y251700D01*
X955800Y251919D01*
X946939Y251046D01*
X941246Y249319D01*
X938419Y248461D01*
X930567Y244264D01*
X923684Y238616D01*
X922268Y236890D01*
X857578Y172200D01*
X514022Y172200D01*
X426306Y259916D01*
X430677Y270468D01*
X435200Y293208D01*
X435200Y316392D01*
X430677Y339132D01*
X421804Y360552D01*
X408924Y379829D01*
X392529Y396224D01*
X373252Y409104D01*
X351832Y417977D01*
X329092Y422500D01*
X305908Y422500D01*
X283168Y417977D01*
X261748Y409104D01*
X242471Y396224D01*
X226076Y379829D01*
X213196Y360552D01*
X204323Y339132D01*
X199800Y316392D01*
X199800Y293208D01*
X204323Y270468D01*
X213196Y249048D01*
X226076Y229771D01*
X242471Y213376D01*
X261748Y200496D01*
X283168Y191623D01*
X305908Y187100D01*
X329092Y187100D01*
X351832Y191623D01*
X362384Y195994D01*
X461768Y96609D01*
X463184Y94884D01*
X470067Y89236D01*
X477919Y85039D01*
X486439Y82454D01*
X495300Y81581D01*
X497520Y81800D01*
X874079Y81800D01*
X876300Y81581D01*
X878520Y81800D01*
X885161Y82454D01*
X893681Y85039D01*
X901533Y89236D01*
X908416Y94884D01*
X909832Y96610D01*
X974522Y161300D01*
X988742Y161300D01*
X988742Y121500D01*
X989373Y115090D01*
X991243Y108926D01*
X994279Y103245D01*
X998366Y98266D01*
X1003345Y94179D01*
X1009026Y91143D01*
X1015190Y89273D01*
X1021600Y88642D01*
X1086600Y88642D01*
X1093010Y89273D01*
X1099174Y91143D01*
X1104855Y94179D01*
X1109834Y98266D01*
X1113921Y103245D01*
X1116957Y108926D01*
X1117600Y111045D01*
X1118243Y108926D01*
X1121279Y103245D01*
X1125366Y98266D01*
X1130345Y94179D01*
X1136026Y91143D01*
X1142190Y89273D01*
X1148600Y88642D01*
X1213600Y88642D01*
X1220010Y89273D01*
X1226174Y91143D01*
X1231855Y94179D01*
X1236834Y98266D01*
X1240921Y103245D01*
X1243957Y108926D01*
X1244600Y111045D01*
X1245243Y108926D01*
X1248279Y103245D01*
X1252366Y98266D01*
X1257345Y94179D01*
X1263026Y91143D01*
X1269190Y89273D01*
X1275600Y88642D01*
X1340600Y88642D01*
X1347010Y89273D01*
X1353174Y91143D01*
X1358855Y94179D01*
X1363834Y98266D01*
X1367921Y103245D01*
X1370957Y108926D01*
X1372827Y115090D01*
X1373458Y121500D01*
X1373458Y291500D01*
X1372827Y297910D01*
X1370957Y304074D01*
X1367921Y309755D01*
X1363834Y314734D01*
X1358855Y318821D01*
X1353174Y321857D01*
X1349077Y323100D01*
X1746578Y323100D01*
X1760997Y308681D01*
X1756456Y300185D01*
X1753305Y289800D01*
X1752242Y279000D01*
X1752242Y229000D01*
X1753305Y218200D01*
X1756456Y207815D01*
X1761571Y198245D01*
X1768456Y189856D01*
X1776845Y182971D01*
X1786415Y177856D01*
X1796800Y174706D01*
X1807600Y173642D01*
X1852600Y173642D01*
X1863400Y174706D01*
X1873785Y177856D01*
X1883355Y182971D01*
X1891744Y189856D01*
X1898629Y198245D01*
X1903744Y207815D01*
X1904043Y208800D01*
X1914186Y208800D01*
X1914251Y208587D01*
X1919482Y198800D01*
X1926522Y190222D01*
X1935100Y183182D01*
X1944887Y177951D01*
X1955506Y174730D01*
X1966550Y173642D01*
X2016550Y173642D01*
X2027594Y174730D01*
X2038213Y177951D01*
X2048000Y183182D01*
X2056578Y190222D01*
X2063618Y198800D01*
X2068849Y208587D01*
X2072070Y219206D01*
X2073158Y230250D01*
X2073158Y277750D01*
X2072070Y288794D01*
X2068849Y299413D01*
X2063618Y309200D01*
X2056578Y317778D01*
X2048000Y324818D01*
X2038213Y330049D01*
X2027594Y333271D01*
X2016550Y334358D01*
X1966550Y334358D01*
X1955506Y333271D01*
X1944887Y330049D01*
X1935100Y324818D01*
X1926522Y317778D01*
X1919482Y309200D01*
X1914251Y299413D01*
X1914186Y299200D01*
X1904043Y299200D01*
X1903744Y300185D01*
X1898629Y309755D01*
X1891744Y318144D01*
X1883355Y325029D01*
X1873785Y330144D01*
X1864360Y333003D01*
X1862216Y335616D01*
X1860491Y337032D01*
X1798832Y398690D01*
X1797416Y400416D01*
X1790533Y406064D01*
X1782681Y410261D01*
X1774161Y412846D01*
X1767520Y413500D01*
X1765300Y413719D01*
X1763079Y413500D01*
X1357850Y413500D01*
X1363581Y415239D01*
X1371433Y419436D01*
X1378316Y425084D01*
X1379732Y426810D01*
X1413891Y460968D01*
X1415240Y460700D01*
X1429560Y460700D01*
X1443606Y463494D01*
X1456836Y468974D01*
X1468744Y476930D01*
X1478870Y487056D01*
X1486826Y498964D01*
X1492306Y512194D01*
X1495100Y526240D01*
X1495100Y540560D01*
X1492306Y554606D01*
X1486826Y567836D01*
X1478870Y579744D01*
X1468813Y589800D01*
X1684378Y589800D01*
X1752242Y521936D01*
X1752242Y483000D01*
X1753305Y472200D01*
X1756456Y461815D01*
X1761571Y452245D01*
X1768456Y443856D01*
X1776845Y436971D01*
X1786415Y431856D01*
X1796800Y428705D01*
X1807600Y427642D01*
X1852600Y427642D01*
X1863400Y428705D01*
X1873785Y431856D01*
X1883355Y436971D01*
X1891744Y443856D01*
X1898629Y452245D01*
X1903744Y461815D01*
X1904043Y462800D01*
X1914186Y462800D01*
X1914251Y462587D01*
X1919482Y452800D01*
X1926522Y444222D01*
X1935100Y437182D01*
X1944887Y431951D01*
X1955506Y428729D01*
X1966550Y427642D01*
X2016550Y427642D01*
X2027594Y428729D01*
X2038213Y431951D01*
X2048000Y437182D01*
X2056578Y444222D01*
X2063618Y452800D01*
X2068849Y462587D01*
X2072070Y473206D01*
X2073158Y484250D01*
X2073158Y531750D01*
X2072070Y542794D01*
X2068849Y553413D01*
X2063618Y563200D01*
X2056578Y571778D01*
X2048000Y578818D01*
X2038213Y584049D01*
X2027594Y587271D01*
X2016550Y588358D01*
X1966550Y588358D01*
X1955506Y587271D01*
X1944887Y584049D01*
X1935100Y578818D01*
X1926522Y571778D01*
X1919482Y563200D01*
X1914251Y553413D01*
X1914186Y553200D01*
X1904043Y553200D01*
X1903744Y554185D01*
X1898629Y563755D01*
X1891744Y572144D01*
X1883355Y579029D01*
X1873785Y584144D01*
X1863400Y587295D01*
X1852600Y588358D01*
X1813664Y588358D01*
X1748722Y653300D01*
X1966279Y653300D01*
X1968500Y653081D01*
X1970720Y653300D01*
X1977361Y653954D01*
X1985881Y656539D01*
X1993733Y660736D01*
X2000616Y666384D01*
X2002032Y668110D01*
X2012622Y678700D01*
X3054678Y678700D01*
X3125568Y607810D01*
X3126984Y606084D01*
X3129756Y603809D01*
X3121676Y595729D01*
X3108796Y576452D01*
X3104425Y565900D01*
X2557269Y565900D01*
X2552144Y572144D01*
X2543755Y579029D01*
X2534185Y584144D01*
X2523800Y587295D01*
X2513000Y588358D01*
X2468000Y588358D01*
X2457200Y587295D01*
X2446815Y584144D01*
X2437245Y579029D01*
X2428856Y572144D01*
X2421971Y563755D01*
X2416856Y554185D01*
X2413706Y543800D01*
X2412642Y533000D01*
X2412642Y483000D01*
X2413706Y472200D01*
X2416102Y464300D01*
X2251869Y464300D01*
X2254571Y473206D01*
X2255658Y484250D01*
X2255658Y531750D01*
X2254571Y542794D01*
X2251349Y553413D01*
X2246118Y563200D01*
X2239078Y571778D01*
X2230500Y578818D01*
X2220713Y584049D01*
X2210094Y587271D01*
X2199050Y588358D01*
X2149050Y588358D01*
X2138006Y587271D01*
X2127387Y584049D01*
X2117600Y578818D01*
X2109022Y571778D01*
X2101982Y563200D01*
X2096751Y553413D01*
X2093529Y542794D01*
X2092442Y531750D01*
X2092442Y484250D01*
X2093529Y473206D01*
X2096751Y462587D01*
X2101982Y452800D01*
X2109022Y444222D01*
X2117600Y437182D01*
X2127387Y431951D01*
X2130166Y431108D01*
X2132089Y424769D01*
X2135119Y419100D01*
X2136286Y416917D01*
X2141934Y410034D01*
X2143660Y408618D01*
X2163568Y388710D01*
X2164794Y387216D01*
X2143660Y366082D01*
X2141934Y364666D01*
X2136286Y357783D01*
X2132617Y350919D01*
X2132089Y349931D01*
X2129504Y341411D01*
X2128631Y332550D01*
X2128834Y330488D01*
X2127387Y330049D01*
X2117600Y324818D01*
X2109022Y317778D01*
X2101982Y309200D01*
X2096751Y299413D01*
X2093529Y288794D01*
X2092442Y277750D01*
X2092442Y230250D01*
X2093529Y219206D01*
X2096751Y208587D01*
X2101982Y198800D01*
X2109022Y190222D01*
X2117600Y183182D01*
X2127387Y177951D01*
X2138006Y174730D01*
X2149050Y173642D01*
X2199050Y173642D01*
X2210094Y174730D01*
X2220713Y177951D01*
X2230500Y183182D01*
X2239078Y190222D01*
X2246118Y198800D01*
X2251349Y208587D01*
X2254571Y219206D01*
X2255658Y230250D01*
X2255658Y277750D01*
X2254571Y288794D01*
X2251349Y299413D01*
X2246118Y309200D01*
X2239078Y317778D01*
X2232593Y323100D01*
X2419678Y323100D01*
X2426953Y315825D01*
X2421971Y309755D01*
X2416856Y300185D01*
X2413706Y289800D01*
X2412642Y279000D01*
X2412642Y229000D01*
X2413706Y218200D01*
X2416856Y207815D01*
X2421971Y198245D01*
X2428856Y189856D01*
X2437245Y182971D01*
X2446815Y177856D01*
X2457200Y174706D01*
X2468000Y173642D01*
X2513000Y173642D01*
X2523800Y174706D01*
X2534185Y177856D01*
X2543755Y182971D01*
X2552144Y189856D01*
X2559029Y198245D01*
X2564144Y207815D01*
X2567295Y218200D01*
X2567620Y221500D01*
X3104425Y221500D01*
X3108796Y210948D01*
X3121676Y191671D01*
X3138071Y175276D01*
X3157348Y162396D01*
X3178768Y153523D01*
X3201508Y149000D01*
X3224692Y149000D01*
X3247432Y153523D01*
X3268852Y162396D01*
X3288129Y175276D01*
X3304524Y191671D01*
X3317404Y210948D01*
X3326277Y232368D01*
X3330800Y255108D01*
X3330800Y278292D01*
X3326277Y301032D01*
X3317404Y322452D01*
X3304524Y341729D01*
X3288129Y358124D01*
X3268852Y371004D01*
X3247432Y379877D01*
X3224692Y384400D01*
X3201508Y384400D01*
X3178768Y379877D01*
X3157348Y371004D01*
X3138071Y358124D01*
X3121676Y341729D01*
X3108796Y322452D01*
X3104425Y311900D01*
X2557269Y311900D01*
X2552144Y318144D01*
X2543755Y325029D01*
X2534185Y330144D01*
X2533435Y330372D01*
X2532461Y333581D01*
X2528264Y341433D01*
X2522616Y348316D01*
X2520891Y349731D01*
X2489173Y381450D01*
X2495916Y386984D01*
X2497332Y388710D01*
X2520890Y412268D01*
X2522616Y413684D01*
X2528264Y420567D01*
X2532461Y428419D01*
X2533435Y431628D01*
X2534185Y431856D01*
X2543755Y436971D01*
X2552144Y443856D01*
X2559029Y452245D01*
X2564144Y461815D01*
X2567295Y472200D01*
X2567620Y475500D01*
X3104425Y475500D01*
X3108796Y464948D01*
X3121676Y445671D01*
X3138071Y429276D01*
X3157348Y416396D01*
X3178768Y407523D01*
X3201508Y403000D01*
X3224692Y403000D01*
X3247432Y407523D01*
X3268852Y416396D01*
X3288129Y429276D01*
X3304524Y445671D01*
X3317404Y464948D01*
X3326277Y486368D01*
X3330800Y509108D01*
X3330800Y532292D01*
X3326277Y555032D01*
X3317404Y576452D01*
X3306413Y592901D01*
X3307421Y593000D01*
X3314061Y593654D01*
X3322581Y596239D01*
X3330433Y600436D01*
X3337316Y606084D01*
X3338732Y607810D01*
X3408591Y677669D01*
X3410316Y679084D01*
X3415964Y685967D01*
X3420161Y693819D01*
X3422746Y702339D01*
X3423400Y708979D01*
X3423400Y708980D01*
X3423619Y711200D01*
X3423400Y713420D01*
X3423400Y1204280D01*
X3423619Y1206500D01*
X3422746Y1215361D01*
X3420161Y1223881D01*
X3415964Y1231733D01*
X3410316Y1238616D01*
X3408590Y1240032D01*
X3384841Y1263782D01*
X3383011Y1269814D01*
X3379989Y1275467D01*
X3375922Y1280422D01*
X3370967Y1284489D01*
X3365314Y1287511D01*
X3359282Y1289341D01*
X3335532Y1313090D01*
X3334116Y1314816D01*
X3327233Y1320464D01*
X3319381Y1324661D01*
X3310861Y1327246D01*
X3304220Y1327900D01*
X3302000Y1328119D01*
X3299779Y1327900D01*
X2924672Y1327900D01*
X2860558Y1392014D01*
X2860558Y1433450D01*
X2859470Y1444494D01*
X2856249Y1455113D01*
X2851018Y1464900D01*
X2843978Y1473478D01*
X2835400Y1480518D01*
X2825613Y1485749D01*
X2824150Y1486193D01*
X2824150Y1498307D01*
X2825613Y1498751D01*
X2835400Y1503982D01*
X2843978Y1511022D01*
X2851018Y1519600D01*
X2856249Y1529387D01*
X2859470Y1540006D01*
X2860558Y1551050D01*
X2860558Y1598550D01*
X2859470Y1609594D01*
X2856249Y1620213D01*
X2851018Y1630000D01*
X2843978Y1638578D01*
X2835400Y1645618D01*
X2825613Y1650849D01*
X2814994Y1654070D01*
X2803950Y1655158D01*
X2753950Y1655158D01*
X2742906Y1654070D01*
X2737800Y1652521D01*
X2737800Y1764900D01*
X2869842Y1764900D01*
X2869842Y1714900D01*
X2870905Y1704100D01*
X2874056Y1693715D01*
X2879171Y1684145D01*
X2886056Y1675756D01*
X2894445Y1668871D01*
X2904015Y1663756D01*
X2914400Y1660605D01*
X2916250Y1660423D01*
X2916250Y1651293D01*
X2914787Y1650849D01*
X2905000Y1645618D01*
X2896422Y1638578D01*
X2889382Y1630000D01*
X2884151Y1620213D01*
X2880929Y1609594D01*
X2879842Y1598550D01*
X2879842Y1551050D01*
X2880929Y1540006D01*
X2884151Y1529387D01*
X2889382Y1519600D01*
X2896422Y1511022D01*
X2905000Y1503982D01*
X2914787Y1498751D01*
X2925406Y1495529D01*
X2936450Y1494442D01*
X2986450Y1494442D01*
X2997494Y1495529D01*
X3008113Y1498751D01*
X3017900Y1503982D01*
X3026478Y1511022D01*
X3033518Y1519600D01*
X3038749Y1529387D01*
X3038814Y1529600D01*
X3105478Y1529600D01*
X3116994Y1518084D01*
X3112623Y1507532D01*
X3108100Y1484792D01*
X3108100Y1461608D01*
X3112623Y1438868D01*
X3121496Y1417448D01*
X3134376Y1398171D01*
X3150771Y1381776D01*
X3170048Y1368896D01*
X3191468Y1360023D01*
X3214208Y1355500D01*
X3237392Y1355500D01*
X3260132Y1360023D01*
X3281552Y1368896D01*
X3300829Y1381776D01*
X3317224Y1398171D01*
X3330104Y1417448D01*
X3338977Y1438868D01*
X3343500Y1461608D01*
X3343500Y1484792D01*
X3338977Y1507532D01*
X3330104Y1528952D01*
X3317224Y1548229D01*
X3300829Y1564624D01*
X3281552Y1577504D01*
X3260132Y1586377D01*
X3237392Y1590900D01*
X3214208Y1590900D01*
X3191468Y1586377D01*
X3180916Y1582006D01*
X3157732Y1605190D01*
X3156316Y1606916D01*
X3149433Y1612564D01*
X3141581Y1616761D01*
X3133061Y1619346D01*
X3126420Y1620000D01*
X3124200Y1620219D01*
X3121979Y1620000D01*
X3038814Y1620000D01*
X3038749Y1620213D01*
X3033518Y1630000D01*
X3026478Y1638578D01*
X3017900Y1645618D01*
X3008113Y1650849D01*
X3006650Y1651293D01*
X3006650Y1673545D01*
X3009344Y1675756D01*
X3016229Y1684145D01*
X3021344Y1693715D01*
X3024494Y1704100D01*
X3025558Y1714900D01*
X3025558Y1764900D01*
X3024494Y1775700D01*
X3021344Y1786085D01*
X3016229Y1795655D01*
X3009344Y1804044D01*
X3000955Y1810929D01*
X2991385Y1816044D01*
X2981000Y1819194D01*
X2970200Y1820258D01*
X2925200Y1820258D01*
X2914400Y1819194D01*
X2904015Y1816044D01*
X2894445Y1810929D01*
X2886056Y1804044D01*
X2879171Y1795655D01*
X2874056Y1786085D01*
X2870905Y1775700D01*
X2869842Y1764900D01*
X2737800Y1764900D01*
X2737800Y2075500D01*
X2860299Y2075500D01*
X2989900Y1989099D01*
X2989900Y1866900D01*
X2990528Y1860520D01*
X2992389Y1854386D01*
X2995411Y1848733D01*
X2999478Y1843778D01*
X3004433Y1839711D01*
X3010086Y1836689D01*
X3016220Y1834828D01*
X3022600Y1834200D01*
X3378200Y1834200D01*
X3384579Y1834828D01*
X3390714Y1836689D01*
X3396367Y1839711D01*
X3401322Y1843778D01*
X3405389Y1848733D01*
X3408411Y1854386D01*
X3410272Y1860520D01*
X3410900Y1866900D01*
X3410900Y2235200D01*
X3410272Y2241580D01*
X3408411Y2247714D01*
X3405389Y2253367D01*
X3401322Y2258322D01*
X3396367Y2262389D01*
X3390714Y2265411D01*
X3384579Y2267272D01*
X3378200Y2267900D01*
X177800Y2267900D01*
X171421Y2267272D01*
X165286Y2265411D01*
X159633Y2262389D01*
X154678Y2258322D01*
X150611Y2253367D01*
X147589Y2247714D01*
X145728Y2241580D01*
X145100Y2235200D01*
X-41000Y2235200D01*
X-41000Y2339700D01*
X3520800Y2339700D01*
X3520800Y-41000D01*
G37*
G04 #@! TD.AperFunction*
D18*
X1135900Y700720D02*
X1135681Y698500D01*
X1136343Y691784D01*
X1136554Y689639D01*
X1139139Y681119D01*
X1143336Y673267D01*
X1148984Y666384D01*
X1150710Y664968D01*
X1193378Y622300D01*
X1136978Y565900D01*
X844222Y565900D01*
X741575Y668547D01*
X799239Y716600D01*
X1117600Y716600D01*
X1123980Y717228D01*
X1130114Y719089D01*
X1135767Y722111D01*
X1135900Y722220D01*
X1135900Y700720D01*
G04 #@! TA.AperFunction,Conductor*
D19*
G36*
X1135900Y700720D02*
G01*
X1135681Y698500D01*
X1136343Y691784D01*
X1136554Y689639D01*
X1139139Y681119D01*
X1143336Y673267D01*
X1148984Y666384D01*
X1150710Y664968D01*
X1193378Y622300D01*
X1136978Y565900D01*
X844222Y565900D01*
X741575Y668547D01*
X799239Y716600D01*
X1117600Y716600D01*
X1123980Y717228D01*
X1130114Y719089D01*
X1135767Y722111D01*
X1135900Y722220D01*
X1135900Y700720D01*
G37*
G04 #@! TD.AperFunction*
D18*
X2549142Y1019900D02*
X2549773Y1013490D01*
X2551643Y1007326D01*
X2554679Y1001645D01*
X2558766Y996666D01*
X2563745Y992579D01*
X2569426Y989543D01*
X2575590Y987673D01*
X2582000Y987042D01*
X2752000Y987042D01*
X2758410Y987673D01*
X2761300Y988550D01*
X2761300Y901700D01*
X2761928Y895320D01*
X2763789Y889186D01*
X2766811Y883533D01*
X2770878Y878578D01*
X2775833Y874511D01*
X2781486Y871489D01*
X2787621Y869628D01*
X2794000Y869000D01*
X3333000Y869000D01*
X3333000Y729922D01*
X3286478Y683400D01*
X3177822Y683400D01*
X3106932Y754290D01*
X3105516Y756016D01*
X3098633Y761664D01*
X3090781Y765861D01*
X3082261Y768446D01*
X3075620Y769100D01*
X3073400Y769319D01*
X3071179Y769100D01*
X1996120Y769100D01*
X1993900Y769319D01*
X1985039Y768446D01*
X1983517Y767984D01*
X1976519Y765861D01*
X1968667Y761664D01*
X1961784Y756016D01*
X1960368Y754290D01*
X1949778Y743700D01*
X1768500Y743700D01*
X1769029Y744345D01*
X1774144Y753915D01*
X1777294Y764300D01*
X1778358Y775100D01*
X1778358Y825100D01*
X1777294Y835900D01*
X1774144Y846285D01*
X1769029Y855855D01*
X1762144Y864244D01*
X1753755Y871129D01*
X1744185Y876244D01*
X1737066Y878404D01*
X1743200Y881682D01*
X1751778Y888722D01*
X1758818Y897300D01*
X1764049Y907087D01*
X1767270Y917706D01*
X1768358Y928750D01*
X1768358Y976250D01*
X1767270Y987294D01*
X1764049Y997913D01*
X1758818Y1007700D01*
X1757997Y1008700D01*
X1798003Y1008700D01*
X1797182Y1007700D01*
X1791951Y997913D01*
X1788729Y987294D01*
X1787642Y976250D01*
X1787642Y928750D01*
X1788729Y917706D01*
X1791951Y907087D01*
X1797182Y897300D01*
X1804222Y888722D01*
X1812800Y881682D01*
X1822587Y876451D01*
X1833206Y873229D01*
X1844250Y872142D01*
X1894250Y872142D01*
X1905294Y873229D01*
X1915913Y876451D01*
X1925700Y881682D01*
X1934278Y888722D01*
X1941318Y897300D01*
X1946549Y907087D01*
X1946614Y907300D01*
X1952286Y907300D01*
X1952351Y907087D01*
X1957582Y897300D01*
X1964622Y888722D01*
X1973200Y881682D01*
X1982987Y876451D01*
X1993606Y873229D01*
X2004650Y872142D01*
X2046086Y872142D01*
X2085018Y833209D01*
X2086434Y831484D01*
X2093317Y825836D01*
X2096017Y824392D01*
X2101169Y821639D01*
X2109689Y819054D01*
X2118550Y818181D01*
X2120771Y818400D01*
X2271080Y818400D01*
X2273300Y818181D01*
X2275521Y818400D01*
X2282161Y819054D01*
X2290681Y821639D01*
X2298533Y825836D01*
X2305416Y831484D01*
X2306832Y833210D01*
X2387664Y914042D01*
X2412600Y914042D01*
X2423400Y915105D01*
X2433785Y918256D01*
X2443355Y923371D01*
X2451744Y930256D01*
X2458629Y938645D01*
X2463744Y948215D01*
X2466895Y958600D01*
X2467958Y969400D01*
X2467958Y1007036D01*
X2520623Y1059700D01*
X2549142Y1059700D01*
X2549142Y1019900D01*
G04 #@! TA.AperFunction,Conductor*
D19*
G36*
X2549142Y1019900D02*
G01*
X2549773Y1013490D01*
X2551643Y1007326D01*
X2554679Y1001645D01*
X2558766Y996666D01*
X2563745Y992579D01*
X2569426Y989543D01*
X2575590Y987673D01*
X2582000Y987042D01*
X2752000Y987042D01*
X2758410Y987673D01*
X2761300Y988550D01*
X2761300Y901700D01*
X2761928Y895320D01*
X2763789Y889186D01*
X2766811Y883533D01*
X2770878Y878578D01*
X2775833Y874511D01*
X2781486Y871489D01*
X2787621Y869628D01*
X2794000Y869000D01*
X3333000Y869000D01*
X3333000Y729922D01*
X3286478Y683400D01*
X3177822Y683400D01*
X3106932Y754290D01*
X3105516Y756016D01*
X3098633Y761664D01*
X3090781Y765861D01*
X3082261Y768446D01*
X3075620Y769100D01*
X3073400Y769319D01*
X3071179Y769100D01*
X1996120Y769100D01*
X1993900Y769319D01*
X1985039Y768446D01*
X1983517Y767984D01*
X1976519Y765861D01*
X1968667Y761664D01*
X1961784Y756016D01*
X1960368Y754290D01*
X1949778Y743700D01*
X1768500Y743700D01*
X1769029Y744345D01*
X1774144Y753915D01*
X1777294Y764300D01*
X1778358Y775100D01*
X1778358Y825100D01*
X1777294Y835900D01*
X1774144Y846285D01*
X1769029Y855855D01*
X1762144Y864244D01*
X1753755Y871129D01*
X1744185Y876244D01*
X1737066Y878404D01*
X1743200Y881682D01*
X1751778Y888722D01*
X1758818Y897300D01*
X1764049Y907087D01*
X1767270Y917706D01*
X1768358Y928750D01*
X1768358Y976250D01*
X1767270Y987294D01*
X1764049Y997913D01*
X1758818Y1007700D01*
X1757997Y1008700D01*
X1798003Y1008700D01*
X1797182Y1007700D01*
X1791951Y997913D01*
X1788729Y987294D01*
X1787642Y976250D01*
X1787642Y928750D01*
X1788729Y917706D01*
X1791951Y907087D01*
X1797182Y897300D01*
X1804222Y888722D01*
X1812800Y881682D01*
X1822587Y876451D01*
X1833206Y873229D01*
X1844250Y872142D01*
X1894250Y872142D01*
X1905294Y873229D01*
X1915913Y876451D01*
X1925700Y881682D01*
X1934278Y888722D01*
X1941318Y897300D01*
X1946549Y907087D01*
X1946614Y907300D01*
X1952286Y907300D01*
X1952351Y907087D01*
X1957582Y897300D01*
X1964622Y888722D01*
X1973200Y881682D01*
X1982987Y876451D01*
X1993606Y873229D01*
X2004650Y872142D01*
X2046086Y872142D01*
X2085018Y833209D01*
X2086434Y831484D01*
X2093317Y825836D01*
X2096017Y824392D01*
X2101169Y821639D01*
X2109689Y819054D01*
X2118550Y818181D01*
X2120771Y818400D01*
X2271080Y818400D01*
X2273300Y818181D01*
X2275521Y818400D01*
X2282161Y819054D01*
X2290681Y821639D01*
X2298533Y825836D01*
X2305416Y831484D01*
X2306832Y833210D01*
X2387664Y914042D01*
X2412600Y914042D01*
X2423400Y915105D01*
X2433785Y918256D01*
X2443355Y923371D01*
X2451744Y930256D01*
X2458629Y938645D01*
X2463744Y948215D01*
X2466895Y958600D01*
X2467958Y969400D01*
X2467958Y1007036D01*
X2520623Y1059700D01*
X2549142Y1059700D01*
X2549142Y1019900D01*
G37*
G04 #@! TD.AperFunction*
D18*
X805500Y1587500D02*
X806128Y1581120D01*
X807989Y1574986D01*
X811011Y1569333D01*
X815078Y1564378D01*
X820033Y1560311D01*
X825686Y1557289D01*
X831820Y1555428D01*
X838200Y1554800D01*
X845713Y1554800D01*
X848626Y1553243D01*
X854790Y1551373D01*
X861200Y1550742D01*
X1001200Y1550742D01*
X1007610Y1551373D01*
X1013774Y1553243D01*
X1016687Y1554800D01*
X1066800Y1554800D01*
X1073150Y1555425D01*
X1079500Y1554800D01*
X1161100Y1554800D01*
X1161100Y1549400D01*
X1161728Y1543020D01*
X1163589Y1536886D01*
X1166611Y1531233D01*
X1170678Y1526278D01*
X1175633Y1522211D01*
X1181286Y1519189D01*
X1187421Y1517328D01*
X1193800Y1516700D01*
X1600200Y1516700D01*
X1606579Y1517328D01*
X1612714Y1519189D01*
X1618367Y1522211D01*
X1623322Y1526278D01*
X1627389Y1531233D01*
X1630411Y1536886D01*
X1632272Y1543020D01*
X1632900Y1549400D01*
X1632900Y1802555D01*
X1651845Y1821500D01*
X1948700Y1821500D01*
X1948700Y1786458D01*
X1843600Y1786458D01*
X1837190Y1785827D01*
X1831026Y1783957D01*
X1825345Y1780921D01*
X1820366Y1776834D01*
X1816279Y1771855D01*
X1813243Y1766174D01*
X1811373Y1760010D01*
X1810742Y1753600D01*
X1810742Y1688600D01*
X1811373Y1682190D01*
X1813243Y1676026D01*
X1816279Y1670345D01*
X1820366Y1665366D01*
X1825345Y1661279D01*
X1831026Y1658243D01*
X1837190Y1656373D01*
X1843600Y1655742D01*
X1949600Y1655742D01*
X1956010Y1656373D01*
X1962174Y1658243D01*
X1967855Y1661279D01*
X1972834Y1665366D01*
X1976921Y1670345D01*
X1979957Y1676026D01*
X1981118Y1679853D01*
X1987633Y1683336D01*
X1994516Y1688984D01*
X1995932Y1690710D01*
X2024291Y1719069D01*
X2026016Y1720484D01*
X2030742Y1726243D01*
X2030742Y1688600D01*
X2031373Y1682190D01*
X2033243Y1676026D01*
X2036279Y1670345D01*
X2040366Y1665366D01*
X2045345Y1661279D01*
X2051026Y1658243D01*
X2057190Y1656373D01*
X2063600Y1655742D01*
X2169600Y1655742D01*
X2176010Y1656373D01*
X2182174Y1658243D01*
X2187855Y1661279D01*
X2192834Y1665366D01*
X2196921Y1670345D01*
X2199957Y1676026D01*
X2201827Y1682190D01*
X2202458Y1688600D01*
X2202458Y1753600D01*
X2201827Y1760010D01*
X2199957Y1766174D01*
X2197538Y1770700D01*
X2367600Y1770700D01*
X2367600Y1544000D01*
X2019300Y1544000D01*
X2012920Y1543372D01*
X2006786Y1541511D01*
X2001133Y1538489D01*
X1996178Y1534422D01*
X1992111Y1529467D01*
X1989089Y1523814D01*
X1987228Y1517679D01*
X1986600Y1511300D01*
X1986600Y1302700D01*
X1701800Y1302700D01*
X1695420Y1302072D01*
X1689286Y1300211D01*
X1683633Y1297189D01*
X1678678Y1293122D01*
X1674611Y1288167D01*
X1671589Y1282514D01*
X1669728Y1276380D01*
X1669100Y1270000D01*
X1669100Y1242835D01*
X1664626Y1253636D01*
X1656670Y1265544D01*
X1646544Y1275670D01*
X1634636Y1283626D01*
X1621406Y1289106D01*
X1607360Y1291900D01*
X1593040Y1291900D01*
X1578994Y1289106D01*
X1565764Y1283626D01*
X1553856Y1275670D01*
X1543730Y1265544D01*
X1542966Y1264400D01*
X1514814Y1264400D01*
X1514749Y1264613D01*
X1509518Y1274400D01*
X1502478Y1282978D01*
X1493900Y1290018D01*
X1484113Y1295249D01*
X1473494Y1298471D01*
X1462450Y1299558D01*
X1412450Y1299558D01*
X1401406Y1298471D01*
X1390787Y1295249D01*
X1381000Y1290018D01*
X1372422Y1282978D01*
X1365382Y1274400D01*
X1360151Y1264613D01*
X1356930Y1253994D01*
X1355842Y1242950D01*
X1355842Y1195450D01*
X1356536Y1188400D01*
X1335864Y1188400D01*
X1336558Y1195450D01*
X1336558Y1242950D01*
X1335471Y1253994D01*
X1332249Y1264613D01*
X1327018Y1274400D01*
X1319978Y1282978D01*
X1311400Y1290018D01*
X1301613Y1295249D01*
X1290994Y1298471D01*
X1279950Y1299558D01*
X1229950Y1299558D01*
X1218906Y1298471D01*
X1208287Y1295249D01*
X1198500Y1290018D01*
X1189922Y1282978D01*
X1182882Y1274400D01*
X1181100Y1271066D01*
X1179318Y1274400D01*
X1172278Y1282978D01*
X1163700Y1290018D01*
X1153913Y1295249D01*
X1143294Y1298471D01*
X1132250Y1299558D01*
X1082250Y1299558D01*
X1071206Y1298471D01*
X1060587Y1295249D01*
X1050800Y1290018D01*
X1042222Y1282978D01*
X1035182Y1274400D01*
X1029951Y1264613D01*
X1026729Y1253994D01*
X1025642Y1242950D01*
X1025642Y1195450D01*
X1026026Y1191548D01*
X984578Y1150100D01*
X590223Y1150100D01*
X536400Y1203922D01*
X536400Y1350742D01*
X561200Y1350742D01*
X567610Y1351373D01*
X573774Y1353243D01*
X579455Y1356279D01*
X584434Y1360366D01*
X588521Y1365345D01*
X591557Y1371026D01*
X593427Y1377190D01*
X594058Y1383600D01*
X594058Y1413600D01*
X593427Y1420010D01*
X592338Y1423600D01*
X593427Y1427190D01*
X594058Y1433600D01*
X594058Y1463600D01*
X593427Y1470010D01*
X592338Y1473600D01*
X593427Y1477190D01*
X594058Y1483600D01*
X594058Y1492984D01*
X596714Y1493789D01*
X602367Y1496811D01*
X607322Y1500878D01*
X611389Y1505833D01*
X614411Y1511486D01*
X615052Y1513600D01*
X828342Y1513600D01*
X828342Y1483600D01*
X828973Y1477190D01*
X830062Y1473600D01*
X828973Y1470010D01*
X828342Y1463600D01*
X828342Y1433600D01*
X828973Y1427190D01*
X830843Y1421026D01*
X833879Y1415345D01*
X837966Y1410366D01*
X842945Y1406279D01*
X848626Y1403243D01*
X854790Y1401373D01*
X861200Y1400742D01*
X1001200Y1400742D01*
X1007610Y1401373D01*
X1013774Y1403243D01*
X1019455Y1406279D01*
X1024434Y1410366D01*
X1028521Y1415345D01*
X1031557Y1421026D01*
X1033427Y1427190D01*
X1034058Y1433600D01*
X1034058Y1463600D01*
X1033427Y1470010D01*
X1032338Y1473600D01*
X1033427Y1477190D01*
X1034058Y1483600D01*
X1034058Y1513600D01*
X1033427Y1520010D01*
X1031557Y1526174D01*
X1028521Y1531855D01*
X1024434Y1536834D01*
X1019455Y1540921D01*
X1013774Y1543957D01*
X1007610Y1545827D01*
X1001200Y1546458D01*
X861200Y1546458D01*
X854790Y1545827D01*
X848626Y1543957D01*
X842945Y1540921D01*
X837966Y1536834D01*
X833879Y1531855D01*
X830843Y1526174D01*
X828973Y1520010D01*
X828342Y1513600D01*
X615052Y1513600D01*
X616272Y1517620D01*
X616900Y1524000D01*
X616900Y2075500D01*
X805500Y2075500D01*
X805500Y1587500D01*
G04 #@! TA.AperFunction,Conductor*
D19*
G36*
X805500Y1587500D02*
G01*
X806128Y1581120D01*
X807989Y1574986D01*
X811011Y1569333D01*
X815078Y1564378D01*
X820033Y1560311D01*
X825686Y1557289D01*
X831820Y1555428D01*
X838200Y1554800D01*
X845713Y1554800D01*
X848626Y1553243D01*
X854790Y1551373D01*
X861200Y1550742D01*
X1001200Y1550742D01*
X1007610Y1551373D01*
X1013774Y1553243D01*
X1016687Y1554800D01*
X1066800Y1554800D01*
X1073150Y1555425D01*
X1079500Y1554800D01*
X1161100Y1554800D01*
X1161100Y1549400D01*
X1161728Y1543020D01*
X1163589Y1536886D01*
X1166611Y1531233D01*
X1170678Y1526278D01*
X1175633Y1522211D01*
X1181286Y1519189D01*
X1187421Y1517328D01*
X1193800Y1516700D01*
X1600200Y1516700D01*
X1606579Y1517328D01*
X1612714Y1519189D01*
X1618367Y1522211D01*
X1623322Y1526278D01*
X1627389Y1531233D01*
X1630411Y1536886D01*
X1632272Y1543020D01*
X1632900Y1549400D01*
X1632900Y1802555D01*
X1651845Y1821500D01*
X1948700Y1821500D01*
X1948700Y1786458D01*
X1843600Y1786458D01*
X1837190Y1785827D01*
X1831026Y1783957D01*
X1825345Y1780921D01*
X1820366Y1776834D01*
X1816279Y1771855D01*
X1813243Y1766174D01*
X1811373Y1760010D01*
X1810742Y1753600D01*
X1810742Y1688600D01*
X1811373Y1682190D01*
X1813243Y1676026D01*
X1816279Y1670345D01*
X1820366Y1665366D01*
X1825345Y1661279D01*
X1831026Y1658243D01*
X1837190Y1656373D01*
X1843600Y1655742D01*
X1949600Y1655742D01*
X1956010Y1656373D01*
X1962174Y1658243D01*
X1967855Y1661279D01*
X1972834Y1665366D01*
X1976921Y1670345D01*
X1979957Y1676026D01*
X1981118Y1679853D01*
X1987633Y1683336D01*
X1994516Y1688984D01*
X1995932Y1690710D01*
X2024291Y1719069D01*
X2026016Y1720484D01*
X2030742Y1726243D01*
X2030742Y1688600D01*
X2031373Y1682190D01*
X2033243Y1676026D01*
X2036279Y1670345D01*
X2040366Y1665366D01*
X2045345Y1661279D01*
X2051026Y1658243D01*
X2057190Y1656373D01*
X2063600Y1655742D01*
X2169600Y1655742D01*
X2176010Y1656373D01*
X2182174Y1658243D01*
X2187855Y1661279D01*
X2192834Y1665366D01*
X2196921Y1670345D01*
X2199957Y1676026D01*
X2201827Y1682190D01*
X2202458Y1688600D01*
X2202458Y1753600D01*
X2201827Y1760010D01*
X2199957Y1766174D01*
X2197538Y1770700D01*
X2367600Y1770700D01*
X2367600Y1544000D01*
X2019300Y1544000D01*
X2012920Y1543372D01*
X2006786Y1541511D01*
X2001133Y1538489D01*
X1996178Y1534422D01*
X1992111Y1529467D01*
X1989089Y1523814D01*
X1987228Y1517679D01*
X1986600Y1511300D01*
X1986600Y1302700D01*
X1701800Y1302700D01*
X1695420Y1302072D01*
X1689286Y1300211D01*
X1683633Y1297189D01*
X1678678Y1293122D01*
X1674611Y1288167D01*
X1671589Y1282514D01*
X1669728Y1276380D01*
X1669100Y1270000D01*
X1669100Y1242835D01*
X1664626Y1253636D01*
X1656670Y1265544D01*
X1646544Y1275670D01*
X1634636Y1283626D01*
X1621406Y1289106D01*
X1607360Y1291900D01*
X1593040Y1291900D01*
X1578994Y1289106D01*
X1565764Y1283626D01*
X1553856Y1275670D01*
X1543730Y1265544D01*
X1542966Y1264400D01*
X1514814Y1264400D01*
X1514749Y1264613D01*
X1509518Y1274400D01*
X1502478Y1282978D01*
X1493900Y1290018D01*
X1484113Y1295249D01*
X1473494Y1298471D01*
X1462450Y1299558D01*
X1412450Y1299558D01*
X1401406Y1298471D01*
X1390787Y1295249D01*
X1381000Y1290018D01*
X1372422Y1282978D01*
X1365382Y1274400D01*
X1360151Y1264613D01*
X1356930Y1253994D01*
X1355842Y1242950D01*
X1355842Y1195450D01*
X1356536Y1188400D01*
X1335864Y1188400D01*
X1336558Y1195450D01*
X1336558Y1242950D01*
X1335471Y1253994D01*
X1332249Y1264613D01*
X1327018Y1274400D01*
X1319978Y1282978D01*
X1311400Y1290018D01*
X1301613Y1295249D01*
X1290994Y1298471D01*
X1279950Y1299558D01*
X1229950Y1299558D01*
X1218906Y1298471D01*
X1208287Y1295249D01*
X1198500Y1290018D01*
X1189922Y1282978D01*
X1182882Y1274400D01*
X1181100Y1271066D01*
X1179318Y1274400D01*
X1172278Y1282978D01*
X1163700Y1290018D01*
X1153913Y1295249D01*
X1143294Y1298471D01*
X1132250Y1299558D01*
X1082250Y1299558D01*
X1071206Y1298471D01*
X1060587Y1295249D01*
X1050800Y1290018D01*
X1042222Y1282978D01*
X1035182Y1274400D01*
X1029951Y1264613D01*
X1026729Y1253994D01*
X1025642Y1242950D01*
X1025642Y1195450D01*
X1026026Y1191548D01*
X984578Y1150100D01*
X590223Y1150100D01*
X536400Y1203922D01*
X536400Y1350742D01*
X561200Y1350742D01*
X567610Y1351373D01*
X573774Y1353243D01*
X579455Y1356279D01*
X584434Y1360366D01*
X588521Y1365345D01*
X591557Y1371026D01*
X593427Y1377190D01*
X594058Y1383600D01*
X594058Y1413600D01*
X593427Y1420010D01*
X592338Y1423600D01*
X593427Y1427190D01*
X594058Y1433600D01*
X594058Y1463600D01*
X593427Y1470010D01*
X592338Y1473600D01*
X593427Y1477190D01*
X594058Y1483600D01*
X594058Y1492984D01*
X596714Y1493789D01*
X602367Y1496811D01*
X607322Y1500878D01*
X611389Y1505833D01*
X614411Y1511486D01*
X615052Y1513600D01*
X828342Y1513600D01*
X828342Y1483600D01*
X828973Y1477190D01*
X830062Y1473600D01*
X828973Y1470010D01*
X828342Y1463600D01*
X828342Y1433600D01*
X828973Y1427190D01*
X830843Y1421026D01*
X833879Y1415345D01*
X837966Y1410366D01*
X842945Y1406279D01*
X848626Y1403243D01*
X854790Y1401373D01*
X861200Y1400742D01*
X1001200Y1400742D01*
X1007610Y1401373D01*
X1013774Y1403243D01*
X1019455Y1406279D01*
X1024434Y1410366D01*
X1028521Y1415345D01*
X1031557Y1421026D01*
X1033427Y1427190D01*
X1034058Y1433600D01*
X1034058Y1463600D01*
X1033427Y1470010D01*
X1032338Y1473600D01*
X1033427Y1477190D01*
X1034058Y1483600D01*
X1034058Y1513600D01*
X1033427Y1520010D01*
X1031557Y1526174D01*
X1028521Y1531855D01*
X1024434Y1536834D01*
X1019455Y1540921D01*
X1013774Y1543957D01*
X1007610Y1545827D01*
X1001200Y1546458D01*
X861200Y1546458D01*
X854790Y1545827D01*
X848626Y1543957D01*
X842945Y1540921D01*
X837966Y1536834D01*
X833879Y1531855D01*
X830843Y1526174D01*
X828973Y1520010D01*
X828342Y1513600D01*
X615052Y1513600D01*
X616272Y1517620D01*
X616900Y1524000D01*
X616900Y2075500D01*
X805500Y2075500D01*
X805500Y1587500D01*
G37*
G04 #@! TD.AperFunction*
M02*
